<svg xmlns="http://www.w3.org/2000/svg" xmlns:xlink="http://www.w3.org/1999/xlink" viewBox="0 0 600 600"><defs><clipPath id="a"><rect width="600" height="600" fill="none"/></clipPath><clipPath id="c"><path d="M286.08,16.42,16.42,286.08a19.68,19.68,0,0,0,0,27.84L286.08,583.58a19.68,19.68,0,0,0,27.84,0L583.58,313.92a19.68,19.68,0,0,0,0-27.84L313.92,16.42a19.68,19.68,0,0,0-27.84,0" fill="none"/></clipPath></defs><title>Namnlöst-1</title><g clip-path="url(#a)"><g clip-path="url(#a)"><path d="M300,584.35a14.59,14.59,0,0,1-10.38-4.3L20,310.38a14.7,14.7,0,0,1,0-20.76L289.62,20a14.68,14.68,0,0,1,20.76,0L580.05,289.62a14.68,14.68,0,0,1,0,20.76L310.38,580.05a14.59,14.59,0,0,1-10.38,4.3" fill="#83519c"/><path d="M300,20.65a9.62,9.62,0,0,1,6.85,2.84L576.51,293.15a9.69,9.69,0,0,1,0,13.7L306.85,576.51a9.68,9.68,0,0,1-13.7,0L23.49,306.85a9.69,9.69,0,0,1,0-13.7L293.15,23.49A9.62,9.62,0,0,1,300,20.65m0-10a19.61,19.61,0,0,0-13.92,5.77L16.42,286.08a19.68,19.68,0,0,0,0,27.84L286.08,583.58a19.68,19.68,0,0,0,27.84,0L583.58,313.92a19.68,19.68,0,0,0,0-27.84L313.92,16.42A19.61,19.61,0,0,0,300,10.65" fill="#fff"/></g><g clip-path="url(#c)"><path d="M172.47,94,218.9,307.41a5.72,5.72,0,0,0,7.5,4.41l53.34-18.36a5.73,5.73,0,0,1,7.58,5.1l11,200.27a5.72,5.72,0,0,0,11.17,1.42l94.39-297a5.72,5.72,0,0,0-6.76-7.3l-71,16.64a5.72,5.72,0,0,1-6.7-7.47L366.17,72.63c.64-1.83-42.55-59.74-42.55-59.74a5.72,5.72,0,0,0-4.54-2.24h-95.5a5.7,5.7,0,0,0-5.1,3.14s-46.23,79-46,80.21" fill="#fff"/></g></g></svg>