<svg id="ba6ca559-5c70-4ec6-8f43-ef6ed3bc8cb0" data-name="Lager 1" xmlns="http://www.w3.org/2000/svg" xmlns:xlink="http://www.w3.org/1999/xlink" viewBox="0 0 578.7 578.7"><defs><clipPath id="e8015fa9-491f-41e0-9ea7-467f420a42eb" transform="translate(-10.65 -10.65)"><rect width="600" height="600" fill="none"/></clipPath></defs><title>pierce-number</title><g clip-path="url(#e8015fa9-491f-41e0-9ea7-467f420a42eb)"><g clip-path="url(#e8015fa9-491f-41e0-9ea7-467f420a42eb)"><path d="M300,584.35a14.59,14.59,0,0,1-10.38-4.3L20,310.38a14.7,14.7,0,0,1,0-20.76L289.62,20a14.68,14.68,0,0,1,20.76,0L580.05,289.62a14.7,14.7,0,0,1,0,20.76L310.38,580.05a14.59,14.59,0,0,1-10.38,4.3" transform="translate(-10.65 -10.65)" fill="#ce8f46"/><path d="M300,20.65a9.62,9.62,0,0,1,6.85,2.84L576.51,293.15a9.68,9.68,0,0,1,0,13.69h0L306.85,576.51a9.68,9.68,0,0,1-13.69,0h0L23.49,306.85a9.69,9.69,0,0,1,0-13.7L293.15,23.49A9.62,9.62,0,0,1,300,20.65m0-10a19.61,19.61,0,0,0-13.92,5.77L16.42,286.08a19.68,19.68,0,0,0,0,27.83h0L286.08,583.58a19.68,19.68,0,0,0,27.83,0h0L583.58,313.92a19.68,19.68,0,0,0,0-27.83h0L313.92,16.42A19.61,19.61,0,0,0,300,10.65" transform="translate(-10.65 -10.65)" fill="#fff"/><polygon points="141.84 277.53 70.57 277.53 63.35 289.35 70.57 301.17 141.84 301.17 141.84 277.53" fill="#fff"/><polygon points="435.92 259.35 417.87 277.53 233.96 277.53 233.96 301.17 417.87 301.17 435.92 319.35 515.35 289.35 435.92 259.35" fill="#fff"/><path d="M357,268.48l30.09-23.4H360.42l26.63-46.16-42.61,32.85V113.7l-36.39,95L285,163.41v48.38l-25.64-9.32L283.3,243.2a3,3,0,0,0,4.1,1.1l.16-.1A40.45,40.45,0,0,1,326,240.85c13.68,5.87,22.89,20.3,26.45,26.71a3,3,0,0,0,4.06,1.22,2.8,2.8,0,0,0,.46-.3" transform="translate(-10.65 -10.65)" fill="#fff"/><path d="M357,333.72l30.09,23.4H360.42l26.63,46.16-42.61-32.85V488.5l-36.39-95L285,438.79V390.41l-25.64,9.32L283.27,359a3,3,0,0,1,4.1-1.1l.16.1A40.43,40.43,0,0,0,326,361.34c13.68-5.86,22.89-20.29,26.45-26.7a3,3,0,0,1,4.06-1.22,2.8,2.8,0,0,1,.46.3" transform="translate(-10.65 -10.65)" fill="#fff"/><text transform="translate(152.9 347.93)" font-size="170" fill="#fff" font-family="PirataOne-Regular, Pirata One">$</text></g></g></svg>