<svg id="acb0f663-b5aa-4d06-910f-bb4802fc2f86" data-name="Lager 1" xmlns="http://www.w3.org/2000/svg" xmlns:xlink="http://www.w3.org/1999/xlink" viewBox="0 0 578.69 578.69"><defs><style>.b6c65e20-2f91-4350-b936-57e9eb90d325{fill:none;}.edd7301e-5455-47ff-8515-6097a57f2089{clip-path:url(#aabaf6ab-1f59-42a5-941f-fb47213b3725);}.a076eb99-230e-4efa-9189-0c407189f67b{fill:#565251;}.a6cc52a6-86fb-4f0b-8f2a-1b04c221b65c,.b656598c-265a-4df2-a422-1fb9a5e5d47e{fill:#fff;}.b656598c-265a-4df2-a422-1fb9a5e5d47e{isolation:isolate;font-size:160px;font-family:PirataOne-Regular, Pirata One;}</style><clipPath id="aabaf6ab-1f59-42a5-941f-fb47213b3725" transform="translate(-0.01 0)"><rect class="b6c65e20-2f91-4350-b936-57e9eb90d325" x="-10.65" y="-10.65" width="600" height="600"/></clipPath></defs><title>pull-number</title><g class="edd7301e-5455-47ff-8515-6097a57f2089"><g class="edd7301e-5455-47ff-8515-6097a57f2089"><path class="a076eb99-230e-4efa-9189-0c407189f67b" d="M289.35,573.7A14.59,14.59,0,0,1,279,569.4L9.3,299.73A14.7,14.7,0,0,1,9.3,279L279,9.35a14.68,14.68,0,0,1,20.76,0L569.35,279a14.7,14.7,0,0,1,0,20.76L299.73,569.4a14.59,14.59,0,0,1-10.38,4.3" transform="translate(-0.01 0)"/><path class="a6cc52a6-86fb-4f0b-8f2a-1b04c221b65c" d="M289.35,10a9.62,9.62,0,0,1,6.85,2.84L565.86,282.51h0a9.68,9.68,0,0,1,0,13.69L296.19,565.86h0a9.68,9.68,0,0,1-13.69,0L12.84,296.19h0a9.68,9.68,0,0,1,0-13.69L282.5,12.84A9.62,9.62,0,0,1,289.35,10m0-10a19.61,19.61,0,0,0-13.92,5.77L5.77,275.44h0a19.69,19.69,0,0,0,0,27.83L275.44,572.93h0a19.69,19.69,0,0,0,27.83,0L572.93,303.26h0a19.69,19.69,0,0,0,0-27.83L303.27,5.77A19.61,19.61,0,0,0,289.35,0" transform="translate(-0.01 0)"/><path class="a6cc52a6-86fb-4f0b-8f2a-1b04c221b65c" d="M193.94,246.44H331.83a4.28,4.28,0,0,1,3.48,6.79c-5.22,7.29-12.22,20-12.22,36.12s7,28.83,12.22,36.12a4.28,4.28,0,0,1-3.48,6.79H193.94Z" transform="translate(-0.01 0)"/><path class="a6cc52a6-86fb-4f0b-8f2a-1b04c221b65c" d="M379.46,332.26a14.25,14.25,0,0,1-10.2-4.31c-5.71-5.85-14.22-18-14.22-38.6s8.51-32.75,14.22-38.6a14.25,14.25,0,0,1,10.2-4.31h49.73a4.28,4.28,0,0,1,3.48,6.79c-5.22,7.29-12.22,20-12.22,36.12s7,28.83,12.22,36.12a4.28,4.28,0,0,1-3.48,6.79H379.46" transform="translate(-0.01 0)"/><path class="a6cc52a6-86fb-4f0b-8f2a-1b04c221b65c" d="M483.55,332.26a14.25,14.25,0,0,1-10.2-4.31c-5.72-5.85-14.22-18-14.22-38.6s8.5-32.75,14.22-38.6a14.24,14.24,0,0,1,10.16-4.31H494a4.29,4.29,0,0,1,3.49,6.79c-5.23,7.29-12.23,20-12.23,36.12s7,28.83,12.23,36.12a4.29,4.29,0,0,1-3.49,6.79h-10.5" transform="translate(-0.01 0)"/><path class="a6cc52a6-86fb-4f0b-8f2a-1b04c221b65c" d="M211.46,385.66a4,4,0,0,0,6.3-3.23V196.27a4,4,0,0,0-6.3-3.23l-129,92.4a4.87,4.87,0,0,0-1.11,1.11,4.81,4.81,0,0,0,1.07,6.71l129,92.4" transform="translate(-0.01 0)"/></g></g><text class="b656598c-265a-4df2-a422-1fb9a5e5d47e" transform="translate(254.51 504.56)">$</text></svg>