<svg xmlns="http://www.w3.org/2000/svg" xmlns:xlink="http://www.w3.org/1999/xlink" viewBox="0 0 600 600"><defs><clipPath id="a"><rect width="600" height="600" fill="none"/></clipPath></defs><title>Namnlöst-1</title><g clip-path="url(#a)"><g clip-path="url(#a)"><path d="M198.78,188.05c-30.89,21.87-33.23,58.07-33.23,91.79V424h80.69A24.93,24.93,0,0,0,271.17,399V283.14c0-21,8.19-49.88,50.2-56.9-15.87-33.52-47.29-39-75.74-39-6.12,0-11.92.26-17,.49-4.29.2-8,.36-11.3.36Z" fill="#fff"/><path d="M349.58,385l47.91,41.49L445.4,385l4.43-3.83,43.48-37.68H449.83V274.85c0-53-5.71-112.09-118.82-112.09-7.42,0-17.19-.23-28.1-.23-26.72,0-60.3,1.35-83.12,10.64,7,0,17-.86,28.34-.86,39.83,0,96.06,10.56,96.06,105.82v65.34H301.67l42.52,36.84Z" fill="#fff"/></g></g></svg>