<svg id="ba0b0372-0d00-4f9d-a01a-34b4aa462126" data-name="Lager 1" xmlns="http://www.w3.org/2000/svg" viewBox="0 0 559 559"><defs><style>.bd1c246f-d5db-41be-b318-c1f42b3b8137,.bf4c1e9b-f137-47ec-b660-ae3a94573bc4{fill:#fff;}.f3727d17-992e-4de2-a572-11957b8f9dc4{fill:#9e5d40;}.af5799be-5399-492a-b1a9-78712a31808b,.bd1c246f-d5db-41be-b318-c1f42b3b8137{isolation:isolate;font-family:PirataOne-Regular, Pirata One;}.af5799be-5399-492a-b1a9-78712a31808b{font-size:209.95px;}.bd1c246f-d5db-41be-b318-c1f42b3b8137{font-size:145.18px;}</style></defs><title>shield-self</title><circle class="bf4c1e9b-f137-47ec-b660-ae3a94573bc4" cx="279.5" cy="279.5" r="279.5"/><circle class="f3727d17-992e-4de2-a572-11957b8f9dc4" cx="279.5" cy="279.5" r="262.41"/><path class="bf4c1e9b-f137-47ec-b660-ae3a94573bc4" d="M449.21,129.64a5,5,0,0,0-3.51-6.06C408,113,326.77,110.34,300.51,97.42,274.26,110.34,193,113,155.34,123.58a5,5,0,0,0-3.52,6.06c19.57,78-18,118.34-9.09,175,10.13,64.3,124.8,74.17,157.77,104.47,33-30.25,147.65-40.17,157.77-104.47,8.91-56.63-28.66-97.08-9.09-175" transform="translate(-21 -20.5)"/><text class="af5799be-5399-492a-b1a9-78712a31808b" transform="translate(259.71 307.58)">1</text><text class="bd1c246f-d5db-41be-b318-c1f42b3b8137" transform="translate(177.14 501.73)">Self</text></svg>