<svg xmlns="http://www.w3.org/2000/svg" xmlns:xlink="http://www.w3.org/1999/xlink" viewBox="0 0 600 600"><defs><clipPath id="a"><rect width="600" height="600" fill="none"/></clipPath></defs><title>Namnlöst-1</title><g clip-path="url(#a)"><g clip-path="url(#a)"><path d="M425.46,406s-24.85,6.48-64.5-12.49c-26.24,11.93-50.15,16.52-77,11.93-18.58-3.18-36.43-8.9-54.63-13.91-27.54-7.58-52.71-13.07-55.79-17.79-5.11-7.84-17.33-49.25,3.75-99.85,12.28-29.46,23.54-52.36,25.22-64.41.6-4.27,1.36-36.47,48.74-53.16s78.38-10.91,86.22,4.08,6.8,51.62-2.05,50.78c-13.88-1.31-27.56,5.38-41,4s-28.88-10.78-33-8.25-7.44,18-9.54,28.92c-3.1,16.16,10.9,40.82,11.92,60,6.48-5.61,25.7-15.35,49.08-16.18,21.18-.75,29.31,4.43,44.64,19.77,5.11-4.17,29.69-22.12,71.26-20.42.25,27.11,6,47.63,6,77.46,0,46.2-9.37,49.51-9.37,49.51" fill="#fff"/></g></g></svg>