<svg xmlns="http://www.w3.org/2000/svg" xmlns:xlink="http://www.w3.org/1999/xlink" viewBox="0 0 600 600"><defs><clipPath id="a"><rect width="600" height="600" fill="none"/></clipPath></defs><title>Namnlöst-1</title><g clip-path="url(#a)"><g clip-path="url(#a)"><path d="M424.2,177.56l-81.72,22.5L287,127.72l-39.27,93L157,219.61l52.8,66.21L128.6,352.58l104.32,16.58,2.57,87.39L297.69,405,348,450.26l.69-76.61,82,11.76-33.06-73.08,74.18-37L392.27,241Zm-22.29,101-39.94,27L383.19,349l-47,.42-10.15,48.35-33.3-29-31.35,25.73L256,342.34l-52-9.85L242.89,293l-23.42-45.86,45-3.28,32.86-57,34.62,49.42,39.94-15.94-16,36.86Zm-44.59,8.9L335.5,302.19l11.59,23.75-25.67.22-5.54,26.43-18.2-15.84-17.13,14.06-3-28.52-28.41-5.38,21.26-21.57-12.8-25,24.57-1.8,18-31.15,18.91,27,21.83-8.71-8.74,20.14Z" fill="#fff"/></g></g></svg>