<svg xmlns="http://www.w3.org/2000/svg" xmlns:xlink="http://www.w3.org/1999/xlink" viewBox="0 0 600 600"><defs><clipPath id="a"><rect width="600" height="600" fill="none"/></clipPath></defs><title>Namnlöst-1</title><g clip-path="url(#a)"><g clip-path="url(#a)"><path d="M300,584.35a14.59,14.59,0,0,1-10.38-4.3L20,310.38a14.7,14.7,0,0,1,0-20.76L289.62,20a14.68,14.68,0,0,1,20.76,0L580.05,289.62a14.7,14.7,0,0,1,0,20.76L310.38,580.05a14.59,14.59,0,0,1-10.38,4.3" fill="#aa1a17"/><path d="M300,20.65a9.62,9.62,0,0,1,6.85,2.84L576.51,293.15a9.69,9.69,0,0,1,0,13.7L306.85,576.51a9.68,9.68,0,0,1-13.7,0L23.49,306.85a9.68,9.68,0,0,1,0-13.7L293.15,23.49A9.62,9.62,0,0,1,300,20.65m0-10a19.61,19.61,0,0,0-13.92,5.77L16.42,286.08a19.68,19.68,0,0,0,0,27.84L286.08,583.58a19.68,19.68,0,0,0,27.84,0L583.58,313.92a19.68,19.68,0,0,0,0-27.84L313.92,16.42A19.61,19.61,0,0,0,300,10.65" fill="#fff"/><path d="M300,142.81A157.19,157.19,0,1,0,457.19,300,157.19,157.19,0,0,0,300,142.81m0,275.49A118.3,118.3,0,1,1,418.3,300,118.3,118.3,0,0,1,300,418.3" fill="#fff"/><path d="M300,215.33A84.67,84.67,0,1,0,384.67,300,84.67,84.67,0,0,0,300,215.33m0,131.92A47.25,47.25,0,1,1,347.25,300,47.26,47.26,0,0,1,300,347.25" fill="#fff"/></g></g></svg>