<svg xmlns="http://www.w3.org/2000/svg" xmlns:xlink="http://www.w3.org/1999/xlink" viewBox="0 0 600 600"><defs><clipPath id="a"><rect width="600" height="600" fill="none"/></clipPath></defs><title>Namnlöst-1</title><g clip-path="url(#a)"><g clip-path="url(#a)"><polygon points="299.02 217.36 334.83 279.39 370.64 341.43 299.02 341.43 227.39 341.43 263.2 279.39 299.02 217.36" fill="#fff"/><path d="M326,158.39a27,27,0,1,1-27-27,27,27,0,0,1,27,27" fill="#fff"/><path d="M402.93,395.83a27,27,0,1,1,37.24-8.42,27,27,0,0,1-37.24,8.42" fill="#fff"/><path d="M167.66,353.57A27,27,0,1,1,160.21,391a27,27,0,0,1,7.45-37.45" fill="#fff"/><circle cx="299.02" cy="298.31" r="140.29" fill="none" stroke="#fff" stroke-miterlimit="10" stroke-width="16"/><circle cx="299.02" cy="298.31" r="76.58" fill="none" stroke="#fff" stroke-miterlimit="10" stroke-width="16"/></g></g></svg>