<svg xmlns="http://www.w3.org/2000/svg" viewBox="0 0 186.54 186.61"><title>cross</title><path d="M30.1,1c-1.4.5-8.4,7.1-15.8,14.6C.5,29.78-1.1,32.38.5,38.58c.4,1.8,9.9,12.1,26.6,28.8l25.9,26-23.6,23.5c-13,12.9-24.9,25.3-26.5,27.4-3.2,4.3-3.7,8.2-1.5,12.4s26.7,27.9,30,29.2c6.2,2.3,8.4.7,35.8-26.7l25.7-25.7,26.3,26c27.3,27.1,28.4,27.9,35.3,26.7,4.2-.8,31-27.6,31.8-31.7,1.1-6.2-.7-8.4-26.8-34.6-14-14.1-25.5-26-25.5-26.6s11.5-12.4,25.5-26.4c26.9-26.9,28.3-28.7,26.4-35.3-1-3.8-26.9-30-30.7-31.2a14.68,14.68,0,0,0-6,0c-3.1.6-7.7,4.7-30,26.8L93,53.38,67.2,27.68C53.1,13.58,40.5,1.58,39.3,1A11.23,11.23,0,0,0,30.1,1Z"/></svg>