<svg xmlns="http://www.w3.org/2000/svg" xmlns:xlink="http://www.w3.org/1999/xlink" viewBox="0 0 600 600"><defs><clipPath id="a"><rect width="600" height="600" fill="none"/></clipPath><clipPath id="c"><path d="M286.08,16.42,16.42,286.08a19.68,19.68,0,0,0,0,27.84L286.08,583.58a19.68,19.68,0,0,0,27.84,0L583.58,313.92a19.68,19.68,0,0,0,0-27.84L313.92,16.42a19.68,19.68,0,0,0-27.84,0" fill="none"/></clipPath></defs><title>Namnlöst-1</title><g clip-path="url(#a)"><g clip-path="url(#a)"></g><g clip-path="url(#c)"><path d="M172.47,94,218.9,307.41a5.72,5.72,0,0,0,7.5,4.41l53.34-18.36a5.73,5.73,0,0,1,7.58,5.1l11,200.27a5.72,5.72,0,0,0,11.17,1.42l94.39-297a5.72,5.72,0,0,0-6.76-7.3l-71,16.64a5.72,5.72,0,0,1-6.7-7.47L366.17,72.63c.64-1.83-42.55-59.74-42.55-59.74a5.72,5.72,0,0,0-4.54-2.24h-95.5a5.7,5.7,0,0,0-5.1,3.14s-46.23,79-46,80.21" fill="#fff"/></g></g></svg>