<svg xmlns="http://www.w3.org/2000/svg" xmlns:xlink="http://www.w3.org/1999/xlink" viewBox="0 0 600 600"><defs><clipPath id="a"><rect width="600" height="600" fill="none"/></clipPath></defs><title>Namnlöst-1</title><g clip-path="url(#a)"><g clip-path="url(#a)"><path d="M475.36,276.63c-7.5-32.86-25-95.1-169.22-95.1s-161.71,62.24-169.21,95.1c-13.35,58.51,12.71,86.4,27.65,96.87,18.4,12.89,62.19,15.09,62.19,15.09s-5.9,29.2,0,36c13,14.95,141.48,15.95,158.74,0,6.61-6.1,0-36,0-36s43.8-2.2,62.2-15.09c14.94-10.47,41-38.36,27.65-96.87" fill="#fff"/><path d="M299,327.05c-8.88,1.69-22.47,37.38-19.61,44.23s9.08-2.84,22.25,0c11.61,2.5,11.58,5.68,17.61,5.75,4.27.05.1-18.3-3.41-36-2.67-13.43-7.95-15.66-16.84-14" fill="#848366"/><path d="M232.16,295l29.9-26.16a7.45,7.45,0,0,0,0-10.71,7.89,7.89,0,0,0-11,0l-26,29.8-26.57-29.79a6.8,6.8,0,0,0-10,0,7.9,7.9,0,0,0,0,10.68L218,295l-30,26.16a7.33,7.33,0,0,0,0,10.71,8.21,8.21,0,0,0,11.23,0l25.85-29.8,26.48,29.67a7.1,7.1,0,0,0,10.18,0,7.44,7.44,0,0,0,0-10.38Z" fill="#848366"/><path d="M232.16,295l29.9-26.16a7.45,7.45,0,0,0,0-10.71,7.89,7.89,0,0,0-11,0l-26,29.8-26.57-29.79a6.8,6.8,0,0,0-10,0,7.9,7.9,0,0,0,0,10.68L218,295l-30,26.16a7.33,7.33,0,0,0,0,10.71,8.21,8.21,0,0,0,11.23,0l25.85-29.8,26.48,29.67a7.1,7.1,0,0,0,10.18,0,7.44,7.44,0,0,0,0-10.38Z" fill="none" stroke="#848367" stroke-miterlimit="10" stroke-width="5"/><path d="M382.14,295l29.91-26.16a7.45,7.45,0,0,0,0-10.71,7.89,7.89,0,0,0-11,0l-26,29.8L348.5,258.14a6.79,6.79,0,0,0-10,0,7.9,7.9,0,0,0,0,10.68L368,295l-30,26.16a7.31,7.31,0,0,0,0,10.71,8.2,8.2,0,0,0,11.22,0l25.85-29.8,26.48,29.67a7.11,7.11,0,0,0,10.19,0,7.44,7.44,0,0,0,0-10.38Z" fill="#848366"/><path d="M382.14,295l29.91-26.16a7.45,7.45,0,0,0,0-10.71,7.89,7.89,0,0,0-11,0l-26,29.8L348.5,258.14a6.79,6.79,0,0,0-10,0,7.9,7.9,0,0,0,0,10.68L368,295l-30,26.16a7.31,7.31,0,0,0,0,10.71,8.2,8.2,0,0,0,11.22,0l25.85-29.8,26.48,29.67a7.11,7.11,0,0,0,10.19,0,7.44,7.44,0,0,0,0-10.38Z" fill="none" stroke="#848367" stroke-miterlimit="10" stroke-width="5"/></g></g></svg>