<svg id="ad53ab14-00c4-437f-b028-db5ec68e40d5" data-name="Lager 1" xmlns="http://www.w3.org/2000/svg" xmlns:xlink="http://www.w3.org/1999/xlink" viewBox="0 0 300 300"><defs><clipPath id="a12ba06a-c588-428e-bd22-14cf47d03489"><rect width="300" height="300" fill="none"/></clipPath></defs><title>g</title><g id="ab11b3ac-a19f-4521-a723-56084eca804e" data-name="attack"><g clip-path="url(#a12ba06a-c588-428e-bd22-14cf47d03489)"><polygon points="101.89 245.94 94.98 250.87 44.1 203.91 48.46 196.63 62.45 209.54 149.8 114.89 179.67 108.06 175.25 138.37 87.9 233.02 101.89 245.94" fill="#1d1d1b"/><g clip-path="url(#a12ba06a-c588-428e-bd22-14cf47d03489)"><path d="M72.16,237.82,46.54,265.59s-4.42.64-9-3.56-4.26-8.65-4.26-8.65l25.62-27.77Z" fill="#1d1d1b"/><polygon points="96.75 146.69 106.8 140.45 88.14 117 126.56 112.86 128.29 78.4 150.69 92.46 186.18 75.28 190.93 115.01 217.72 121.73 195.54 134.91 211.49 163.32 180.53 162.38 177.82 201.02 153.47 182.34 147.99 192.83 190.1 255.93 196.54 179.31 259.13 201.26 220.57 140.18 266.7 119.15 210.05 100.12 206.63 34.37 151.69 73.13 106.13 40.57 108.73 94.9 34.17 98.11 96.75 146.69" fill="#1d1d1b"/></g></g></g></svg>