<svg id="ad556d6b-0204-4fc2-9ebe-49e4a03f63dd" data-name="Lager 1" xmlns="http://www.w3.org/2000/svg" viewBox="0 0 300 300"><title>bless</title><polygon points="149.49 80.91 179.19 132.37 208.9 183.84 149.49 183.84 90.06 183.84 119.77 132.37 149.49 80.91"/><path d="M172.9,35.3a22.4,22.4,0,1,1-22.4-22.4,22.4,22.4,0,0,1,22.4,22.4h0"/><path d="M236.69,229a22.4,22.4,0,1,1,30.91-7h0a22.41,22.41,0,0,1-30.9,7"/><path d="M41.5,193.91A22.4,22.4,0,1,1,35.34,225h0a22.4,22.4,0,0,1,6.18-31.07h0"/><path d="M150.5,273.09a123,123,0,1,1,123-123A123.17,123.17,0,0,1,150.5,273.09Zm0-232.78A109.76,109.76,0,1,0,260.26,150.07,109.88,109.88,0,0,0,150.5,40.31Z"/><path d="M149.5,220.24a70.17,70.17,0,1,1,70.17-70.17h0A70.25,70.25,0,0,1,149.5,220.24Zm0-127.07a56.9,56.9,0,1,0,56.9,56.9h0A57,57,0,0,0,149.5,93.17Z"/></svg>