<svg id="a80d4998-1ad1-4b6a-84ee-497bf9cbcab9" data-name="Lager 1" xmlns="http://www.w3.org/2000/svg" xmlns:xlink="http://www.w3.org/1999/xlink" viewBox="0 0 300 300"><defs><clipPath id="faf165f9-972a-40c3-ab1a-2294354475dd"><rect width="300" height="300" fill="none"/></clipPath></defs><title>g</title><g id="fae06877-9bf4-4a17-85f4-d24ae37a0f54" data-name="bonus-round"><g clip-path="url(#faf165f9-972a-40c3-ab1a-2294354475dd)"><g clip-path="url(#faf165f9-972a-40c3-ab1a-2294354475dd)"><path d="M125.4,129.2a33.49,33.49,0,1,1,0-45h48.36V57.54a10,10,0,0,0-10-10H37.4a10,10,0,0,0-10,10V242.46a10,10,0,0,0,10,10H163.77a10,10,0,0,0,10-10V129.2Z" fill="#1d1d1b"/><path d="M272.6,106.7a23.49,23.49,0,0,1-43.38,12.5H120.47a23.49,23.49,0,1,1,0-25H229.21a23.49,23.49,0,0,1,43.39,12.5" fill="#e16365"/><path d="M134.5,215.82,153,183.71H141.85a43.65,43.65,0,1,0-19.25,49.11,7,7,0,1,0-7.31-11.94A29.67,29.67,0,1,1,127,183.71H116Z" fill="#fff"/></g></g></g></svg>