<svg id="f2eb37b8-0af7-4448-97df-25177a846e54" data-name="Lager 1" xmlns="http://www.w3.org/2000/svg" xmlns:xlink="http://www.w3.org/1999/xlink" viewBox="0 0 300 300"><defs><clipPath id="be1033bb-c55f-4bcf-b6eb-025c81ff7c79"><rect width="300" height="300" fill="none"/></clipPath></defs><title>g</title><g id="b00ea962-0d6f-492a-91ac-728e0031435c" data-name="bonus-persistent"><g clip-path="url(#be1033bb-c55f-4bcf-b6eb-025c81ff7c79)"><g clip-path="url(#be1033bb-c55f-4bcf-b6eb-025c81ff7c79)"><path d="M114.73,129.2a33.5,33.5,0,1,1,0-45h48.36V57.54a10,10,0,0,0-10-10H26.72a10,10,0,0,0-10,10V242.46a10,10,0,0,0,10,10H153.09a10,10,0,0,0,10-10V129.2Z" fill="#1d1d1b"/><path d="M229.31,137.86V119.2H109.8a23.49,23.49,0,1,1,0-25h119.5V75.53l54,31.17Z" fill="#e16365"/><path d="M118.66,221.36a29.09,29.09,0,0,1-22.83-7.3s4.3-6.59,7.72-11.88c8.75,9,23.67,5.43,27-6.13s-4.72-20.35-15.15-20.86c-9.12-.45-16.87,14.11-19.81,19.06C84,214.84,75.05,220.06,63.82,220.39s-29.14-9.59-29.66-28.63,13.1-30,27-31.67A29.1,29.1,0,0,1,84,167.38s-4.31,6.6-7.72,11.89c-8.75-9-23.67-5.43-27,6.12S54,205.74,64.43,206.26c9.11.45,16.85-14.09,19.8-19,11.6-20.59,20.54-25.82,31.76-26.15s29.15,9.59,29.66,28.63-13.1,30-27,31.67" fill="#fff"/></g></g></g></svg>