<svg id="b8c962ae-55b2-4053-807c-1ab31c5a5350" data-name="Lager 1" xmlns="http://www.w3.org/2000/svg" xmlns:xlink="http://www.w3.org/1999/xlink" viewBox="0 0 300 300"><defs><clipPath id="e08c5e86-8cbc-4043-bb2a-8747d5423fc6"><rect width="300" height="300" fill="none"/></clipPath></defs><title>g</title><g id="bb0adeeb-180e-4ef1-ad28-3606e10fe2cb" data-name="consume"><g clip-path="url(#e08c5e86-8cbc-4043-bb2a-8747d5423fc6)"><g clip-path="url(#e08c5e86-8cbc-4043-bb2a-8747d5423fc6)"><path d="M191.09,212.3c-.27-.29-.52-.57-15-17.82C152.66,220.25,146.88,226,144.55,228a27.71,27.71,0,0,1-18.1,7c-8.25,0-20-4.66-28.36-17.75l-6.36-10,8.24-8.5c1.4-1.46,12.68-14.06,24.63-27.4l16.55-18.48c-12.77-15.21-30.1-35.86-30.87-36.83l-8.34-10.43,9.4-9.49c7.36-7.43,28.57-20.72,44.59-20.72,9,0,14.48,3.89,17.47,7.15.17.2.55.6,15,17.82,1.47-1.62,2.86-3.15,4.2-4.61V57.54a10,10,0,0,0-10-10H56.26a10,10,0,0,0-10,10V242.46a10,10,0,0,0,10,10H182.63a10,10,0,0,0,10-10V213.81a20.16,20.16,0,0,1-1.54-1.51" fill="#fff"/><path d="M253.74,85.67c-3.22-5.07-13.43-16.48-24.06-7.4-3.62,3.09-21.13,22.22-41.66,44.94C174,106.49,162.61,93,162.33,92.72c-7.17-7.83-32.86,6.45-40.33,14,.64.81,19.66,23.47,39,46.51-25.13,28-48,53.64-50.27,56,3.23,5.07,13.44,16.48,24.06,7.4,3.63-3.1,21.15-22.23,41.69-45,14,16.72,25.37,30.19,25.67,30.52,7.16,7.83,32.85-6.45,40.33-14-1.89-2.36-20.29-24.3-39-46.55,25.11-28,48-53.6,50.23-56" fill="#e16365"/></g></g></g></svg>