<svg id="e66894fc-d8c6-42db-a83b-395d330f744b" data-name="a3445170-d0d6-4550-9bdb-46b26f2bc335" xmlns="http://www.w3.org/2000/svg" xmlns:xlink="http://www.w3.org/1999/xlink" viewBox="0 0 300 300"><defs><clipPath id="ab3b54a0-9c8f-4ac0-9516-323366e47781"><rect width="300" height="300" fill="none"/></clipPath></defs><title>cross</title><path d="M265,51.56c-5.11-8.12-21.51-26.41-38.52-11.85-5.82,5-33.86,35.58-66.73,72-22.53-26.8-40.69-48.35-41.15-48.84C107.13,50.31,66,73.07,54,85.28c1,1.28,31.49,37.59,62.5,74.48C76.25,204.61,39.65,245.68,36,249.46c5.11,8.09,21.51,26.38,38.52,11.85,5.82-5.11,33.89-35.76,66.76-72,22.5,26.77,40.64,48.35,41.12,48.86,11.47,12.57,52.61-10.22,64.59-22.4-3-3.8-32.48-38.92-62.44-74.55,40.22-44.83,76.8-85.85,80.45-89.63"/></svg>