<svg id="e9fcc8cf-73f1-465e-b4c8-598c47128392" data-name="Lager 1" xmlns="http://www.w3.org/2000/svg" viewBox="0 0 300 300"><title>curse</title><path d="M121.73,176.81a3,3,0,0,0,3.48,2.5,3.18,3.18,0,0,0,.53-.14l28.53-9.85a3.09,3.09,0,0,1,3.91,1.93,3.14,3.14,0,0,1,.15.8l5.89,107.2a3.08,3.08,0,0,0,6,.75l50.52-158.95a3.08,3.08,0,0,0-2-3.85,3.18,3.18,0,0,0-1.62-.06l-38,8.89a3.08,3.08,0,0,1-3.68-2.31,3.11,3.11,0,0,1,.09-1.71L200.57,51.1l8.61-26.21c1.36-4.37.13-7.58-4.51-7.58L92.42,18c-3.31,0-4.76,3-4.08,6.21"/></svg>