<svg id="b17e236c-df07-4678-b342-5d97d32b3659" data-name="Lager 1" xmlns="http://www.w3.org/2000/svg" xmlns:xlink="http://www.w3.org/1999/xlink" viewBox="0 0 300 300"><defs><clipPath id="a7f82100-8af7-45f9-9ff3-1d2e7641198b"><rect width="300" height="300" fill="none"/></clipPath></defs><title>deck</title><g clip-path="url(#a7f82100-8af7-45f9-9ff3-1d2e7641198b)"><path d="M161.88,184.28c-4.16,2.48-10.22,3.85-16.13,3.85a33.11,33.11,0,0,1-7.68-.85L23.63,159.91a21.75,21.75,0,0,1-2.27-.67v39.5s.17,2.09,3.08,2.89S140.5,229.49,140.5,229.49a23.61,23.61,0,0,0,17.43-2.64c8.76-5.22,116.63-69.49,118-70.36.94-.58,2.17-1.31,2.17-3.13V115Z" fill="#20221d"/><path d="M273.45,97.9,159,70.53c-5.13-1.23-12.31-.42-16.05,1.81L23.54,143.53c-3.74,2.23-2.6,5,2.52,6.25L140.5,177.15c5.12,1.22,12.3.41,16-1.82L276,104.15c3.74-2.23,2.61-5-2.52-6.25" fill="#20221d"/></g></svg>