<svg id="b44bf9bf-5cec-479b-bd46-f2505435513f" data-name="Lager 1" xmlns="http://www.w3.org/2000/svg" xmlns:xlink="http://www.w3.org/1999/xlink" viewBox="0 0 300 300"><defs><clipPath id="a36074d7-3d14-4072-acb6-3dac55907c0b"><rect width="300" height="300" fill="none"/></clipPath></defs><title>g</title><g id="a60feaa2-92bf-4e6c-913e-df179d09ce0d" data-name="exp-slot"><g clip-path="url(#a36074d7-3d14-4072-acb6-3dac55907c0b)"><g clip-path="url(#a36074d7-3d14-4072-acb6-3dac55907c0b)"><path d="M132,54a96,96,0,1,0,96,96,96,96,0,0,0-96-96m0,178.06A82.09,82.09,0,1,1,214.07,150,82.08,82.08,0,0,1,132,232.08" fill="#1d1d1b"/><path d="M238.85,180.59a1.86,1.86,0,0,1-2.86-2.07,96.52,96.52,0,0,0,0-57,1.86,1.86,0,0,1,2.86-2.07l24.36,29.06a1.88,1.88,0,0,1,0,3.06Z" fill="#1d1d1b"/><polygon points="131.98 82.71 149.91 106.73 179.56 102.42 175.26 132.07 199.27 150 175.26 167.93 179.56 197.58 149.91 193.27 131.98 217.29 114.06 193.27 84.41 197.58 88.71 167.93 64.7 150 88.71 132.07 84.41 102.42 114.06 106.73 131.98 82.71" fill="#1d1d1b"/></g></g></g></svg>