<svg id="ac055b9e-3988-4225-ad71-662f348aaaa5" data-name="Lager 1" xmlns="http://www.w3.org/2000/svg" xmlns:xlink="http://www.w3.org/1999/xlink" viewBox="0 0 300 300"><defs><clipPath id="a5f9385c-bfaa-4702-8615-cbffe7a617c3"><rect width="300" height="300" fill="none"/></clipPath></defs><title>g</title><g id="a94995ce-f22e-4780-a1bd-e519661f7209" data-name="flying"><g clip-path="url(#a5f9385c-bfaa-4702-8615-cbffe7a617c3)"><g clip-path="url(#a5f9385c-bfaa-4702-8615-cbffe7a617c3)"><path d="M208.9,144.51c15.67-10,60.23-42.37,67.64-89.51a1.61,1.61,0,0,0-2.68-1.44c-10.63,9.76-46.44,39.19-97,44.92a1.6,1.6,0,0,0-1.43,1.47C174,120.12,171,148,157.61,184.05l-7.44-4.3-7.72,4.46C129,148.12,126.05,120.15,124.57,100a1.6,1.6,0,0,0-1.43-1.47c-50.56-5.73-86.37-35.16-97-44.92A1.61,1.61,0,0,0,23.46,55c7.41,47.14,52,79.47,67.64,89.51a1.61,1.61,0,0,1-1,3,108.78,108.78,0,0,1-38.81-12.26,1.62,1.62,0,0,0-2.32,1.86c8.19,29.54,40.44,45.5,52.45,50.52a1.6,1.6,0,0,1-.24,3c-6.21,1.51-17.41,3.65-27.27,2.51a1.61,1.61,0,0,0-1.44,2.62c8.39,10.51,27.93,16,42.29,17.62l.88.23,5.5,16.48,29.06,16.78,29.06-16.78,6-16.71c14.36-1.63,33.9-7.11,42.29-17.62a1.61,1.61,0,0,0-1.44-2.62c-9.86,1.14-21.06-1-27.27-2.51a1.6,1.6,0,0,1-.24-3c12-5,44.26-21,52.45-50.52a1.62,1.62,0,0,0-2.32-1.86,108.78,108.78,0,0,1-38.81,12.26,1.61,1.61,0,0,1-1-3" fill="#1d1d1b"/></g></g></g></svg>