<svg id="e4f82a7c-57d6-4236-888b-5a0502b9550e" data-name="Lager 1" xmlns="http://www.w3.org/2000/svg" viewBox="0 0 300 300"><title>gh</title><circle cx="65.62" cy="169.88" r="8.81"/><circle cx="130.73" cy="235.41" r="8.81"/><polygon points="89.63 184.21 68.75 169.13 63.95 173.76 85.08 199.28 42.23 244.43 31.29 245.22 30.5 249.81 36.72 263.05 50.21 269.53 54.8 268.73 55.6 257.83 100.78 214.94 126.3 236.12 130.9 231.27 115.82 210.43 145.51 180.57 119.7 154.3 89.63 184.21"/><polygon points="270.17 29.81 244.82 29.81 154.2 119.93 180.09 145.74 270.17 55.16 270.17 29.81"/><path d="M169.11,231.27l3.67-5.18a8.53,8.53,0,0,0-2.92-.54,8.81,8.81,0,1,0,8.81,8.9,9.38,9.38,0,0,0-.29-2.18l-4.68,3.85Z"/><path d="M236.1,173.72l-3.26,3.93a8.8,8.8,0,1,0-6.06-8.56v.21a8.33,8.33,0,0,0,.5,2.84l4.18-3Z"/><polygon points="55.85 30.52 30.5 30.52 30.5 55.87 124.05 149.96 150.02 176.06 184.18 210.43 172.78 226.18 169.11 231.27 173.7 236.12 178.38 232.28 199.22 214.94 244.41 257.83 245.2 268.73 249.79 269.53 262.99 263.3 269.51 249.81 268.71 245.22 257.81 244.43 214.92 199.28 232.84 177.65 236.09 173.76 231.25 169.13 227.12 172.14 210.41 184.21 175.96 149.96 150.02 124.15 55.85 30.52"/></svg>