<svg id="af9e3675-999a-435f-a05b-fa6b9d67a56f" data-name="Lager 1" xmlns="http://www.w3.org/2000/svg" xmlns:xlink="http://www.w3.org/1999/xlink" viewBox="0 0 300 300"><defs><clipPath id="a31039a4-be04-4965-96ce-f0e57c8e1036"><rect width="300" height="300" fill="none"/></clipPath></defs><title>g</title><g id="b9f4369d-f646-4d6d-acf5-3d13742e9c23" data-name="item-slot"><g clip-path="url(#a31039a4-be04-4965-96ce-f0e57c8e1036)"><g clip-path="url(#a31039a4-be04-4965-96ce-f0e57c8e1036)"><path d="M131.82,53.15A96.85,96.85,0,1,0,228.67,150a96.85,96.85,0,0,0-96.85-96.85m0,179.68A82.83,82.83,0,1,1,214.65,150a82.84,82.84,0,0,1-82.83,82.83" fill="#1d1d1b"/><path d="M239.65,180.87a1.88,1.88,0,0,1-2.89-2.09,97.17,97.17,0,0,0,0-57.56,1.88,1.88,0,0,1,2.89-2.09l24.58,29.33a1.88,1.88,0,0,1,0,3.08Z" fill="#1d1d1b"/></g></g></g></svg>