<svg id="abc890c2-b703-4ea1-a794-ff097e549140" data-name="Lager 1" xmlns="http://www.w3.org/2000/svg" xmlns:xlink="http://www.w3.org/1999/xlink" viewBox="0 0 300 300"><defs><clipPath id="bcfa4807-d44e-49b6-adfc-2440ee1a2ae3"><rect width="300" height="300" fill="none"/></clipPath></defs><title>g</title><g id="f144ac54-a269-486c-bcd1-f91de981feca" data-name="jump"><g clip-path="url(#bcfa4807-d44e-49b6-adfc-2440ee1a2ae3)"><g clip-path="url(#bcfa4807-d44e-49b6-adfc-2440ee1a2ae3)"><path d="M129.5,175.7c-22.72,0-41.14,9.21-41.14,20.58s18.42,20.57,41.14,20.57,41.15-9.21,41.15-20.57S152.22,175.7,129.5,175.7" fill="#1d1d1b"/><path d="M166.89,151.83a63.13,63.13,0,0,0-6.1,11h9.51l40.81,35.34L170.3,233.55H88.7L47.89,198.21,88.7,162.87h17.2a113.08,113.08,0,0,1,3-11H75.94L22.38,198.21,75.94,244.6H183.06l53.55-46.39-53.55-46.38Z" fill="#1d1d1b"/><path d="M129.5,205.3a18,18,0,0,1-18-18A107,107,0,0,1,203.1,81.58V55.4l74.52,43-74.52,43V118a71.13,71.13,0,0,0-55.65,69.31,18,18,0,0,1-17.95,18" fill="#1d1d1b"/></g></g></g></svg>