<svg id="e73ab430-9d20-45ab-a382-5aca18a4a5e8" data-name="Lager 1" xmlns="http://www.w3.org/2000/svg" xmlns:xlink="http://www.w3.org/1999/xlink" viewBox="0 0 300 300"><defs><clipPath id="ac90fb5d-50b7-4219-8775-3cad52dd9b78"><rect width="300" height="300" fill="none"/></clipPath></defs><title>g</title><g id="b7cdc3d1-bc0d-449e-b480-6553263639b8" data-name="loot"><g clip-path="url(#ac90fb5d-50b7-4219-8775-3cad52dd9b78)"><g clip-path="url(#ac90fb5d-50b7-4219-8775-3cad52dd9b78)"><path d="M264,234.4v2.54c0,28.72-51,52-114,52s-114-23.28-114-52c0-.24,0-.48,0-.72v-1.79c6.65,7.83,16.5,14.83,29.22,20.63,22.81,10.4,52.91,16.13,84.76,16.13s61.95-5.73,84.76-16.13c12.74-5.81,22.59-12.82,29.24-20.66" fill="#1d1d1b"/><path d="M264,209.19c0,28.72-51,52-114,52s-114-23.28-114-52c0-21.69,29.12-40.28,70.5-48.07v58.07h87V161.12c41.38,7.79,70.5,26.38,70.5,48.07" fill="#1d1d1b"/><polygon points="226.29 143.18 183.5 143.18 183.5 209.19 116.5 209.19 116.5 143.18 73.71 143.18 150 11.06 226.29 143.18" fill="#1d1d1b"/></g></g></g></svg>