<svg id="f753f9e5-db2e-4c37-94e5-9b36a03967e9" data-name="Lager 1" xmlns="http://www.w3.org/2000/svg" xmlns:xlink="http://www.w3.org/1999/xlink" viewBox="0 0 300 300"><defs><clipPath id="ad239bcc-ac00-46e2-9945-c44b71742b8e"><rect width="300" height="300" fill="none"/></clipPath></defs><title>g</title><g id="f1c4fb21-81a7-4666-94e5-f8fa73f6ea14" data-name="negative1"><g clip-path="url(#ad239bcc-ac00-46e2-9945-c44b71742b8e)"><g clip-path="url(#ad239bcc-ac00-46e2-9945-c44b71742b8e)"><rect x="23.43" y="59.59" width="253.15" height="180.82" rx="12.35" fill="#fff"/><path d="M150,80.25A69.75,69.75,0,1,1,80.25,150,69.75,69.75,0,0,1,150,80.25m0-10A79.75,79.75,0,1,0,229.75,150,79.85,79.85,0,0,0,150,70.25" fill="#1d1d1b"/><polygon points="144.24 149.91 144.24 153.45 135.38 161.56 96.88 161.56 96.88 158.32 105.73 149.91 144.24 149.91" fill="#e16365"/><path d="M175.22,104.23v78.94c0,2.65.44,4.55,1.33,5.68s2.41,1.69,4.57,1.69v4.13q-30,13.14-30.1,13.14l-2.36-4.73a5.82,5.82,0,0,0,2.88-1,12.54,12.54,0,0,0,2.88-2.36q3.09-3.54,3.1-10.77V116a6.77,6.77,0,0,0-2.07-5.09,9.87,9.87,0,0,0-3.84-2.51c-1.18-.34-2.7-.71-4.57-1.1v-3.25l19.33-9.89a17.24,17.24,0,0,1,6,4.36c1.87,2,2.8,3.91,2.8,5.68" fill="#e16365"/></g></g></g></svg>