<svg id="b2ed2e5b-c324-4388-bf48-3ce86746da21" data-name="Lager 1" xmlns="http://www.w3.org/2000/svg" xmlns:xlink="http://www.w3.org/1999/xlink" viewBox="0 0 300 300"><defs><clipPath id="a241a5dc-4e34-4b5d-af77-53f39ada596c"><rect width="300" height="300" fill="none"/></clipPath></defs><title>g</title><g id="b096063c-dbec-4f6a-b7bc-0ed1276fd2b2" data-name="range"><g clip-path="url(#a241a5dc-4e34-4b5d-af77-53f39ada596c)"><g clip-path="url(#a241a5dc-4e34-4b5d-af77-53f39ada596c)"><path d="M210.92,240.75c-.28-13.05,6.85-25,3.33-46.37S191.88,146.15,176.86,125s-34.22-47.75-53.23-58.09S91,59.41,78.74,54.87,60.47,37.38,56.25,40.38c-2.38,1.69-1.92,5.72.81,10.42l18.18,144,2.36,3.33,130,64.45c3.55,4.11,7.2,5.87,9.57,4.18,4.23-3-6-12.94-6.29-26M83.52,191.41,67.2,62.17l.07.06c10.51,8.43,26.67,6.71,42.22,15.29,13.85,7.65,27.64,19.58,54.17,56.9s33.28,54.25,36,69.84c3,17.51-3.93,32.22.58,44.91l0,.08Z" fill="#1d1d1b"/><polygon points="111.77 181.8 115.31 197.04 79.59 221.93 73.94 197.58 52.8 184.26 88.52 159.37 101.76 167.72 197.81 99.53 183.89 90.98 243.35 77.75 211.33 129.57 207.82 113.62 111.77 181.8" fill="#1d1d1b"/></g></g></g></svg>