<svg id="f1a30185-edc9-45f9-b4d8-1fd1110b46dc" data-name="Lager 1" xmlns="http://www.w3.org/2000/svg" xmlns:xlink="http://www.w3.org/1999/xlink" viewBox="0 0 300 300"><defs><clipPath id="eb4a1fee-8d4f-4855-86fc-847a0333578a"><rect width="300" height="300" fill="none"/></clipPath><clipPath id="a321b951-ed54-4b1f-934e-036eb87d0ecb"><rect x="145.5" y="42.67" width="121.37" height="214.67" fill="none"/></clipPath></defs><title>g</title><g id="a5e95908-d80c-4c5a-86a5-ddd06f97ea95" data-name="recoverd"><g clip-path="url(#eb4a1fee-8d4f-4855-86fc-847a0333578a)"><g clip-path="url(#eb4a1fee-8d4f-4855-86fc-847a0333578a)"><path d="M173.48,223.5l-5.86,9.76-8.92-7.07c-12.71-10.06-33.19-25.92-45.43-35.4-5.08-3.94-8.73-6.76-9.82-7.62l-8.79-6.93,7.88-8c8.35-8.43,17.47-12.4,29.59-12.88l3.05-.11,2.6,1.6c.4.25.4.25,3.31,2.37,3.4,2.48,10.14,7.4,17.87,13L169.45,154q5.43-9.45,9.83-17c.07-40,.22-81.11.22-81.11a10,10,0,0,0-10-10H43.13a10,10,0,0,0-10,10V240.79a10,10,0,0,0,10,10H169.5a10,10,0,0,0,10-10V213.37c-2.48,4.18-4.54,7.66-6,10.13" fill="#fff"/><path d="M129.64,175.67a22.61,22.61,0,0,0-2.6.49c9.66,7.48,23.6,18.28,35.09,27.28.59-1,1.2-2,1.83-3.1l-7.66-5.44c-11-7.83-21.78-15.67-26.66-19.23" fill="#fff"/><path d="M222.45,120.51c-2.69-4.23-11-6.51-18.76-5-3.71,5.13-27.53,47.13-41.6,71.25-15-10.67-29.27-21.17-29.57-21.35-10,.39-16.64,3.62-22.87,9.92,3.68,2.91,37.24,28.78,55.25,43,11.06-18.4,55.79-95.14,57.55-97.84" fill="#e16365"/></g><g clip-path="url(#a321b951-ed54-4b1f-934e-036eb87d0ecb)"><path d="M239,68.51a8.64,8.64,0,0,0-8.64-8.64H121.26a8.63,8.63,0,0,0-8.63,8.64V228.16a8.63,8.63,0,0,0,8.63,8.63h109.1a8.63,8.63,0,0,0,8.64-8.63V203.42C238.51,203,239,68.51,239,68.51Z" fill="none" stroke="#fff" stroke-miterlimit="10" stroke-width="12" stroke-dasharray="14 14"/></g></g></g></svg>