<svg id="a7951ee0-8ead-49dd-9a34-9d438571fd03" data-name="Lager 1" xmlns="http://www.w3.org/2000/svg" xmlns:xlink="http://www.w3.org/1999/xlink" viewBox="0 0 300 300"><defs><clipPath id="f46da26a-d5ff-49dc-be9f-ee3dcc63b296"><rect width="300" height="300" fill="none"/></clipPath></defs><title>g</title><g id="f9f5efd2-b801-42a2-a8c4-79f139f5ebb9" data-name="refresh"><g clip-path="url(#f46da26a-d5ff-49dc-be9f-ee3dcc63b296)"><g clip-path="url(#f46da26a-d5ff-49dc-be9f-ee3dcc63b296)"><path d="M258.12,96.09H209.75a88.9,88.9,0,0,1,11.75,15h36.62V237.46H58.2a15,15,0,0,0,15,15H258.12a15,15,0,0,0,15-15V111.09a15,15,0,0,0-15-15" fill="#fff"/><path d="M146.29,72a127.19,127.19,0,0,1,27,4.63V57.54a10,10,0,0,0-10-10h-18.2Z" fill="#fff"/><path d="M148.6,117.39l1.24,24.4L63.52,97.63l77.39-50.09h-104a10,10,0,0,0-10,10V242.46a10,10,0,0,0,10,10H163.25a10,10,0,0,0,10-10V125.06q-10.16-5.9-24.65-7.67" fill="#fff"/><path d="M136.77,81.65c31.62.19,56.94,10.17,73.6,29.12C229,132,232.84,160.16,231.32,185a23.51,23.51,0,1,1-25-.61c1.71-24.55-3.29-44.08-14.74-57.1-14-15.92-35.44-20.28-53.55-20.61L139,125,83.49,96.61l52.32-33.86Z" fill="#e16365"/><path d="M63.45,110.44a5.25,5.25,0,1,1-10.49,0c1.66,0,3.31-1.2,5.24-1.2,1.6,0,3.43,1.2,5.25,1.2" fill="#12100b"/><polygon points="54.43 140.68 61.98 140.68 60.76 114.34 55.65 114.34 54.43 140.68" fill="#12100b"/><polygon points="74.99 143.86 74.99 141.54 58.2 140.15 41.42 141.54 41.42 143.86 58.2 145.25 74.99 143.86" fill="#12100b"/><path d="M74,142.7a2.69,2.69,0,1,1,2.68,2.69A2.68,2.68,0,0,1,74,142.7" fill="#12100b"/><path d="M37,142.7a2.69,2.69,0,1,1,2.69,2.69A2.68,2.68,0,0,1,37,142.7" fill="#12100b"/><polygon points="51.42 233.15 58.2 239.59 64.99 233.15 64.99 143.37 58.2 144.18 51.42 143.37 51.42 233.15" fill="#12100b"/></g></g></g></svg>