<svg xmlns="http://www.w3.org/2000/svg" xmlns:xlink="http://www.w3.org/1999/xlink" viewBox="0 0 300 300"><defs><clipPath id="e8aedc67-e511-4f4a-aa3f-18b5585dc8eb"><rect width="300" height="300" fill="none"/></clipPath></defs><title>Event Card Icons</title><g id="bdb9d1dc-b140-4551-a4b1-24f217672cea" data-name="Remove White"><g clip-path="url(#e8aedc67-e511-4f4a-aa3f-18b5585dc8eb)"><path d="M139.06,204.75,155.42,167l-27.73-29.77L140.92,107l-33.45-7.88L105.05,80.9,32.68,110.15a10.18,10.18,0,0,0-5.62,13.25L75.25,242.64a10.19,10.19,0,0,0,13.26,5.63l71.35-29.11.14-6.62Z" fill="#fff"/><path d="M267,189.44a10.18,10.18,0,0,0,7.09-12.53L239.67,53a10.18,10.18,0,0,0-12.53-7.09l-66,18.32-11.82,20.6L164.58,109l-17.81,25.7,22.9,32.57-22.9,34.1,13.09,17.81Z" fill="#fff"/></g></g></svg>