<svg xmlns="http://www.w3.org/2000/svg" xmlns:xlink="http://www.w3.org/1999/xlink" viewBox="0 0 300 300"><defs><clipPath id="f388b94b-ec29-4f7b-bb17-cecc6ad97012"><rect width="300" height="300" fill="none"/></clipPath></defs><title>Event Card Icons</title><g id="e0d6a177-d299-4c10-a8e9-c3613646a25a" data-name="Remove Black"><g clip-path="url(#f388b94b-ec29-4f7b-bb17-cecc6ad97012)"><path d="M139.06,204.75,155.42,167l-27.73-29.77L140.92,107l-33.45-7.88L105.05,80.9,32.68,110.15a10.18,10.18,0,0,0-5.62,13.25L75.25,242.64a10.19,10.19,0,0,0,13.26,5.63l71.35-29.11.14-6.62Z" fill="#20221d"/><path d="M267,189.44a10.18,10.18,0,0,0,7.09-12.53L239.67,53a10.18,10.18,0,0,0-12.53-7.09l-66,18.32-11.82,20.6L164.58,109l-17.81,25.7,22.9,32.57-22.9,34.1,13.09,17.81Z" fill="#20221d"/></g></g></svg>