<svg id="bb9606ba-9a27-436e-9885-a198c2b4a5de" data-name="Lager 1" xmlns="http://www.w3.org/2000/svg" xmlns:xlink="http://www.w3.org/1999/xlink" viewBox="0 0 300 300"><defs><clipPath id="b06c95b0-652f-461f-b9f4-d857db065c32"><rect width="300" height="300" fill="none"/></clipPath></defs><title>g</title><g id="e1fa01e7-1dad-4841-aa91-54a77d2b49b8" data-name="retaliate"><g clip-path="url(#b06c95b0-652f-461f-b9f4-d857db065c32)"><g clip-path="url(#b06c95b0-652f-461f-b9f4-d857db065c32)"><path d="M76,195.84S42,145.7,42.15,143c.29-5.94,48.06-56.67,57-61.12s30.26-4.45,44.5-8,24.92-8,29.37-1.78-3.56,36.49-14.24,41.83c-18.17,9.09-32.93,8-32.93,8l-4.45,5.34s27.31,27.88,22.25,49c-5.34,22.25-19.58,45.4-53.41,54.3C79,233.5,76,195.84,76,195.84" fill="#1d1d1b"/><path d="M152.13,129.59a2.31,2.31,0,0,0-2.67,3.14c4.94,11.68,15.92,45.63-5.84,79.13-18.69,28.79-49,29.38-49,29.38l7.42,35H163.5l5.4-31.18a2.36,2.36,0,0,1,4.47-.59c2.58,5.71,5.82,15.87,6.61,31.77H221.5s-7.24-42.13-4.59-59.93c2.07-13.95,28.48-42.43,28.48-42.43L235.3,149.26Z" fill="#1d1d1b"/><path d="M65.91,94.28,60,53.42S84.14,30,94.66,26.72c7.72-2.37,16.92,4.45,16.92,4.45l1.78,35S98.22,68,93.18,70.63c-7.81,4.14-27.27,23.65-27.27,23.65" fill="#1d1d1b"/><path d="M129.38,63.81,130,33.54s20.18-9.5,28.19-9.79S178,38,178,38s-2.41,17.8-6.53,18.69-42.13,7.12-42.13,7.12" fill="#1d1d1b"/><path d="M192.58,47.49S175.66,98,173.89,118.4c-.6,6.83,28.48,12.46,30.26,8s19.88-63.19,19-70.32-22-12.75-30.56-8.6" fill="#1d1d1b"/><path d="M231.15,77.16s-19,52.52-16.32,55.48c5.36,6,24.63,9.2,30-.59s13.05-32,13.05-37.38-4.15-15.14-7.71-16.92c-4-2-13.65-3-19-.59" fill="#1d1d1b"/></g></g></g></svg>