<svg id="aaaae78e-4466-4a51-a1c3-7513a548274e" data-name="Lager 1" xmlns="http://www.w3.org/2000/svg" xmlns:xlink="http://www.w3.org/1999/xlink" viewBox="0 0 300 300"><defs><clipPath id="a6b00167-b0cb-44a5-a3ec-9696f992e231"><rect width="300" height="300" fill="none"/></clipPath></defs><title>g</title><g id="b9685f21-89de-4095-8a87-4693f6e77239" data-name="spend"><g clip-path="url(#a6b00167-b0cb-44a5-a3ec-9696f992e231)"><g clip-path="url(#a6b00167-b0cb-44a5-a3ec-9696f992e231)"><path d="M137,113.35c-2.95,0-6,.13-9.17.4a33.5,33.5,0,1,1-3.61-44.82c4.36-.36,8.65-.54,12.81-.54a117.92,117.92,0,0,1,36.21,5.3V57.54a10,10,0,0,0-10-10H36.88a10,10,0,0,0-10,10V242.46a10,10,0,0,0,10,10H163.25a10,10,0,0,0,10-10V123.66c-8.84-6.84-21-10.31-36.24-10.31" fill="#fff"/><path d="M258.12,96.09H209.75a88.9,88.9,0,0,1,11.75,15h36.62V237.46H58.21a15,15,0,0,0,15,15H258.12a15,15,0,0,0,15-15V111.09a15,15,0,0,0-15-15" fill="#fff"/><path d="M228.19,168.55c-1.79-31.57-13-56.35-32.81-72C173.26,79,144.91,76.59,120.19,79.37a23.5,23.5,0,1,0,1.88,24.92c24.43-3,44.19,1,57.77,11.82,16.62,13.18,22,34.37,23.3,52.44H184.79l31.17,54,31.16-54Z" fill="#e16365"/><path d="M63.45,110.44a5.25,5.25,0,1,1-10.49,0c1.66,0,3.31-1.2,5.25-1.2,1.59,0,3.42,1.2,5.24,1.2" fill="#12100b"/><polygon points="54.43 140.68 61.98 140.68 60.76 114.34 55.65 114.34 54.43 140.68" fill="#12100b"/><polygon points="75 143.86 75 141.54 58.2 140.15 41.41 141.54 41.41 143.86 58.2 145.25 75 143.86" fill="#12100b"/><path d="M74,142.7a2.69,2.69,0,1,1,2.68,2.69A2.68,2.68,0,0,1,74,142.7" fill="#12100b"/><path d="M37,142.7a2.69,2.69,0,1,1,2.69,2.69A2.68,2.68,0,0,1,37,142.7" fill="#12100b"/><polygon points="51.42 233.15 58.2 239.59 64.99 233.15 64.99 143.37 58.2 144.18 51.42 143.37 51.42 233.15" fill="#12100b"/></g></g></g></svg>