<svg id="bbcf5abf-1e01-4f23-9d24-9f2e8376773a" data-name="Lager 1" xmlns="http://www.w3.org/2000/svg" xmlns:xlink="http://www.w3.org/1999/xlink" viewBox="0 0 300 300"><defs><clipPath id="fc390410-ca9c-4ace-8ee3-9fdf0767916e"><rect width="300" height="300" fill="none"/></clipPath></defs><title>g</title><g id="abe54680-0016-46ef-b0df-6f1ac4d4558c" data-name="target"><g clip-path="url(#fc390410-ca9c-4ace-8ee3-9fdf0767916e)"><g clip-path="url(#fc390410-ca9c-4ace-8ee3-9fdf0767916e)"><path d="M150,34.31A115.69,115.69,0,1,0,265.69,150,115.69,115.69,0,0,0,150,34.31m0,202.76A87.07,87.07,0,1,1,237.07,150,87.07,87.07,0,0,1,150,237.07" fill="#1d1d1b"/><path d="M150,77.06A72.94,72.94,0,1,0,222.94,150,72.94,72.94,0,0,0,150,77.06m0,113.64A40.7,40.7,0,1,1,190.7,150,40.7,40.7,0,0,1,150,190.7" fill="#1d1d1b"/></g></g></g></svg>