<svg xmlns="http://www.w3.org/2000/svg" xmlns:xlink="http://www.w3.org/1999/xlink" viewBox="0 0 600 600"><defs><clipPath id="a"><rect width="600" height="600" fill="none"/></clipPath></defs><title>Namnlöst-1</title><g clip-path="url(#a)"><g clip-path="url(#a)"><path d="M300,584.35a14.59,14.59,0,0,1-10.38-4.3L20,310.38a14.68,14.68,0,0,1,0-20.76L289.62,20a14.68,14.68,0,0,1,20.76,0L580.05,289.62a14.68,14.68,0,0,1,0,20.76L310.38,580.05a14.59,14.59,0,0,1-10.38,4.3" fill="#9f3027"/><path d="M203.31,394.34c45,43.75,99.49,37.76,99.49,37.76a29.69,29.69,0,0,1,1.8-8.39c11.39-2.4,39-.6,41.95-.6s9,9.59,10.79,12.58c7.79,0,53.34-13.18,60.53-22.17,3.6-11.39-7.79-78.51-14.38-109.08,32.36-86.9,16.78-112.07,16.78-112.07-33-10.79-52.14-6.6-71.32.6s-41.35,3-43.15,4.79c-.75.74,1.61,16.92,4.62,36.37.1.66.2,1.32.31,2,.49,3.14,1,6.35,1.48,9.59.1.65.21,1.31.32,2,.49,3.14,1,6.3,1.48,9.42.09.59.18,1.19.28,1.78.5,3.26,1,6.48,1.48,9.59.11.73.22,1.46.34,2.19.49,3.28,1,6.44,1.41,9.41.14.95.28,1.88.41,2.78.52,3.56,1,6.8,1.32,9.59,0,.41.1.8.14,1.19a84.14,84.14,0,0,1,.79,8.4,9,9,0,0,1-.06,1,15.31,15.31,0,0,1-.38,2,50.21,50.21,0,0,1-4,9.59q-.5,1-1.05,2c-8.05,14.83-22.33,34.08-24.46,38.78-38.36-.6-57.54,9-57.54,9l-17.38-3.6s-11.39,7.79-12,33.56" fill="#fff"/><line x1="287" y1="370.47" x2="173.89" y2="212.3" fill="none" stroke="#fff" stroke-linecap="round" stroke-miterlimit="10" stroke-width="10"/><polygon points="243.43 239.39 235.52 270.63 194.89 214.02 202.79 182.79 243.43 239.39" fill="#fff"/><polygon points="168.01 232.18 135.47 230.69 177.38 286.35 209.92 287.85 168.01 232.18" fill="#fff"/></g></g></svg>