<svg xmlns="http://www.w3.org/2000/svg" xmlns:xlink="http://www.w3.org/1999/xlink" viewBox="0 0 600 600"><defs><clipPath id="a"><rect width="600" height="600" fill="none"/></clipPath></defs><title>Namnlöst-1</title><g clip-path="url(#a)"><g clip-path="url(#a)"><path d="M300,584.35a14.59,14.59,0,0,1-10.38-4.3L20,310.38a14.7,14.7,0,0,1,0-20.76L289.62,20a14.68,14.68,0,0,1,20.76,0L580.05,289.62a14.7,14.7,0,0,1,0,20.76L310.38,580.05a14.59,14.59,0,0,1-10.38,4.3" fill="#201d19"/><path d="M342.44,166.32A42.44,42.44,0,1,1,300,123.88a42.44,42.44,0,0,1,42.44,42.44" fill="#201d19"/><path d="M342.44,166.32A42.44,42.44,0,1,1,300,123.88,42.44,42.44,0,0,1,342.44,166.32Z" fill="none" stroke="#fff" stroke-linecap="round" stroke-miterlimit="10" stroke-width="15" stroke-dasharray="14.81 29.62"/><path d="M240.4,434.52l50.1-192h19l50.1,192s-16.09,12.1-53.46,12.1-65.74-12.1-65.74-12.1" fill="#201d19"/><path d="M247.44,437.1c-4.52-1.51-7-2.58-7-2.58l1.9-7.26" fill="none" stroke="#fff" stroke-linecap="round" stroke-linejoin="round" stroke-width="15"/><line x1="250.72" y1="395" x2="284.4" y2="265.94" fill="none" stroke-dasharray="16.67 33.34" stroke-linecap="round" stroke-linejoin="round" stroke-width="15" stroke="#fff"/><polyline points="288.61 249.81 290.5 242.56 298 242.56" fill="none" stroke="#fff" stroke-linecap="round" stroke-linejoin="round" stroke-width="15"/><polyline points="302 242.56 309.5 242.56 311.39 249.81" fill="none" stroke="#fff" stroke-linecap="round" stroke-linejoin="round" stroke-width="15"/><line x1="319.81" y1="282.08" x2="353.49" y2="411.13" fill="none" stroke-dasharray="16.67 33.34" stroke-linecap="round" stroke-linejoin="round" stroke-width="15" stroke="#fff"/><path d="M357.7,427.26l1.9,7.26a38.42,38.42,0,0,1-6.57,3.6" fill="none" stroke="#fff" stroke-linecap="round" stroke-linejoin="round" stroke-width="15"/><path d="M327.15,445.21a149.77,149.77,0,0,1-21,1.41,190.1,190.1,0,0,1-45.77-5.77" fill="none" stroke="#fff" stroke-linecap="round" stroke-linejoin="round" stroke-width="15" stroke-dasharray="13.46 26.92"/></g></g></svg>