<svg xmlns="http://www.w3.org/2000/svg" xmlns:xlink="http://www.w3.org/1999/xlink" viewBox="0 0 600 600"><defs><clipPath id="a"><rect width="600" height="600" fill="none"/></clipPath></defs><title>Namnlöst-1</title><g clip-path="url(#a)"><g clip-path="url(#a)"><path d="M300,584.35a14.59,14.59,0,0,1-10.38-4.3L20,310.38a14.7,14.7,0,0,1,0-20.76L289.62,20a14.68,14.68,0,0,1,20.76,0L580.05,289.62a14.7,14.7,0,0,1,0,20.76L310.38,580.05a14.59,14.59,0,0,1-10.38,4.3" fill="#ce8f46"/><polygon points="446.57 270 428.52 288.18 81.22 288.18 74 300 81.22 311.82 428.52 311.82 446.57 330 526 300 446.57 270" fill="#fff"/><path d="M357,268.48l30.09-23.4H360.42l26.63-46.16-42.61,32.85V113.7l-36.39,95L285,163.41v48.38l-25.64-9.32,23.94,40.73a3,3,0,0,0,4.26,1A40.45,40.45,0,0,1,326,240.85c13.68,5.87,22.89,20.3,26.45,26.71a3,3,0,0,0,4.52.92" fill="#fff"/><path d="M357,333.72l30.09,23.4H360.42l26.63,46.16-42.61-32.85V488.5l-36.39-95L285,438.79V390.41l-25.64,9.32L283.27,359a3,3,0,0,1,4.26-1A40.43,40.43,0,0,0,326,361.34c13.68-5.86,22.89-20.29,26.45-26.7a3,3,0,0,1,4.52-.92" fill="#fff"/></g></g></svg>