<svg xmlns="http://www.w3.org/2000/svg" xmlns:xlink="http://www.w3.org/1999/xlink" viewBox="0 0 600 600"><defs><clipPath id="a"><rect width="600" height="600" fill="none"/></clipPath></defs><title>Namnlöst-1</title><g clip-path="url(#a)"><g clip-path="url(#a)"><path d="M300,584.35a14.59,14.59,0,0,1-10.38-4.3L20,310.38a14.7,14.7,0,0,1,0-20.76L289.62,20a14.68,14.68,0,0,1,20.76,0L580.05,289.62a14.68,14.68,0,0,1,0,20.76L310.38,580.05a14.59,14.59,0,0,1-10.38,4.3" fill="#daa700"/><path d="M300,20.65a9.62,9.62,0,0,1,6.85,2.84L576.51,293.15a9.69,9.69,0,0,1,0,13.7L306.85,576.51a9.68,9.68,0,0,1-13.7,0L23.49,306.85a9.69,9.69,0,0,1,0-13.7L293.15,23.49A9.62,9.62,0,0,1,300,20.65m0-10a19.61,19.61,0,0,0-13.92,5.77L16.42,286.08a19.68,19.68,0,0,0,0,27.84L286.08,583.58a19.68,19.68,0,0,0,27.84,0L583.58,313.92a19.68,19.68,0,0,0,0-27.84L313.92,16.42A19.61,19.61,0,0,0,300,10.65" fill="#fff"/><polygon points="299.02 217.36 334.83 279.39 370.64 341.43 299.02 341.43 227.39 341.43 263.2 279.39 299.02 217.36" fill="#fff"/><path d="M326,158.39a27,27,0,1,1-27-27,27,27,0,0,1,27,27" fill="#fff"/><path d="M402.93,395.83a27,27,0,1,1,37.24-8.42,27,27,0,0,1-37.24,8.42" fill="#fff"/><path d="M167.66,353.57A27,27,0,1,1,160.21,391a27,27,0,0,1,7.45-37.45" fill="#fff"/><circle cx="299.02" cy="298.31" r="140.29" fill="none" stroke="#fff" stroke-miterlimit="10" stroke-width="16"/><circle cx="299.02" cy="298.31" r="76.58" fill="none" stroke="#fff" stroke-miterlimit="10" stroke-width="16"/></g></g></svg>