<svg xmlns="http://www.w3.org/2000/svg" xmlns:xlink="http://www.w3.org/1999/xlink" viewBox="0 0 578.7 578.7"><defs><clipPath id="a" transform="translate(-10.65 -10.65)"><rect width="600" height="600" fill="none"/></clipPath></defs><title>push-number</title><g clip-path="url(#a)"><g clip-path="url(#a)"><path d="M300,584.35a14.59,14.59,0,0,1-10.38-4.3L20,310.38a14.7,14.7,0,0,1,0-20.76L289.62,20a14.68,14.68,0,0,1,20.76,0L580.05,289.62a14.7,14.7,0,0,1,0,20.76L310.38,580.05a14.59,14.59,0,0,1-10.38,4.3" transform="translate(-10.65 -10.65)" fill="#565251"/><path d="M300,20.65a9.62,9.62,0,0,1,6.85,2.84L576.51,293.15a9.68,9.68,0,0,1,0,13.69h0L306.85,576.51a9.68,9.68,0,0,1-13.69,0h0L23.49,306.85a9.68,9.68,0,0,1,0-13.69h0L293.15,23.49A9.62,9.62,0,0,1,300,20.65m0-10a19.61,19.61,0,0,0-13.92,5.77L16.42,286.08a19.68,19.68,0,0,0,0,27.83h0L286.08,583.58a19.68,19.68,0,0,0,27.83,0h0L583.58,313.92a19.68,19.68,0,0,0,0-27.83h0L313.92,16.42A19.61,19.61,0,0,0,300,10.65" transform="translate(-10.65 -10.65)" fill="#fff"/><path d="M395.41,342.91H257.52a4.28,4.28,0,0,1-3.48-6.79c5.24-7.29,12.22-20,12.22-36.12s-7-28.83-12.22-36.12a4.28,4.28,0,0,1,3.48-6.79H395.41Z" transform="translate(-10.65 -10.65)" fill="#fff"/><path d="M209.89,342.91H160.16a4.28,4.28,0,0,1-3.48-6.79c5.24-7.29,12.22-20,12.22-36.12s-7-28.83-12.22-36.12a4.28,4.28,0,0,1,3.48-6.79h49.73a14.25,14.25,0,0,1,10.2,4.31c5.71,5.85,14.22,18,14.22,38.6s-8.51,32.75-14.22,38.6a14.25,14.25,0,0,1-10.2,4.31" transform="translate(-10.65 -10.65)" fill="#fff"/><path d="M105.84,342.91H95.34a4.29,4.29,0,0,1-3.49-6.79c5.25-7.29,12.23-20,12.23-36.12s-7-28.83-12.23-36.12a4.29,4.29,0,0,1,3.49-6.79h10.5A14.24,14.24,0,0,1,116,261.4c5.72,5.85,14.22,18,14.22,38.6s-8.5,32.75-14.22,38.6a14.25,14.25,0,0,1-10.2,4.31" transform="translate(-10.65 -10.65)" fill="#fff"/><path d="M377.93,396.31l129-92.4A4.81,4.81,0,0,0,508,297.2a4.87,4.87,0,0,0-1.11-1.11l-129-92.4a4,4,0,0,0-6.3,3.23V393.08a4,4,0,0,0,6.3,3.23" transform="translate(-10.65 -10.65)" fill="#fff"/></g></g><text transform="translate(254.52 504.56)" font-size="160" fill="#fff" font-family="PirataOne-Regular, Pirata One">$</text></svg>