<svg xmlns="http://www.w3.org/2000/svg" viewBox="0 0 57.39 57.4"><title>attack</title><circle cx="8.41" cy="33.54" r="2.11"/><circle cx="24" cy="49.23" r="2.11"/><polygon points="14.16 36.97 9.16 33.36 8.01 34.47 13.07 40.58 2.81 51.39 0.19 51.58 0 52.68 1.49 55.85 4.72 57.4 5.82 57.21 6.01 54.6 16.83 44.33 22.94 49.4 24.04 48.24 20.43 43.25 27.54 36.1 21.36 29.81 14.16 36.97"/><polygon points="57.39 0 51.32 0 29.62 21.58 35.82 27.76 57.39 6.07 57.39 0"/><path d="M33.19,48.24,34.07,47a2,2,0,0,0-.7-.13A2.11,2.11,0,1,0,35.48,49a2.18,2.18,0,0,0-.07-.52l-1.12.92Z"/><path d="M49.23,34.46l-.78.94a2.06,2.06,0,0,0,.61.11A2.11,2.11,0,1,0,47,33.4a1.91,1.91,0,0,0,.12.68l1-.72Z"/><polygon points="6.07 0.17 0 0.17 0 6.24 22.4 28.77 28.62 35.02 36.8 43.25 34.07 47.02 33.19 48.24 34.29 49.4 35.41 48.48 40.4 44.33 51.22 54.6 51.41 57.21 52.51 57.4 55.67 55.91 57.23 52.68 57.04 51.58 54.43 51.39 44.16 40.58 48.45 35.4 49.23 34.47 48.07 33.36 47.08 34.08 43.08 36.97 34.83 28.77 28.62 22.59 6.07 0.17"/></svg>