<svg xmlns="http://www.w3.org/2000/svg" viewBox="0 0 296.58 315.21"><title>bless</title><polygon points="148.29 85.97 184.1 148 219.91 210.04 148.29 210.04 76.66 210.04 112.47 148 148.29 85.97"/><path d="M194,27A27,27,0,1,1,167,0a27,27,0,0,1,27,27h0" transform="translate(-18.69)"/><path d="M270.89,264.44A27,27,0,1,1,308.14,256h0a27,27,0,0,1-37.24,8.42" transform="translate(-18.69)"/><path d="M35.62,222.18a27,27,0,1,1-7.43,37.45l0,0a27,27,0,0,1,7.45-37.45h0" transform="translate(-18.69)"/><path d="M167,315.21c-81.76,0-148.29-66.52-148.29-148.29S85.22,18.63,167,18.63,315.27,85.15,315.27,166.92,248.75,315.21,167,315.21Zm0-280.58C94,34.63,34.69,94,34.69,166.92S94,299.21,167,299.21s132.29-59.35,132.29-132.29S239.93,34.63,167,34.63Z" transform="translate(-18.69)"/><path d="M167,251.5a84.58,84.58,0,1,1,84.58-84.58A84.68,84.68,0,0,1,167,251.5Zm0-153.16a68.58,68.58,0,1,0,68.58,68.58A68.66,68.66,0,0,0,167,98.34Z" transform="translate(-18.69)"/></svg>