<svg xmlns="http://www.w3.org/2000/svg" viewBox="0 0 390.13 417.63"><title>bless</title><path d="M195.07,114.63l47.74,82.66L290.54,280H99.61l47.73-82.67Z"/><path d="M231.08,36a36,36,0,1,1-36-36,36,36,0,0,1,36,36"/><path d="M333.62,352.58a36,36,0,1,1,49.6-11.2,35.9,35.9,0,0,1-49.6,11.2"/><path d="M19.94,296.24a36.06,36.06,0,1,1-10,50,36.07,36.07,0,0,1,10-50"/><path d="M195.07,417.63C87.47,417.63,0,330.16,0,222.56S87.47,27.49,195.07,27.49,390.13,115,390.13,222.56,302.67,417.63,195.07,417.63Zm0-374.14C96.27,43.49,16,123.76,16,222.56S96.27,401.63,195.07,401.63s179.06-80.27,179.06-179.07S293.87,43.49,195.07,43.49Z"/><path d="M195.05,333.76a111.2,111.2,0,1,1,111.2-111.2A111.31,111.31,0,0,1,195.05,333.76Zm0-206.27a95.07,95.07,0,1,0,95.07,95.07A95.21,95.21,0,0,0,195.05,127.49Z"/></svg>