<svg xmlns="http://www.w3.org/2000/svg" viewBox="0 0 671.84 469.08"><title>deck2</title><path d="M645.41,235.7l-9.83-7.38,2.71-.68c8.12-2,10.89-6.63,6.14-10.2l-8.66-6.51,3.13-.78c8.63-2.16,11.56-7,6.51-10.83l-7-5.23-7.88-5.92-429,108.14s-10.32,3.08-17.4,2-11.9-4.82-12.94-5.29L19.49,179.7l-.72.17L9.5,182.2C.87,184.36-2.06,189.23,3,193l9.18,6.91-2.23.55c-8.12,2-10.89,6.63-6.13,10.2L13,217.6l-3.77.94c-8.73,2.19-11.69,7.12-6.59,11l6.59,4.95L10,235l1.74,1.32-1.67.41-.82.21-.07,0c-8.69,2.18-11.65,7.09-6.56,10.91l6.63,5,1.61,1.21.9.67-2.62.66c-8.67,2.17-11.61,7.06-6.54,10.87l6.65,5,2.3,1.74-2.3.54c-5,1.26-8.1,3.41-8.88,5.74-.7,1.77,0,3.66,2.2,5.34l9.65,6.7-3,.64c-8.69,2.18-11.79,7.32-6.71,11.15L12,309.85l-2.9.55a23.12,23.12,0,0,0-3.41,1.12c-.3.12-.59.24-.86.37-5.22,2.48-6.39,6.29-2.27,9.38l9.05,6.7-2.57.83c-8.62,2.16-11.55,7-6.51,10.82L169.49,465.08c5,3.79,16.23,5.13,24.86,3l.21-.11,443.9-111.19c8.63-2.16,11.56-7,6.52-10.83l-8.86-5.8,2.47-.72c8.66-2.17,11.6-8.06,6.54-11.86L634.5,321l4.22-1c8.69-2.18,11.65-7.09,6.56-10.91l-9.59-6.18,4.33-1.62c7.78-2.32,10.25-7,5.39-10.61L636.3,284l2.29-.58c8.66-2.17,11.6-7.06,6.54-10.86L636,265.7l2.69-.68c8.69-2.18,11.65-7.09,6.56-10.91l-9.06-6.81,2.61-.65C647.55,244.46,650.51,239.54,645.41,235.7Z"/><path d="M651.75,165.94c-.15-.15-.32-.3-.5-.45a4.71,4.71,0,0,0-.41-.35l-4.18-3.2-.16-.13-8.59,1.9L618,168.14l-19.37,4.3-10.33,2.29-7.65,1.72-19,4.24-8.48,1.9L542.66,185l-8,1.81-10.89,2.46-7.45,1.68-19.47,4.39-7.5,1.7L478,199.56q-43.72,9.91-87.36,19.92l-98.51,22.64-49.26,11.33-21,4.8s-22.45,5.4-30.34,3.85-22.36-15-22.36-15L37,140.4l-2.71.66-14.72,3.58A5.65,5.65,0,0,0,16,146.81c-.51.93-.17,1.89.88,2.72L178.34,276.09l1.73,1.38.87.69.43.35.31.21a10.31,10.31,0,0,0,2.88,1.44,24,24,0,0,0,8.32,1.1c.28,0,.55-.05.82-.07.45,0,.9-.05,1.33-.11s.7-.09,1-.15l1.07-.22,6.15-1.42,24.6-5.68,49.21-11.37,98.4-22.74q49.15-11.4,98.2-22.89l20.52-4.83,18.68-4.4,19.27-4.55,7.35-1.74,10.77-2.55,8-1.89,10.39-2.46,3-.71,5.38-1.29,18.69-4.46,17.69-4.22,7.06-1.69,12-2.88,12.39-3c4-1,6.92-2.79,8-4.78,1-1.65.62-3.45-.87-5.06Z"/><path d="M671.05,135.48h0a7,7,0,0,0-.55-.7l-.07-.08a9.42,9.42,0,0,0-.72-.68Q616.39,89.35,561.91,44.94L534.6,22.75,520.9,11.66,514,6.12l-1.71-1.39L511.47,4,511,3.69l-.4-.28a14.85,14.85,0,0,0-4-2A31.79,31.79,0,0,0,495.61,0a30.48,30.48,0,0,0-5.46.73L484,2.18,459.37,7.84,410.12,19.17,311.61,41.82q-49.29,11.3-98.7,22.49L163.45,75.47Q138.69,81,113.91,86.56l-49.62,11L39.77,103A6.08,6.08,0,0,0,36,105.12c-.6.91-.34,1.88.64,2.72l7.42,6.25.87.73,9.38,7.89q11.92,10.06,23.79,20.13,8.37,7.09,16.72,14.21,8.1,6.9,16.18,13.82l4,3.45q6.28,5.38,12.55,10.79l3.7,3.18L142,197.47l2.21,1.91,3.34,2.89,13.14,11.37,3.64,3.16,3.64,3.15L180.67,231l.19.17,6.46,5.62,1.61,1.41.82.71.4.35.28.22a9.69,9.69,0,0,0,2.75,1.48,23.23,23.23,0,0,0,8.24,1.23c.74,0,1.45-.06,2.17-.14.34-.05.71-.07,1-.14l1.09-.19,6.27-1.31,25.11-5.27,50.22-10.51,100.42-21q44.36-9.33,88.61-18.73L488,182.42l7.48-1.6,19.71-4.21,7.54-1.61,11-2.36,8.13-1.74,10.63-2.29,8.55-1.84,19.14-4.12L588,161l10.36-2.25,19.47-4.23,20-4.34,8.61-1.88h0l.12,0q8.07-1.76,16.12-3.54c4.08-.95,7.15-2.66,8.43-4.63A3.87,3.87,0,0,0,671.05,135.48ZM400.12,49.06l22.72-4.52,11.36,11.3-40.14,56.44-34.77-6.88ZM208.36,87.61l22.72-4.52L357.43,108l34.81,6.88L438.46,124l9.57-8.35.07-.08a6.21,6.21,0,0,1-1.65-1.13l-.09-.09c-2-2.08-.36-4.39,3.59-5.31l.64-.13c4.41-.82,9.67.29,11.75,2.48s.37,4.38-3.59,5.31l-.64.13a16.54,16.54,0,0,1-2.49.25l-6.36,12.84,58.67,12.47,10.12-1.59,2.77,1.91.2,7.17L512,155l-4.47.47-5.6-4.72-59.71-11.06L431.3,151.16a6.77,6.77,0,0,1,1.23.91c2.05,2.09.46,4.43-3.55,5.37l-.44.09c-4.36.87-9.66-.18-11.84-2.35s-.54-4.46,3.49-5.4l.45-.1a15.52,15.52,0,0,1,2.87-.28l0,0,3.16-9.06-46-9.22-35-7-126-25.25-11.36-11.3Zm98.26,97.75-1.35-2.19,9.45-2.31,18.17-27.77L308,146.87a10,10,0,0,1-1.43.44l-.37.08c-4.36.87-9.67-.19-11.84-2.36s-.54-4.46,3.49-5.4l.46-.1c4.36-.86,9.66.19,11.84,2.36a3,3,0,0,1,.83,1.41l19.22,2.26,13.54-18.69,34.9,7.1-13.23,18.61,18.28,5.28a12,12,0,0,1,2-.66l.35-.08c4.36-.86,9.67.19,11.85,2.36s.53,4.46-3.5,5.4l-.45.1c-4.36.87-9.66-.19-11.84-2.36a3,3,0,0,1-.78-1.22L354,157.27l-21.28,27.18,4.17,5-3.76,1.17-15-.47Z"/></svg>