<svg xmlns="http://www.w3.org/2000/svg" viewBox="0 0 631.72 542.16"><title>deck</title><path d="M77.84,530.39a35,35,0,0,1-33.4-32.55L17.27,105.21a35,35,0,0,1,32.5-37.33h0l250.08-17.3a34.36,34.36,0,0,1,3.93,0,35,35,0,0,1,33.41,32.55L364.4,475.71A35,35,0,0,1,331.9,513h0L81.78,530.34a34.15,34.15,0,0,1-3.92,0Z" transform="translate(-7.2 -2.12)"/><path d="M303.35,60.52a25.1,25.1,0,0,1,23.86,23.25L354.36,476.4a25.07,25.07,0,0,1-23.17,26.66L81.08,520.36a23.92,23.92,0,0,1-2.81,0,25.08,25.08,0,0,1-23.85-23.25L27.25,104.52A25.07,25.07,0,0,1,50.42,77.86l250.12-17.3a24,24,0,0,1,2.81,0m.86-20a46.53,46.53,0,0,0-5,.06L49.12,57.9a45.07,45.07,0,0,0-41.82,48L34.47,498.53a44.93,44.93,0,0,0,47.86,41.79h.13L332.54,523a45,45,0,0,0,41.78-48L347.16,82.39a45,45,0,0,0-43-41.89Z" transform="translate(-7.2 -2.12)" fill="#fff"/><path d="M370.28,512.05,369,512l-249.81-20.7a32.54,32.54,0,0,1-29.71-35.08L121.93,64a32.41,32.41,0,0,1,33.79-29.79l1.28.05L406.81,55A32.54,32.54,0,0,1,436.57,90L404.06,482.27a32.4,32.4,0,0,1-33.78,29.78Z" transform="translate(-7.2 -2.12)"/><path d="M155.43,41.68l1,0L406.26,62.45a25.07,25.07,0,0,1,22.86,27L396.59,481.64a25.07,25.07,0,0,1-26,22.9l-1,0L119.82,483.8a25.07,25.07,0,0,1-22.85-27l32.47-392.2a25.1,25.1,0,0,1,26-22.9m.65-15a40.06,40.06,0,0,0-41.62,36.66L82,455.58a40.07,40.07,0,0,0,36.57,43.17l249.8,20.71,1.58.07a40.06,40.06,0,0,0,41.62-36.66l32.51-392.2A40,40,0,0,0,407.52,47.5h0L157.67,26.8l-1.59-.07Z" transform="translate(-7.2 -2.12)" fill="#fff"/><path d="M403.17,519.66a31.77,31.77,0,0,1-6.5-.95L153.56,457.65A32.53,32.53,0,0,1,130,418.22L225.83,36.51a32.47,32.47,0,0,1,39.4-23.61h0L508.39,74A32.58,32.58,0,0,1,532,113.41l-95.87,381.7a32.64,32.64,0,0,1-32.95,24.6Z" transform="translate(-7.2 -2.12)"/><path d="M258.45,19.45a24.63,24.63,0,0,1,5,.72L506.54,81.24a25.07,25.07,0,0,1,18.16,30.33L428.84,493.29a25,25,0,0,1-30.32,18.19L155.39,450.37A25.06,25.06,0,0,1,137.23,420L233.14,38.33a25.11,25.11,0,0,1,25.35-18.92m.65-15a40.19,40.19,0,0,0-40.55,30.22L122.73,416.38a40.1,40.1,0,0,0,29.06,48.55L394.9,526a40,40,0,0,0,48.54-29.05h0l95.88-381.7a40,40,0,0,0-29.08-48.53h-.07L267.09,5.62a39.63,39.63,0,0,0-8-1.17Z" transform="translate(-7.2 -2.12)" fill="#fff"/><path d="M433.83,536.72a32,32,0,0,1-12-2.94l-228-104.15a32.54,32.54,0,0,1-16.06-43.06l163.59-358a32.52,32.52,0,0,1,43-16l228,104.18a32.59,32.59,0,0,1,16.06,43.07l-163.59,358A32.43,32.43,0,0,1,433.83,536.72Z" transform="translate(-7.2 -2.12)"/><path d="M372.06,17.15a24.87,24.87,0,0,1,9.25,2.23l228,104.18a25.09,25.09,0,0,1,12.36,33.14l-163.59,358A25.07,25.07,0,0,1,424.9,527L197,422.81a25.07,25.07,0,0,1-12.35-33.12l163.59-358a25.1,25.1,0,0,1,23.87-14.58m.65-15a39.86,39.86,0,0,0-38.17,23.37l-163.6,358a40,40,0,0,0,19.74,53l228,104.15a40,40,0,0,0,53-19.73L635.31,163a40.06,40.06,0,0,0-19.73-53L387.55,5.74a39.38,39.38,0,0,0-14.86-3.57Z" transform="translate(-7.2 -2.12)" fill="#fff"/></svg>