<?xml version="1.0" encoding="utf-8"?>
<!-- Generator: Adobe Illustrator 23.0.4, SVG Export Plug-In . SVG Version: 6.00 Build 0)  -->
<svg version="1.1" id="Lager_1" xmlns="http://www.w3.org/2000/svg" xmlns:xlink="http://www.w3.org/1999/xlink" x="0px" y="0px"
	 viewBox="0 0 631.7 542.2" style="enable-background:new 0 0 631.7 542.2;" xml:space="preserve">
<title>deck</title>
<g>
	<path d="M74.8,453.5l31.6-382.1l-63.2,4.4c-13.7,1-24.1,12.9-23.2,26.7L47.2,495c0.9,12.7,11.2,22.7,23.8,23.2
		c0.9,0.1,1.9,0.1,2.8,0L236.4,507l-125-10.4C89.4,494.8,73,475.5,74.8,453.5z"/>
	<path d="M115.5,414.3l87.8-349.6l2.6-10.2l2.5-10l0.1-0.2l-1.4,0.1l-57.8-4.8h-1l0,0c-8.7-0.3-16.5,3.8-21.3,10.3
		c-2.2,3-3.7,6.5-4.4,10.3c-0.1,0.7-0.2,1.5-0.3,2.3l-0.6,7.8L89.8,454.7c-1.1,13.8,9.1,25.8,22.8,27l160,13.3l-128-32.2
		C123.2,457.4,110.2,435.7,115.5,414.3z"/>
	<path d="M163.8,381.4L309.3,62.9l4.2-9.2l0.2-0.5L317,46l0.7-1.5l2.6-5.7l1.9-4.1l-66-16.6c-1.6-0.4-3.3-0.7-5-0.7l0,0
		c-10-0.4-19.1,5.2-23.4,13.8c-0.8,1.6-1.5,3.3-1.9,5.1l-0.6,2.2l-1.2,4.8l-0.6,2.6l-1.9,7.6l-2.6,10.2l-89,354.3
		c-3.3,13.4,4.8,27,18.2,30.4L294.4,485l-110.8-50.6C163.4,425.2,154.6,401.4,163.8,381.4z"/>
	<path d="M602.1,121.4l-71.6-32.7l-11.7-5.3l-34.4-15.7l-37.6-17.2l-72.7-33.2c-2.9-1.3-6.1-2.1-9.2-2.2l0,0
		c-8.2-0.4-16,3.3-20.9,9.7c-1.2,1.5-2.2,3.1-3,4.9l-0.8,1.9l-3.2,6.9l-0.8,1.7l-3.3,7.3l-3.3,7.2l0,0L324.8,65l-5.6,12.2
		L177.5,387.6c-5.7,12.6-0.2,27.4,12.3,33.1l152.7,69.8l9.3,4.2l9.1,4.2l7.1,3.2l6.5,3l3.8,1.8l8.3,3.8l14.6,6.7l10.8,4.9l5.6,2.6
		c12.6,5.7,27.4,0.2,33.2-12.3l163.6-358C620.2,142,614.6,127.2,602.1,121.4z"/>
</g>
</svg>
