<svg xmlns="http://www.w3.org/2000/svg" viewBox="0 0 40.13 40.13"><title>exp</title><path d="M34,34.07a.85.85,0,0,1-.93.92l-12-.86c-.55,0-1.45,0-2,0L7.06,35a.84.84,0,0,1-.93-.92l.87-13c0-.55,0-1.45,0-2l-.87-13a.85.85,0,0,1,.93-.93l12,.86a16.52,16.52,0,0,0,2,0l12-.86a.86.86,0,0,1,.93.93l-.87,13a16.52,16.52,0,0,0,0,2Z"/><path d="M39.82,20.11a.86.86,0,0,1,0,1.32l-9.09,7.88a15.64,15.64,0,0,0-1.41,1.41l-7.88,9.09a.86.86,0,0,1-1.32,0L11.53,30a17.05,17.05,0,0,0-1.41-1.41L.31,20a.85.85,0,0,1,0-1.31l9.1-7.88a18.76,18.76,0,0,0,1.41-1.41L18.7.31A.85.85,0,0,1,20,.31l8.59,9.81A17.05,17.05,0,0,0,30,11.53Z"/></svg>