<svg id="fa2bafbf-b9e5-44d1-8794-d9d9eaf0a77c" data-name="Lager 1" xmlns="http://www.w3.org/2000/svg" viewBox="0 0 250.29 250.29"><defs><style>.b580da7a-b88c-4182-82c1-add82909fd40,.ba95e7c3-5f99-4654-b42c-8ef25eb25e0e{fill:#fff;}.e1636ee2-168a-4c42-8b24-8b599256dda4{fill:#9e5d40;}.af88f976-d997-40ca-b86d-8dd99454eb90,.b580da7a-b88c-4182-82c1-add82909fd40{isolation:isolate;font-family:PirataOne-Regular, Pirata One;}.af88f976-d997-40ca-b86d-8dd99454eb90{font-size:88.25px;}.b580da7a-b88c-4182-82c1-add82909fd40{font-size:61.03px;}</style></defs><title>shield-self</title><circle class="ba95e7c3-5f99-4654-b42c-8ef25eb25e0e" cx="125.14" cy="125.14" r="117.49"/><circle class="e1636ee2-168a-4c42-8b24-8b599256dda4" cx="125.14" cy="125.14" r="110.31"/><path class="ba95e7c3-5f99-4654-b42c-8ef25eb25e0e" d="M187.65,53.53A2.11,2.11,0,0,0,186.18,51c-15.85-4.43-50-5.57-61-11-11,5.43-45.19,6.57-61,11a2.12,2.12,0,0,0-1.48,2.55c8.23,32.79-7.57,49.74-3.82,73.57,4.26,27,52.46,31.18,66.32,43.91,13.86-12.71,62.07-16.88,66.32-43.91,3.75-23.81-12.05-40.81-3.82-73.57"/><text class="af88f976-d997-40ca-b86d-8dd99454eb90" transform="translate(116.82 136.94)">1</text><text class="b580da7a-b88c-4182-82c1-add82909fd40" transform="translate(82.11 218.56)">Self</text></svg>