<svg id="bbce9871-7606-4f6c-933d-52dfa5d12971" data-name="Lager 1" xmlns="http://www.w3.org/2000/svg" xmlns:xlink="http://www.w3.org/1999/xlink" viewBox="0 0 935 1210"><defs><clipPath id="f763ac9e-4c4e-46c6-87d4-d3f5303643e2"><rect width="935" height="1210" fill="none"/></clipPath><clipPath id="ad20f676-4dfe-4ebd-9427-63b46dea4a2f"><rect x="162.3" y="307.7" width="610.4" height="594.6" fill="none"/></clipPath></defs><title>10</title><g clip-path="url(#f763ac9e-4c4e-46c6-87d4-d3f5303643e2)"><path d="M0,0V1210H935V0Z" fill="#fff"/><g clip-path="url(#ad20f676-4dfe-4ebd-9427-63b46dea4a2f)"><path d="M534.2,605.7A186.3,186.3,0,1,1,347.9,419.4,186.29,186.29,0,0,1,534.2,605.7Z"/><path d="M474.6,307.6a297,297,0,0,0-197,74.5,251.92,251.92,0,0,1,119.2-29.8c139.9,0,253.4,113.5,253.4,253.4S536.7,859.1,396.8,859.1a253,253,0,0,1-119.2-29.7,296.91,296.91,0,0,0,197,74.4c164.6,0,298.1-133.4,298.1-298.1S639.2,307.6,474.6,307.6Z"/></g></g></svg>