<svg id="b29124e1-3c72-43c6-8699-deaae40527ee" data-name="Lager 1" xmlns="http://www.w3.org/2000/svg" xmlns:xlink="http://www.w3.org/1999/xlink" viewBox="0 0 610.6 610.6"><defs><clipPath id="b41ddc0a-e095-426f-aaee-5eb3d9479348"><rect x="147.7" y="0.8" width="315.2" height="609" fill="none"/></clipPath></defs><title>11</title><g clip-path="url(#b41ddc0a-e095-426f-aaee-5eb3d9479348)"><path d="M463.1,185.6c1.2-5.6-15.7-13.5-19.1-19.1s11.3-35,4.5-48.5-9.1-34.8-24.8-58.6C385,.7,315.5,5.4,306,5.4s-79-4.7-117.8,54c-15.7,23.8-18,45.1-24.8,58.6s7.9,42.8,4.6,48.5-20.3,13.5-19.2,19.1,23.7,32.7,24.8,41.7-5.6,33.3,1.1,51.8c25.9-24.7,42.1-34.9,47.3-41.6-5-6.8-9-11.3-5.6-21.5s11-25.6,14.6-28.1c7-5,50.7,9.1,50.7,13.5,0,13.5-22.5,28.2-54,55.2s-71,60.9-69.9,67.6S224.3,460,222,480.3s-14.6,58.5-14.6,58.5,24.8,35,30.4,31.6,4.5-6.8,1.1-16.9-11.2-25.9-11.2-31.5,20.2-32.7,20.2-32.7-5-31.9-6.1-37.5-7.4-12.1-10.8-20-39.4-107.6-39.4-107.6l37.2-24.8s10.1,14.7,19.1,19.2-10.1,50.1-10.1,54.6,43.9,93.5,42.8,100.3-21.4,75.5-20.3,83.4,19.2,21.4,20.3,27,5.7,25.9,11.3,23.7,8.5-13.2.8-30.4c-5.3-11.9-13.2-16.9-12.1-28.2s24.8-56.3,20.3-76.6S269,394.9,269,387.2s8.4-50.4,11.1-57.2c3.1-7.8,11.6-19.4,14.6-22.9,4.7-5.4,11.3,5.3,11.3,5.3s6.5-10.7,11.2-5.3c3.1,3.5,11.6,15.1,14.6,22.9,2.7,6.8,11.2,49.6,11.2,57.2s-27.5,64.9-31.9,85.2c-4.6,20.3,19.1,65.3,20.2,76.6s-6.8,16.3-12.1,28.2c-7.7,17.2-4.8,28.1.9,30.4s10.1-18,11.2-23.7,19.2-19.1,20.3-27-19.2-76.6-20.3-83.4,42.8-95.8,42.8-100.3S355,323.1,364,318.6s19.1-19.2,19.1-19.2l37.2,24.8s-36,99.7-39.4,107.6-9.6,14.4-10.7,20-6.2,37.5-6.2,37.5,20.3,27,20.3,32.7-7.9,21.4-11.3,31.5-4.5,13.5,1.1,16.9,30.5-31.6,30.5-31.6-12.4-38.3-14.7-58.5S453,331,454.1,324.2s-38.3-40.5-69.8-67.6-54.1-39.4-54.1-55.2c0-4.4,43.7-18.5,50.7-13.5,3.6,2.5,11.3,18,14.6,28.1s-.5,14.7-5.6,21.5c5.3,6.7,21.4,16.9,47.3,41.6,6.8-18.5,0-42.8,1.2-51.8s23.6-36,24.7-41.7M330.4,268.4c-3.4,6.8-12,9.6-24.4,9.6s-21.1-2.8-24.4-9.6,12.9-37.7,24.4-37.7S333.8,261.7,330.4,268.4Z"/></g></svg>