<?xml version="1.0" encoding="utf-8"?>
<!-- Generator: Adobe Illustrator 23.0.6, SVG Export Plug-In . SVG Version: 6.00 Build 0)  -->
<svg version="1.1" id="Lager_1" xmlns="http://www.w3.org/2000/svg" xmlns:xlink="http://www.w3.org/1999/xlink" x="0px" y="0px"
	 viewBox="0 0 610.6 610.6" style="enable-background:new 0 0 610.6 610.6;" xml:space="preserve">
<style type="text/css">
	.st0{clip-path:url(#SVGID_2_);}
</style>
<g>
	<g>
		<defs>
			<rect id="SVGID_1_" x="147.7" y="0.8" width="315.2" height="609"/>
		</defs>
		<clipPath id="SVGID_2_">
			<use xlink:href="#SVGID_1_"  style="overflow:visible;"/>
		</clipPath>
		<g class="st0">
			<path d="M463.1,185.6c1.2-5.6-15.7-13.5-19.1-19.1c-3.4-5.7,11.3-35,4.5-48.5s-9.1-34.8-24.8-58.6C385,0.7,315.5,5.4,306,5.4
				c-9.6,0-79-4.7-117.8,54c-15.7,23.8-18,45.1-24.8,58.6c-6.7,13.5,7.9,42.8,4.6,48.5c-3.4,5.6-20.3,13.5-19.2,19.1
				c1.1,5.7,23.7,32.7,24.8,41.7c1.1,9-5.6,33.3,1.1,51.8c25.9-24.7,42.1-34.9,47.3-41.6c-5-6.8-9-11.3-5.6-21.5
				c3.4-10.1,11-25.6,14.6-28.1c7-5,50.7,9.1,50.7,13.5c0,13.5-22.5,28.2-54,55.2c-31.6,27.1-71,60.9-69.9,67.6
				c1.1,6.8,66.5,135.8,64.2,156.1c-2.2,20.2-14.6,58.5-14.6,58.5s24.8,35,30.4,31.6s4.5-6.8,1.1-16.9
				c-3.3-10.1-11.2-25.9-11.2-31.5c0-5.7,20.2-32.7,20.2-32.7s-5-31.9-6.1-37.5s-7.4-12.1-10.8-20c-3.3-7.9-39.4-107.6-39.4-107.6
				l37.2-24.8c0,0,10.1,14.7,19.1,19.2c9.1,4.5-10.1,50.1-10.1,54.6s43.9,93.5,42.8,100.3s-21.4,75.5-20.3,83.4
				c1.2,7.9,19.2,21.4,20.3,27c1.1,5.7,5.7,25.9,11.3,23.7c5.6-2.3,8.5-13.2,0.8-30.4c-5.3-11.9-13.2-16.9-12.1-28.2
				c1.1-11.3,24.8-56.3,20.3-76.6S269,394.9,269,387.2c0-7.6,8.4-50.4,11.1-57.2c3.1-7.8,11.6-19.4,14.6-22.9
				c4.7-5.4,11.3,5.3,11.3,5.3s6.5-10.7,11.2-5.3c3.1,3.5,11.6,15.1,14.6,22.9c2.7,6.8,11.2,49.6,11.2,57.2
				c0,7.7-27.5,64.9-31.9,85.2c-4.6,20.3,19.1,65.3,20.2,76.6s-6.8,16.3-12.1,28.2c-7.7,17.2-4.8,28.1,0.9,30.4
				c5.6,2.2,10.1-18,11.2-23.7c1.1-5.6,19.2-19.1,20.3-27c1.1-7.9-19.2-76.6-20.3-83.4c-1.1-6.8,42.8-95.8,42.8-100.3
				S355,323.1,364,318.6s19.1-19.2,19.1-19.2l37.2,24.8c0,0-36,99.7-39.4,107.6c-3.4,7.9-9.6,14.4-10.7,20
				c-1.2,5.6-6.2,37.5-6.2,37.5s20.3,27,20.3,32.7c0,5.6-7.9,21.4-11.3,31.5c-3.4,10.1-4.5,13.5,1.1,16.9
				c5.7,3.4,30.5-31.6,30.5-31.6s-12.4-38.3-14.7-58.5C387.7,460,453,331,454.1,324.2c1.2-6.7-38.3-40.5-69.8-67.6
				c-31.6-27-54.1-39.4-54.1-55.2c0-4.4,43.7-18.5,50.7-13.5c3.6,2.5,11.3,18,14.6,28.1c3.4,10.2-0.5,14.7-5.6,21.5
				c5.3,6.7,21.4,16.9,47.3,41.6c6.8-18.5,0-42.8,1.2-51.8C439.5,218.3,462,191.3,463.1,185.6 M330.4,268.4
				c-3.4,6.8-12,9.6-24.4,9.6s-21.1-2.8-24.4-9.6c-3.4-6.7,12.9-37.7,24.4-37.7C317.4,230.7,333.8,261.7,330.4,268.4z"/>
		</g>
	</g>
</g>
</svg>
