<?xml version="1.0" encoding="utf-8"?>
<!-- Generator: Adobe Illustrator 23.0.6, SVG Export Plug-In . SVG Version: 6.00 Build 0)  -->
<svg version="1.1" id="Lager_1" xmlns="http://www.w3.org/2000/svg" xmlns:xlink="http://www.w3.org/1999/xlink" x="0px" y="0px"
	 viewBox="0 0 610.6 610.6" style="enable-background:new 0 0 610.6 610.6;" xml:space="preserve">
<style type="text/css">
	.st0{clip-path:url(#SVGID_2_);}
</style>
<g>
	<g>
		<defs>
			<rect id="SVGID_1_" x="63.9" y="1" width="482.8" height="608.6"/>
		</defs>
		<clipPath id="SVGID_2_">
			<use xlink:href="#SVGID_1_"  style="overflow:visible;"/>
		</clipPath>
		<g class="st0">
			<path d="M128.9,246.7L64.4,464c-0.5,1.6,0.9,3.1,2.5,2.8L130,456c1.2-0.2,2.3,0.6,2.5,1.8l27.1,127.9c0.5,2.6,4.2,2.3,4.4-0.3
				l11.9-180.1c0-1.4-1.2-2.6-2.6-2.4l-57.1,8.9c-1.5,0.2-2.7-1-2.6-2.5l19.7-161.7C133.6,244.8,129.7,244,128.9,246.7L128.9,246.7z
				"/>
			<path d="M456.4,2.9L164.6,302.7c-1.4,1.4-0.4,3.8,1.6,3.8H331c1.7,0,2.8,1.8,2,3.3L187.2,605.6c-1.1,2.4,2,4.5,3.7,2.6
				l341.5-363.1c1.3-1.4,0.4-3.7-1.5-3.8l-179.3-12c-1.6-0.1-2.6-1.9-1.8-3.3L460,5.5C461.2,3.1,458.2,1,456.4,2.9L456.4,2.9z"/>
			<path d="M543,379.8l-174.8,83c-1.5,0.7-1.8,2.8-0.4,3.9l37.9,29c1.3,0.9,1.2,2.8-0.1,3.7L244.9,603.7c-2.3,1.5-0.4,5.1,2.1,4
				l246.7-107.3c1.7-0.7,1.9-3,0.3-4l-43.4-28.7c-1.3-0.8-1.4-2.6-0.2-3.6l95.1-80.5C547.5,381.8,545.4,378.6,543,379.8L543,379.8z"
				/>
		</g>
	</g>
</g>
</svg>
