<svg id="a2ab15e1-f7e4-46f8-84df-fa8cb8f8fc63" data-name="Lager 1" xmlns="http://www.w3.org/2000/svg" xmlns:xlink="http://www.w3.org/1999/xlink" viewBox="0 0 610.6 610.6"><defs><clipPath id="e3ddd2f9-f03f-40e9-8343-a57e6f194adb"><rect x="63.9" y="1" width="482.8" height="608.6" fill="none"/></clipPath></defs><title>12</title><g clip-path="url(#e3ddd2f9-f03f-40e9-8343-a57e6f194adb)"><path d="M128.9,246.7,64.4,464a2.19,2.19,0,0,0,2.5,2.8L130,456a2.16,2.16,0,0,1,2.5,1.8l27.1,127.9a2.22,2.22,0,0,0,4.4-.3l11.9-180.1a2.36,2.36,0,0,0-2.6-2.4l-57.1,8.9a2.3,2.3,0,0,1-2.6-2.5l19.7-161.7a2.25,2.25,0,0,0-4.4-.9Z"/><path d="M456.4,2.9,164.6,302.7a2.23,2.23,0,0,0,1.6,3.8H331a2.25,2.25,0,0,1,2,3.3L187.2,605.6c-1.1,2.4,2,4.5,3.7,2.6L532.4,245.1a2.26,2.26,0,0,0-1.5-3.8l-179.3-12a2.24,2.24,0,0,1-1.8-3.3L460,5.5a2.24,2.24,0,0,0-3.6-2.6Z"/><path d="M543,379.8l-174.8,83a2.3,2.3,0,0,0-.4,3.9l37.9,29a2.24,2.24,0,0,1-.1,3.7L244.9,603.7a2.27,2.27,0,0,0,2.1,4L493.7,500.4a2.24,2.24,0,0,0,.3-4l-43.4-28.7a2.2,2.2,0,0,1-.2-3.6l95.1-80.5a2.29,2.29,0,0,0-2.5-3.8Z"/></g></svg>