<svg id="ac9f0f54-aa9b-4c12-a79c-2d5d9f74b742" data-name="Lager 1" xmlns="http://www.w3.org/2000/svg" xmlns:xlink="http://www.w3.org/1999/xlink" viewBox="0 0 611.2 610.6"><defs><clipPath id="b7989ef3-de94-4f8d-ad9e-19dc4c71769f"><rect y="1" width="611.2" height="605.5" fill="none"/></clipPath></defs><title>13</title><g clip-path="url(#b7989ef3-de94-4f8d-ad9e-19dc4c71769f)"><path d="M606.9,456.6,557.4,55.9a10.86,10.86,0,0,0-3.8-6.9C540.2,38.1,483.8,1,343.3,8.4,225,14.7,171.4,60.1,157.7,74a10.69,10.69,0,0,0-2.9,9.2L208.3,403v.1c-30.5-10.3-70.3-7.7-108.5,9.8C35.3,442.6.1,503.5,21,549.1s90.2,58.5,154.7,28.9c55.4-25.5,89.1-74,84.3-116.1l.6.7L214.8,206.5s37.7-39.6,151.7-49.3S523,166.9,523,166.9l29.3,229.4h.1c-30.2-9.3-69-6.5-106.2,10.6-64.5,29.7-99.8,90.7-78.8,136.2s90.2,58.5,154.7,28.9c55.3-25.5,89.1-74,84.3-116.1Z"/></g></svg>