<?xml version="1.0" encoding="utf-8"?>
<!-- Generator: Adobe Illustrator 23.0.6, SVG Export Plug-In . SVG Version: 6.00 Build 0)  -->
<svg version="1.1" id="Lager_1" xmlns="http://www.w3.org/2000/svg" xmlns:xlink="http://www.w3.org/1999/xlink" x="0px" y="0px"
	 viewBox="0 0 611.2 610.6" style="enable-background:new 0 0 611.2 610.6;" xml:space="preserve">
<style type="text/css">
	.st0{clip-path:url(#SVGID_2_);}
</style>
<g>
	<g>
		<g>
			<defs>
				<rect id="SVGID_1_" y="1" width="611.2" height="605.5"/>
			</defs>
			<clipPath id="SVGID_2_">
				<use xlink:href="#SVGID_1_"  style="overflow:visible;"/>
			</clipPath>
			<g class="st0">
				<path d="M606.9,456.6L557.4,55.9c-0.4-2.7-1.7-5.2-3.8-6.9C540.2,38.1,483.8,1,343.3,8.4C225,14.7,171.4,60.1,157.7,74
					c-2.4,2.4-3.4,5.8-2.9,9.2L208.3,403v0.1c-30.5-10.3-70.3-7.7-108.5,9.8C35.3,442.6,0.1,503.5,21,549.1
					c21,45.6,90.2,58.5,154.7,28.9c55.4-25.5,89.1-74,84.3-116.1l0.6,0.7l-45.8-256.1c0,0,37.7-39.6,151.7-49.3
					c114-9.6,156.5,9.7,156.5,9.7l29.3,229.4h0.1c-30.2-9.3-69-6.5-106.2,10.6c-64.5,29.7-99.8,90.7-78.8,136.2
					c20.9,45.6,90.2,58.5,154.7,28.9c55.3-25.5,89.1-74,84.3-116.1L606.9,456.6z"/>
			</g>
		</g>
	</g>
</g>
</svg>
