<?xml version="1.0" encoding="utf-8"?>
<!-- Generator: Adobe Illustrator 23.0.6, SVG Export Plug-In . SVG Version: 6.00 Build 0)  -->
<svg version="1.1" id="Lager_1" xmlns="http://www.w3.org/2000/svg" xmlns:xlink="http://www.w3.org/1999/xlink" x="0px" y="0px"
	 viewBox="0 0 610.6 610.6" style="enable-background:new 0 0 610.6 610.6;" xml:space="preserve">
<style type="text/css">
	.st0{clip-path:url(#SVGID_2_);}
</style>
<g>
	<g>
		<defs>
			<rect id="SVGID_1_" y="145.6" width="610.6" height="319.4"/>
		</defs>
		<clipPath id="SVGID_2_">
			<use xlink:href="#SVGID_1_"  style="overflow:visible;"/>
		</clipPath>
		<g class="st0">
			<path d="M16.8,289.9l403.7-115l54.3,190.7L386,320.1l18.1,65.7L315,339.6l18.4,66.3l-89.7-48.1l19.1,68.3l-89.4-46.2l18.7,66.3
				L102.2,401l19.2,65.3L32,420.9L2.5,315.3C-0.5,304.4,5.8,293,16.8,289.9z"/>
			<path d="M605.8,263.4L586.1,195c-4.9-16.7-15.9-30.6-31.2-39s-32.9-10.4-49.6-5.6L444.1,168l16.6,58.9l61.6-17.8
				c0.3-0.1,0.7-0.1,1.1-0.1c0.8,0,1.5,0.2,1.9,0.5c0.7,0.4,1.6,1.1,2,2.4l19.7,68.4c0.4,1.3,0,2.4-0.3,3.1c-0.5,0.7-1.2,1.6-2.5,2
				l-62,17.8l16.6,58.9l62.4-18c16.7-4.8,30.5-15.9,39-31.1C608.6,297.7,610.6,280.1,605.8,263.4L605.8,263.4z"/>
		</g>
	</g>
</g>
</svg>
