<svg id="af01feb7-9111-4110-85a2-c1695b06f5b1" data-name="Lager 1" xmlns="http://www.w3.org/2000/svg" xmlns:xlink="http://www.w3.org/1999/xlink" viewBox="0 0 610.6 610.6"><defs><clipPath id="b402fb9e-59c0-434a-b1dc-bf3b23013b4b"><rect y="145.6" width="610.6" height="319.4" fill="none"/></clipPath></defs><title>15</title><g clip-path="url(#b402fb9e-59c0-434a-b1dc-bf3b23013b4b)"><path d="M16.8,289.9l403.7-115,54.3,190.7L386,320.1l18.1,65.7L315,339.6l18.4,66.3-89.7-48.1,19.1,68.3-89.4-46.2,18.7,66.3L102.2,401l19.2,65.3L32,420.9,2.5,315.3A20.68,20.68,0,0,1,16.8,289.9Z"/><path d="M605.8,263.4,586.1,195a65.38,65.38,0,0,0-80.8-44.6L444.1,168l16.6,58.9,61.6-17.8a3.75,3.75,0,0,1,1.1-.1,3.31,3.31,0,0,1,1.9.5,4.13,4.13,0,0,1,2,2.4L547,280.3a4.36,4.36,0,0,1-.3,3.1,4.75,4.75,0,0,1-2.5,2l-62,17.8,16.6,58.9,62.4-18a65.21,65.21,0,0,0,44.6-80.7Z"/></g></svg>