<svg id="e7c7dd2e-0995-414c-bb87-7da19a62b001" data-name="Lager 1" xmlns="http://www.w3.org/2000/svg" xmlns:xlink="http://www.w3.org/1999/xlink" viewBox="0 0 610.6 610.6"><defs><clipPath id="a9f66995-a60c-45da-95a3-a3967c28e800"><rect y="40.8" width="610.6" height="529" fill="none"/></clipPath></defs><title>16</title><g clip-path="url(#a9f66995-a60c-45da-95a3-a3967c28e800)"><path d="M310.1,565.8,450.3,323.1a6.63,6.63,0,0,0-5.7-9.9H164.3a6.64,6.64,0,0,0-5.8,9.9L298.7,565.8a6.57,6.57,0,0,0,11.4,0L450.3,323.1a6.63,6.63,0,0,0-5.7-9.9H164.3a6.64,6.64,0,0,0-5.8,9.9L298.7,565.8A6.57,6.57,0,0,0,310.1,565.8Z"/></g><path d="M300.6,109.5,207,271.5a4.44,4.44,0,0,0,3.9,6.6H398a4.43,4.43,0,0,0,3.8-6.6l-93.6-162a4.33,4.33,0,0,0-7.6,0L207,271.5a4.44,4.44,0,0,0,3.9,6.6H398a4.43,4.43,0,0,0,3.8-6.6l-93.6-162A4.33,4.33,0,0,0,300.6,109.5Z"/><g clip-path="url(#a9f66995-a60c-45da-95a3-a3967c28e800)"><path d="M467.9,293.4,608.1,50.7a6.63,6.63,0,0,0-5.7-9.9H322a6.63,6.63,0,0,0-5.7,9.9L456.5,293.4a6.57,6.57,0,0,0,11.4,0L608.1,50.7a6.63,6.63,0,0,0-5.7-9.9H322a6.63,6.63,0,0,0-5.7,9.9L456.5,293.4a6.57,6.57,0,0,0,11.4,0Z"/><path d="M153.6,293.4,293.7,50.7a6.57,6.57,0,0,0-5.7-9.9H7.7A6.63,6.63,0,0,0,2,50.7L142.2,293.4a6.57,6.57,0,0,0,11.4,0L293.7,50.7a6.57,6.57,0,0,0-5.7-9.9H7.7A6.63,6.63,0,0,0,2,50.7L142.2,293.4A6.57,6.57,0,0,0,153.6,293.4Z"/></g></svg>