<?xml version="1.0" encoding="utf-8"?>
<!-- Generator: Adobe Illustrator 23.0.6, SVG Export Plug-In . SVG Version: 6.00 Build 0)  -->
<svg version="1.1" id="Lager_1" xmlns="http://www.w3.org/2000/svg" xmlns:xlink="http://www.w3.org/1999/xlink" x="0px" y="0px"
	 viewBox="0 0 610.6 610.6" style="enable-background:new 0 0 610.6 610.6;" xml:space="preserve">
<style type="text/css">
	.st0{clip-path:url(#SVGID_2_);}
	.st1{clip-path:url(#SVGID_4_);}
</style>
<g>
	<g>
		<defs>
			<rect id="SVGID_1_" y="40.8" width="610.6" height="529"/>
		</defs>
		<clipPath id="SVGID_2_">
			<use xlink:href="#SVGID_1_"  style="overflow:visible;"/>
		</clipPath>
		<g class="st0">
			<path d="M310.1,565.8l140.2-242.7c2.5-4.4-0.7-9.9-5.7-9.9H164.3c-5.1,0-8.3,5.5-5.8,9.9l140.2,242.7
				C301.2,570.2,307.6,570.2,310.1,565.8l140.2-242.7c2.5-4.4-0.7-9.9-5.7-9.9H164.3c-5.1,0-8.3,5.5-5.8,9.9l140.2,242.7
				C301.2,570.2,307.6,570.2,310.1,565.8z"/>
		</g>
	</g>
	<path d="M300.6,109.5l-93.6,162c-1.7,2.9,0.5,6.6,3.9,6.6H398c3.3,0,5.5-3.7,3.8-6.6l-93.6-162
		C306.5,106.5,302.3,106.5,300.6,109.5l-93.6,162c-1.7,2.9,0.5,6.6,3.9,6.6H398c3.3,0,5.5-3.7,3.8-6.6l-93.6-162
		C306.5,106.5,302.3,106.5,300.6,109.5z"/>
	<g>
		<defs>
			<rect id="SVGID_3_" y="40.8" width="610.6" height="529"/>
		</defs>
		<clipPath id="SVGID_4_">
			<use xlink:href="#SVGID_3_"  style="overflow:visible;"/>
		</clipPath>
		<g class="st1">
			<path d="M467.9,293.4L608.1,50.7c2.5-4.4-0.7-9.9-5.7-9.9H322c-5,0-8.2,5.5-5.7,9.9l140.2,242.7
				C459,297.8,465.4,297.8,467.9,293.4L608.1,50.7c2.5-4.4-0.7-9.9-5.7-9.9H322c-5,0-8.2,5.5-5.7,9.9l140.2,242.7
				C459,297.8,465.4,297.8,467.9,293.4L467.9,293.4z"/>
			<path d="M153.6,293.4L293.7,50.7c2.6-4.4-0.6-9.9-5.7-9.9H7.7c-5,0-8.2,5.5-5.7,9.9l140.2,242.7
				C144.7,297.8,151.1,297.8,153.6,293.4L293.7,50.7c2.6-4.4-0.6-9.9-5.7-9.9H7.7c-5,0-8.2,5.5-5.7,9.9l140.2,242.7
				C144.7,297.8,151.1,297.8,153.6,293.4z"/>
		</g>
	</g>
</g>
</svg>
