<?xml version="1.0" encoding="utf-8"?>
<!-- Generator: Adobe Illustrator 23.0.6, SVG Export Plug-In . SVG Version: 6.00 Build 0)  -->
<svg version="1.1" id="Lager_1" xmlns="http://www.w3.org/2000/svg" xmlns:xlink="http://www.w3.org/1999/xlink" x="0px" y="0px"
	 viewBox="0 0 614.2 610.6" style="enable-background:new 0 0 614.2 610.6;" xml:space="preserve">
<style type="text/css">
	.st0{clip-path:url(#SVGID_2_);}
	.st1{clip-path:url(#SVGID_4_);}
</style>
<g>
	<g>
		<defs>
			<rect id="SVGID_1_" y="24.4" width="614.2" height="561.8"/>
		</defs>
		<clipPath id="SVGID_2_">
			<use xlink:href="#SVGID_1_"  style="overflow:visible;"/>
		</clipPath>
		<g class="st0">
			<path d="M155.1,30.9c-7.7-6.5-46.5,52.6-40.5,87c-0.6,12.1,34.4,54.6,50.6,52.6s38.5-18.5,44.5-34.7
				C215.8,119.7,187.6,58.4,155.1,30.9z"/>
			<path d="M459.9,30.9c7.7-6.5,46.5,52.6,40.4,87c0.7,12.1-34.4,54.6-50.6,52.6c-16.1-2-38.4-18.5-44.5-34.7
				C399.2,119.7,427.3,58.4,459.9,30.9L459.9,30.9z"/>
			<path d="M608.2,240.7c-20.9,30.4-66.1,40.5-66.1,40.5s15.5-27,37.8-68.1c12.1-47.9-19.6-87.7-34.4-95.8
				C482.8,216.4,352,267,345.2,259.6c-6.7-7.4,43.2-94.9,45.2-98.4c2-3.6-29-35.8-29-35.8s-43.1-41.2-53.9-41.2
				s-54.7,41.1-54.7,41.1s-31,32.2-28.9,35.7c2,3.6,51.9,91.1,45.1,98.5c-6.7,7.4-137.5-43.2-200.2-142.3
				C54,125.3,22.3,165.1,34.4,213c22.2,41.1,37.8,68.1,37.8,68.1S27,270.9,6.1,240.6c-6.1,33.7,0,85.6,0,85.6s31,59.4,92.4,63.4
				c-36.5,23.6-63.4,43.8-62.8,48.5c0.7,4.8,76.2,36.5,130.2,27c-6.8,15.5-24.3,31.7-23.6,33.7c0.7,2.1,44.5,20.9,59.3,22.3
				c9,15.5,33.7,57.3,41.1,58.6c-4-20.9-7.4-37.7-1.3-56.6c-9.5-27-38.9-79-47.2-98.4c-21.6-4.1-55.7-11.4-64.7-29
				c-7.2-14,30.9-37.8,32.8-37.8c6.3,0,27.5,29.4,44.8,44.6c23-29,71.2-72,99.7-72.6c28.4,0,77.1,43.5,100.3,72.7
				c17.3-15.2,38.6-44.6,44.9-44.6c1.9,0,39.9,23.8,32.8,37.8c-9.1,17.6-43.2,24.9-64.7,29c-8.3,19.4-37.8,71.4-47.2,98.4
				c6,18.9,2.7,35.7-1.4,56.6c7.4-1.3,32.2-43.1,41.2-58.6c14.8-1.4,58.6-20.2,59.3-22.3c0.7-2-16.9-18.2-23.6-33.7
				c53.9,9.5,129.4-22.2,130.1-26.9c0.7-4.8-26.3-25-62.7-48.6c61.4-4,92.4-63.4,92.4-63.4S614.2,274.4,608.2,240.7L608.2,240.7z"/>
		</g>
	</g>
	<path d="M373.6,457c0,0,17.5-31,16.1-35.7c-1.3-4.7-43.1-52.6-82.2-52.6s-81,47.9-82.3,52.6c-1.3,4.7,16.2,35.7,16.2,35.7
		s33-8.7,43.1-7.4c-8.1,13.5-31.7,21.6-36.4,22.9c2,10.1,12.8,31.7,12.8,31.7s19.6-10.1,46.6-10.1c26.9,0,46.5,10.1,46.5,10.1
		s10.8-21.6,12.8-31.7c-4.7-1.3-28.3-9.4-36.4-22.9C340.5,448.3,373.6,457,373.6,457z"/>
	<g>
		<defs>
			<rect id="SVGID_3_" y="24.4" width="614.2" height="561.8"/>
		</defs>
		<clipPath id="SVGID_4_">
			<use xlink:href="#SVGID_3_"  style="overflow:visible;"/>
		</clipPath>
		<g class="st1">
			<path d="M348.7,527.1c0,0-14.2-10.7-41.2-10.7s-41.2,10.7-41.2,10.7s-5.4,17.6,0,29.7c10.1-8.1,18.9-12.1,25.7-5.4
				c6.7,6.8,10.1,20.9,0,28.3c6.7,6.1,8.1,7.4,15.5,7.4s8.8-1.3,15.5-7.4c-10.1-7.4-6.7-21.5,0-28.3c6.7-6.7,15.5-2.7,25.7,5.4
				C354.1,544.7,348.7,527.1,348.7,527.1z"/>
		</g>
	</g>
</g>
</svg>
