<svg id="abc16e0c-deb1-4ab6-be0d-e77d9d173e52" data-name="Lager 1" xmlns="http://www.w3.org/2000/svg" xmlns:xlink="http://www.w3.org/1999/xlink" viewBox="0 0 614.2 610.6"><defs><clipPath id="fda4e6eb-c872-445a-9fcd-0a2f9f40370b"><rect y="24.4" width="614.2" height="561.8" fill="none"/></clipPath></defs><title>17</title><g clip-path="url(#fda4e6eb-c872-445a-9fcd-0a2f9f40370b)"><path d="M155.1,30.9c-7.7-6.5-46.5,52.6-40.5,87-.6,12.1,34.4,54.6,50.6,52.6s38.5-18.5,44.5-34.7S187.6,58.4,155.1,30.9Z"/><path d="M459.9,30.9c7.7-6.5,46.5,52.6,40.4,87,.7,12.1-34.4,54.6-50.6,52.6s-38.4-18.5-44.5-34.7,22.1-77.4,54.7-104.9Z"/><path d="M608.2,240.7c-20.9,30.4-66.1,40.5-66.1,40.5s15.5-27,37.8-68.1c12.1-47.9-19.6-87.7-34.4-95.8C482.8,216.4,352,267,345.2,259.6s43.2-94.9,45.2-98.4-29-35.8-29-35.8-43.1-41.2-53.9-41.2-54.7,41.1-54.7,41.1-31,32.2-28.9,35.7,51.9,91.1,45.1,98.5S131.5,216.3,68.8,117.2C54,125.3,22.3,165.1,34.4,213c22.2,41.1,37.8,68.1,37.8,68.1S27,270.9,6.1,240.6c-6.1,33.7,0,85.6,0,85.6s31,59.4,92.4,63.4C62,413.2,35.1,433.4,35.7,438.1s76.2,36.5,130.2,27c-6.8,15.5-24.3,31.7-23.6,33.7s44.5,20.9,59.3,22.3c9,15.5,33.7,57.3,41.1,58.6-4-20.9-7.4-37.7-1.3-56.6-9.5-27-38.9-79-47.2-98.4-21.6-4.1-55.7-11.4-64.7-29-7.2-14,30.9-37.8,32.8-37.8,6.3,0,27.5,29.4,44.8,44.6,23-29,71.2-72,99.7-72.6,28.4,0,77.1,43.5,100.3,72.7C424.4,387.4,445.7,358,452,358c1.9,0,39.9,23.8,32.8,37.8-9.1,17.6-43.2,24.9-64.7,29-8.3,19.4-37.8,71.4-47.2,98.4,6,18.9,2.7,35.7-1.4,56.6,7.4-1.3,32.2-43.1,41.2-58.6,14.8-1.4,58.6-20.2,59.3-22.3s-16.9-18.2-23.6-33.7c53.9,9.5,129.4-22.2,130.1-26.9s-26.3-25-62.7-48.6c61.4-4,92.4-63.4,92.4-63.4s6-51.9,0-85.6Z"/></g><path d="M373.6,457s17.5-31,16.1-35.7-43.1-52.6-82.2-52.6-81,47.9-82.3,52.6S241.4,457,241.4,457s33-8.7,43.1-7.4c-8.1,13.5-31.7,21.6-36.4,22.9,2,10.1,12.8,31.7,12.8,31.7a112.32,112.32,0,0,1,93.1,0s10.8-21.6,12.8-31.7c-4.7-1.3-28.3-9.4-36.4-22.9C340.5,448.3,373.6,457,373.6,457Z"/><g clip-path="url(#fda4e6eb-c872-445a-9fcd-0a2f9f40370b)"><path d="M348.7,527.1s-14.2-10.7-41.2-10.7-41.2,10.7-41.2,10.7-5.4,17.6,0,29.7c10.1-8.1,18.9-12.1,25.7-5.4s10.1,20.9,0,28.3c6.7,6.1,8.1,7.4,15.5,7.4s8.8-1.3,15.5-7.4c-10.1-7.4-6.7-21.5,0-28.3s15.5-2.7,25.7,5.4C354.1,544.7,348.7,527.1,348.7,527.1Z"/></g></svg>