<svg id="b8700e03-da41-4f6f-960c-3a6d8eae6e23" data-name="Lager 1" xmlns="http://www.w3.org/2000/svg" xmlns:xlink="http://www.w3.org/1999/xlink" viewBox="0 0 935 1210"><defs><clipPath id="f937aecf-1df7-49d1-8027-0ee31cc670cd"><rect width="935" height="1210" fill="none"/></clipPath><clipPath id="ba42b773-d20f-4314-b00c-fc5c569f9c08"><rect x="162.4" y="300" width="610.2" height="610" fill="none"/></clipPath></defs><title>7</title><g clip-path="url(#f937aecf-1df7-49d1-8027-0ee31cc670cd)"><path d="M0,0V1210H935V0Z" fill="#fff"/><g clip-path="url(#ba42b773-d20f-4314-b00c-fc5c569f9c08)"><path d="M651.7,654.7l121.6-49.2L651.7,556.2l80.7-103.5L602.5,470.9l18.1-130L517.1,421.6,467.9,300,418.6,421.6,315.1,340.9l18.1,130L203.3,452.7,284,556.2,162.4,605.5,284,654.7,203.3,758.2l129.9-18.1L315.1,870l103.5-80.6,49.3,121.5,49.2-121.5L620.6,870,602.5,740.1l129.9,18.1ZM467.9,756.5a151.05,151.05,0,1,1,0-302.1c83.4,0,151,67.7,151,151.1a151,151,0,0,1-151,151Z"/></g><path d="M562.8,605.5a95,95,0,1,1-95-95A94.94,94.94,0,0,1,562.8,605.5Z"/></g></svg>