<svg xmlns="http://www.w3.org/2000/svg" xmlns:xlink="http://www.w3.org/1999/xlink" viewBox="0 0 935 1210"><defs><clipPath id="a"><rect width="935" height="1210" fill="none"/></clipPath><clipPath id="b"><rect x="168" y="339.9" width="599" height="530.2" fill="none"/></clipPath></defs><title>brute</title><g clip-path="url(#a)"><path d="M0,0V1210H935V0Z" fill="#fff"/><g clip-path="url(#b)"><path d="M538.6,688.1s10.8,98.5,13.1,145.5c15.7,3.1,37,10.7,38.5,21.3,12.1,4.7,22.2,2.1,25.8,0,5.1-35.1-13.7-124.4,15.2-160.9s101.7-53.1,119.9-96.4c16.9-40.2-2.8-128.1,8.9-166a2,2,0,0,0-3.4-2c-40.5,38.7-41.9,112.6-55.6,127.7-21,23.4-105.3,40.1-145.7,84.4-13.7,15-16.7,46.4-16.7,46.4Z"/><path d="M466,342.2c-11.3,71.5-66.3,425.7-56.4,491.4,20.6,3.6,31.8,36.5,58.4,36.5s37.8-32.9,58.4-36.5c9.9-65.7-45.1-419.9-56.4-491.4A2,2,0,0,0,466,342.2Z"/></g><path d="M397.4,688.1s-10.8,98.5-13.1,145.5c-15.8,3.1-37,10.7-38.5,21.3-12.2,4.7-22.2,2.1-25.8,0-5.2-35.1,13.6-124.4-15.2-160.9s-101.7-53.1-119.9-96.4c-16.9-40.2,2.8-128.1-8.9-166a2,2,0,0,1,3.4-2c40.5,38.7,41.9,112.6,55.6,127.7,21,23.4,105.3,40.1,145.7,84.4,13.7,15,16.7,46.4,16.7,46.4Z"/></g></svg>