<?xml version="1.0" encoding="utf-8"?>
<!-- Generator: Adobe Illustrator 23.0.6, SVG Export Plug-In . SVG Version: 6.00 Build 0)  -->
<svg version="1.1" id="Lager_1" xmlns="http://www.w3.org/2000/svg" xmlns:xlink="http://www.w3.org/1999/xlink" x="0px" y="0px"
	 viewBox="0 0 610.6 610.6" style="enable-background:new 0 0 610.6 610.6;" xml:space="preserve">
<style type="text/css">
	.st0{clip-path:url(#SVGID_2_);}
</style>
<g>
	<g>
		<defs>
			<rect id="SVGID_1_" x="5.8" y="40.2" width="599" height="530.2"/>
		</defs>
		<clipPath id="SVGID_2_">
			<use xlink:href="#SVGID_1_"  style="overflow:visible;"/>
		</clipPath>
		<g class="st0">
			<path d="M376.4,388.4c0,0,10.8,98.5,13.1,145.5c15.7,3.1,37,10.7,38.5,21.3c12.1,4.7,22.2,2.1,25.8,0
				c5.1-35.1-13.7-124.4,15.2-160.9s101.7-53.1,119.9-96.4c16.9-40.2-2.8-128.1,8.9-166c0.4-1-0.1-2.2-1.2-2.6
				c-0.8-0.3-1.7-0.1-2.2,0.6c-40.5,38.7-41.9,112.6-55.6,127.7c-21,23.4-105.3,40.1-145.7,84.4C379.4,357,376.4,388.4,376.4,388.4
				L376.4,388.4z"/>
			<path d="M303.8,42.5c-11.3,71.5-66.3,425.7-56.4,491.4c20.6,3.6,31.8,36.5,58.4,36.5s37.8-32.9,58.4-36.5
				c9.9-65.7-45.1-419.9-56.4-491.4c0-1.1-0.9-2-2-2S303.8,41.4,303.8,42.5z"/>
		</g>
	</g>
	<path d="M235.2,388.4c0,0-10.8,98.5-13.1,145.5c-15.8,3.1-37,10.7-38.5,21.3c-12.2,4.7-22.2,2.1-25.8,0
		c-5.2-35.1,13.6-124.4-15.2-160.9S40.9,341.2,22.7,297.9c-16.9-40.2,2.8-128.1-8.9-166c-0.4-1,0.1-2.2,1.2-2.6
		c0.8-0.3,1.7-0.1,2.2,0.6c40.5,38.7,41.9,112.6,55.6,127.7c21,23.4,105.3,40.1,145.7,84.4C232.2,357,235.2,388.4,235.2,388.4
		L235.2,388.4z"/>
</g>
</svg>
