<?xml version="1.0" encoding="utf-8"?>
<!-- Generator: Adobe Illustrator 23.0.6, SVG Export Plug-In . SVG Version: 6.00 Build 0)  -->
<svg version="1.1" id="Lager_1" xmlns="http://www.w3.org/2000/svg" xmlns:xlink="http://www.w3.org/1999/xlink" x="0px" y="0px"
	 viewBox="0 0 610.6 611.2" style="enable-background:new 0 0 610.6 611.2;" xml:space="preserve">
<style type="text/css">
	.st0{clip-path:url(#SVGID_2_);}
</style>
<g>
	<path d="M357.3,483.6h-104c-15.9,0-31.6,6.1-44.9,17.5l-25.3,21.8v66.2c0,0,54.8,22.1,122,22.1h0.4c67.2,0,122-22.1,122-22.1v-66.2
		l-25.3-21.8C388.9,489.7,373.2,483.6,357.3,483.6z"/>
	<g>
		<defs>
			<rect id="SVGID_1_" x="6.2" width="598.2" height="611.2"/>
		</defs>
		<clipPath id="SVGID_2_">
			<use xlink:href="#SVGID_1_"  style="overflow:visible;"/>
		</clipPath>
		<g class="st0">
			<path d="M577.7,325.1c0,0,22.8-152.1,1.9-181.6c3.9-21.4,4.3-56.9-4.1-75.1c-12-6.6-55.1,14.7-77.4,25.7
				C488,73.3,470.7,44,454.3,29.4c-21.8,0.4-64.4,23.9-87,36.1c-15.9-15.6-41.5-56.7-61.8-65.3V0.1h-0.4v0.1
				c-20.3,8.6-46,49.8-61.8,65.3c-22.6-12.2-65.2-35.7-87-36.1c-16.4,14.6-33.7,43.9-43.8,64.7c-22.3-11-65.4-32.3-77.4-25.7
				c-8.4,18.2-8,53.7-4.1,75.1c-21,29.5,1.9,181.6,1.9,181.6L6.2,354.5l33.7,60.7c6.8,12.2,89.3,52.7,126.1,70.3
				c4.9,2.4,10.8,0.3,13.2-4.6c0.9-1.9,1.2-4,0.8-6.1l-3.9-21.5c-2.7-14.5-0.8-29.4,5.2-42.8l29.3-64.9c3.7-13.1-2.9-27.3-13.6-29.4
				l-84-15.7v-46.1c0-9,7.3-16.4,16.3-16.4c1.4,0,2.7,0.2,4.1,0.5l118.9,30.1c9.8,0,16.7,12.3,13.6,24.3l-18.3,95.6
				c-4.3,16.9,5.4,34.3,19.2,34.3h77c13.8,0,23.5-17.4,19.2-34.3l-18.4-95.6c-3-12,3.9-24.3,13.7-24.3l118.9-30.1
				c8.8-2.2,17.7,3.1,19.9,11.9c0.3,1.3,0.5,2.6,0.5,4v46.1l-84,15.7c-10.7,2.1-17.3,16.3-13.6,29.4l29.3,64.8
				c6.1,13.5,7.9,28.5,5.2,43l-3.9,21.4c-1,5.4,2.6,10.5,7.9,11.5c2.1,0.4,4.2,0.1,6.1-0.8c36.8-17.6,119.3-58.1,126.1-70.3
				l33.7-60.7L577.7,325.1z"/>
		</g>
	</g>
</g>
</svg>
