<svg xmlns="http://www.w3.org/2000/svg" xmlns:xlink="http://www.w3.org/1999/xlink" viewBox="0 0 935 1210"><defs><clipPath id="a"><rect width="935" height="1210" fill="none"/></clipPath><clipPath id="b"><rect x="168.4" y="299.4" width="598.2" height="611.2" fill="none"/></clipPath></defs><title>doomstalker</title><g clip-path="url(#a)"><path d="M0,0V1210H935V0Z" fill="#fff"/><path d="M519.5,783h-104c-15.9,0-31.6,6.1-44.9,17.5l-25.3,21.8v66.2s54.8,22.1,122,22.1h.4c67.2,0,122-22.1,122-22.1V822.3l-25.3-21.8C551.1,789.1,535.4,783,519.5,783Z"/><g clip-path="url(#b)"><path d="M739.9,624.5s22.8-152.1,1.9-181.6c3.9-21.4,4.3-56.9-4.1-75.1-12-6.6-55.1,14.7-77.4,25.7-10.1-20.8-27.4-50.1-43.8-64.7-21.8.4-64.4,23.9-87,36.1-15.9-15.6-41.5-56.7-61.8-65.3v-.1h-.4v.1c-20.3,8.6-46,49.8-61.8,65.3-22.6-12.2-65.2-35.7-87-36.1-16.4,14.6-33.7,43.9-43.8,64.7-22.3-11-65.4-32.3-77.4-25.7-8.4,18.2-8,53.7-4.1,75.1-21,29.5,1.9,181.6,1.9,181.6l-26.7,29.4,33.7,60.7c6.8,12.2,89.3,52.7,126.1,70.3a9.89,9.89,0,0,0,14-10.7l-3.9-21.5a72.3,72.3,0,0,1,5.2-42.8L372.8,645c3.7-13.1-2.9-27.3-13.6-29.4l-84-15.7V553.8a16.37,16.37,0,0,1,20.4-15.9L414.5,568c9.8,0,16.7,12.3,13.6,24.3l-18.3,95.6c-4.3,16.9,5.4,34.3,19.2,34.3h77c13.8,0,23.5-17.4,19.2-34.3l-18.4-95.6c-3-12,3.9-24.3,13.7-24.3l118.9-30.1a16.41,16.41,0,0,1,20.4,15.9v46.1l-84,15.7c-10.7,2.1-17.3,16.3-13.6,29.4l29.3,64.8a72.27,72.27,0,0,1,5.2,43l-3.9,21.4a9.89,9.89,0,0,0,14,10.7c36.8-17.6,119.3-58.1,126.1-70.3l33.7-60.7Z"/></g></g></svg>