<svg id="a7dc998e-3341-4871-a75f-a1c56f05c00f" data-name="Lager 1" xmlns="http://www.w3.org/2000/svg" xmlns:xlink="http://www.w3.org/1999/xlink" viewBox="0 0 610.6 611.2"><defs><clipPath id="e74a70b9-4e78-4cc7-a239-3e687fbf4dac"><rect x="6.2" width="598.2" height="611.2" fill="none"/></clipPath></defs><title>doomstalker</title><path d="M357.3,483.6h-104c-15.9,0-31.6,6.1-44.9,17.5l-25.3,21.8v66.2s54.8,22.1,122,22.1h.4c67.2,0,122-22.1,122-22.1V522.9l-25.3-21.8C388.9,489.7,373.2,483.6,357.3,483.6Z"/><g clip-path="url(#e74a70b9-4e78-4cc7-a239-3e687fbf4dac)"><path d="M577.7,325.1s22.8-152.1,1.9-181.6c3.9-21.4,4.3-56.9-4.1-75.1-12-6.6-55.1,14.7-77.4,25.7C488,73.3,470.7,44,454.3,29.4c-21.8.4-64.4,23.9-87,36.1C351.4,49.9,325.8,8.8,305.5.2V.1h-.4V.2c-20.3,8.6-46,49.8-61.8,65.3-22.6-12.2-65.2-35.7-87-36.1C139.9,44,122.6,73.3,112.5,94.1c-22.3-11-65.4-32.3-77.4-25.7-8.4,18.2-8,53.7-4.1,75.1C10,173,32.9,325.1,32.9,325.1L6.2,354.5l33.7,60.7c6.8,12.2,89.3,52.7,126.1,70.3a9.86,9.86,0,0,0,14-10.7l-3.9-21.5a72.3,72.3,0,0,1,5.2-42.8l29.3-64.9c3.7-13.1-2.9-27.3-13.6-29.4l-84-15.7V254.4A16.39,16.39,0,0,1,129.3,238a19.15,19.15,0,0,1,4.1.5l118.9,30.1c9.8,0,16.7,12.3,13.6,24.3l-18.3,95.6c-4.3,16.9,5.4,34.3,19.2,34.3h77c13.8,0,23.5-17.4,19.2-34.3l-18.4-95.6c-3-12,3.9-24.3,13.7-24.3l118.9-30.1a16.38,16.38,0,0,1,19.9,11.9,17.52,17.52,0,0,1,.5,4v46.1l-84,15.7c-10.7,2.1-17.3,16.3-13.6,29.4l29.3,64.8a72.27,72.27,0,0,1,5.2,43l-3.9,21.4a9.89,9.89,0,0,0,14,10.7c36.8-17.6,119.3-58.1,126.1-70.3l33.7-60.7Z"/></g></svg>