<?xml version="1.0" encoding="utf-8"?>
<!-- Generator: Adobe Illustrator 23.0.6, SVG Export Plug-In . SVG Version: 6.00 Build 0)  -->
<svg version="1.1" id="Lager_1" xmlns="http://www.w3.org/2000/svg" xmlns:xlink="http://www.w3.org/1999/xlink" x="0px" y="0px"
	 viewBox="0 0 612 610.6" style="enable-background:new 0 0 612 610.6;" xml:space="preserve">
<style type="text/css">
	.st0{clip-path:url(#SVGID_2_);}
</style>
<g>
	<g>
		<defs>
			<rect id="SVGID_1_" y="41.2" width="612" height="528.2"/>
		</defs>
		<clipPath id="SVGID_2_">
			<use xlink:href="#SVGID_1_"  style="overflow:visible;"/>
		</clipPath>
		<g class="st0">
			<path d="M176.2,570.4c0,0,48.1-28.9,67.4-67.4s13.3-56.6,13.3-56.6s34.9,0,40.3-36.1c17.4,14.4,43.3,18.6,61.4,7.8
				c15,10.8,61.5,10,77-16.3c17.5-29.4,7.4-45.1,4.2-52.3c10.3,3,18.1,1.2,29.5-3.6c11.5,6.6,57.1,24.1,93.9-1.8
				c16.3-11.5,30.7-30.1,30.7-53c18.1-25.3,3-100.5-33.7-114.3c0-15.7-48.7-54.8-75.8-54.2c-9.7-16.9-31.3-37.3-59-37.3
				c-22.3-24.1-63.2-35.6-99.9-30.2c-27.7-13.8-53.6-6.6-69.9-0.3c-27-6.9-47.5-1.4-61.3,4c-36.2,5.4-56.6,17.4-65,33.7
				c-43.4,17.5-74.7,49.9-75.9,87.8c-24,21.7-31.3,45.2-26.5,62.6c-19.8,18.7-27.6,50-8.4,66c-7.2,36.4,16.9,59.3,48.2,60.4
				c-63.2,43.4,54.1,125.2,125.7,120.4C193.6,504.8,190.7,546.3,176.2,570.4L176.2,570.4z"/>
		</g>
	</g>
</g>
</svg>
