<svg xmlns="http://www.w3.org/2000/svg" xmlns:xlink="http://www.w3.org/1999/xlink" viewBox="0 0 935 1210"><defs><clipPath id="a"><rect width="935" height="1210" fill="none"/></clipPath><clipPath id="b"><rect x="161.5" y="340.9" width="612" height="528.2" fill="none"/></clipPath></defs><title>mindthief</title><g clip-path="url(#a)"><path d="M0,0V1210H935V0Z" fill="#fff"/><g clip-path="url(#b)"><path d="M337.7,870.1s48.1-28.9,67.4-67.4,13.3-56.6,13.3-56.6,34.9,0,40.3-36.1c17.4,14.4,43.3,18.6,61.4,7.8,15,10.8,61.5,10,77-16.3,17.5-29.4,7.4-45.1,4.2-52.3,10.3,3,18.1,1.2,29.5-3.6,11.5,6.6,57.1,24.1,93.9-1.8,16.3-11.5,30.7-30.1,30.7-53,18.1-25.3,3-100.5-33.7-114.3,0-15.7-48.7-54.8-75.8-54.2-9.7-16.9-31.3-37.3-59-37.3-22.3-24.1-63.2-35.6-99.9-30.2-27.7-13.8-53.6-6.6-69.9-.3-27-6.9-47.5-1.4-61.3,4-36.2,5.4-56.6,17.4-65,33.7-43.4,17.5-74.7,49.9-75.9,87.8-24,21.7-31.3,45.2-26.5,62.6-19.8,18.7-27.6,50-8.4,66-7.2,36.4,16.9,59.3,48.2,60.4C165,712.4,282.3,794.2,353.9,789.4c1.2,15.1-1.7,56.6-16.2,80.7Z"/></g></g></svg>