<svg id="bc275d75-3931-493d-877f-a6274be4b066" data-name="Lager 1" xmlns="http://www.w3.org/2000/svg" xmlns:xlink="http://www.w3.org/1999/xlink" viewBox="0 0 610.6 610.6"><defs><clipPath id="eb053e2f-5364-44ed-b667-47a73327cb02"><rect x="152" y="1.9" width="306.6" height="606.8" fill="none"/></clipPath></defs><title>quartermaster</title><g clip-path="url(#eb053e2f-5364-44ed-b667-47a73327cb02)"><path d="M319.2,609.6H291.6V296.2a9.56,9.56,0,0,1,9.5-9.5h8.7a9.47,9.47,0,0,1,9.4,9.5Z"/></g><path d="M306.6,177.4l15.2,98.5a1.19,1.19,0,0,0,1.2,1h24.3a1.16,1.16,0,0,0,1.2-1.2v-.1L306.6,3.2a1.15,1.15,0,0,0-1.5-.9,1.18,1.18,0,0,0-.9.9L262.4,275.6a1.21,1.21,0,0,0,1.1,1.3h24.4a1.19,1.19,0,0,0,1.2-1l15.1-98.5a1.22,1.22,0,0,1,2.4,0Z"/><path d="M208.9,596.6H181.4V336.5a9.45,9.45,0,0,1,9.3-9.5h8.8a9.39,9.39,0,0,1,9.4,9.4V596.6Z"/><path d="M196.3,217.6l15.2,98.6a1.19,1.19,0,0,0,1.2,1H237a1.22,1.22,0,0,0,1.2-1.2v-.2L196.3,43.5a1.13,1.13,0,0,0-1.2-1.1,1.11,1.11,0,0,0-1.1,1.1L152.1,315.8a1.25,1.25,0,0,0,1,1.4h24.5a1.19,1.19,0,0,0,1.2-1L194,217.6a1.11,1.11,0,0,1,1.4-.9,1.18,1.18,0,0,1,.9.9Z"/><path d="M429.5,596.6H401.9V336.5a9.56,9.56,0,0,1,9.5-9.5h8.7a9.39,9.39,0,0,1,9.4,9.4V596.6Z"/><g clip-path="url(#eb053e2f-5364-44ed-b667-47a73327cb02)"><path d="M416.9,217.6l15.2,98.6a1.19,1.19,0,0,0,1.2,1h24.3a1.22,1.22,0,0,0,1.2-1.2v-.2L416.9,43.5a1.22,1.22,0,0,0-2.4,0L372.7,315.8a1.24,1.24,0,0,0,.9,1.4h24.6a1.19,1.19,0,0,0,1.2-1l15.1-98.6a1.15,1.15,0,0,1,1.5-.9,1.18,1.18,0,0,1,.9.9Z"/></g></svg>