<svg xmlns="http://www.w3.org/2000/svg" xmlns:xlink="http://www.w3.org/1999/xlink" viewBox="0 0 935 1210"><defs><clipPath id="a"><rect width="935" height="1210" fill="none"/></clipPath><clipPath id="b"><rect x="314.2" y="301.6" width="306.6" height="606.8" fill="none"/></clipPath></defs><title>quartermaster</title><g clip-path="url(#a)"><path d="M0,0V1210H935V0Z" fill="#fff"/><g clip-path="url(#b)"><path d="M481.4,909.3H453.8V595.9a9.56,9.56,0,0,1,9.5-9.5H472a9.47,9.47,0,0,1,9.4,9.5Z"/></g><path d="M468.8,477.1,484,575.6a1.19,1.19,0,0,0,1.2,1h24.3a1.18,1.18,0,0,0,1.2-1.3L468.8,302.9a1.23,1.23,0,0,0-2.4,0L424.6,575.3a1.18,1.18,0,0,0,1.2,1.3h24.3a1.19,1.19,0,0,0,1.2-1l15.1-98.5a1.21,1.21,0,0,1,2.4,0Z"/><path d="M371.1,896.3H343.6V636.2a9.41,9.41,0,0,1,9.4-9.5h8.7a9.41,9.41,0,0,1,9.4,9.5Z"/><path d="M358.5,517.3l15.2,98.6a1.19,1.19,0,0,0,1.2,1h24.3a1.22,1.22,0,0,0,1.2-1.4L358.5,343.2a1.15,1.15,0,0,0-2.3,0L314.3,615.5a1.22,1.22,0,0,0,1.2,1.4h24.3a1.19,1.19,0,0,0,1.2-1l15.2-98.6a1.17,1.17,0,0,1,2.3,0Z"/><path d="M591.7,896.3H564.1V636.2a9.5,9.5,0,0,1,9.5-9.5h8.7a9.41,9.41,0,0,1,9.4,9.5Z"/><g clip-path="url(#b)"><path d="M579.1,517.3l15.2,98.6a1.19,1.19,0,0,0,1.2,1h24.3a1.22,1.22,0,0,0,1.2-1.4L579.1,343.2a1.21,1.21,0,0,0-2.4,0L534.9,615.5a1.17,1.17,0,0,0,1.2,1.4h24.3a1.19,1.19,0,0,0,1.2-1l15.1-98.6a1.23,1.23,0,0,1,2.4,0Z"/></g></g></svg>