<?xml version="1.0" encoding="utf-8"?>
<!-- Generator: Adobe Illustrator 23.0.6, SVG Export Plug-In . SVG Version: 6.00 Build 0)  -->
<svg version="1.1" id="Lager_1" xmlns="http://www.w3.org/2000/svg" xmlns:xlink="http://www.w3.org/1999/xlink" x="0px" y="0px"
	 viewBox="0 0 610.6 610.6" style="enable-background:new 0 0 610.6 610.6;" xml:space="preserve">
<style type="text/css">
	.st0{clip-path:url(#SVGID_2_);}
	.st1{clip-path:url(#SVGID_4_);}
</style>
<g>
	<g>
		<defs>
			<rect id="SVGID_1_" x="152" y="1.9" width="306.6" height="606.8"/>
		</defs>
		<clipPath id="SVGID_2_">
			<use xlink:href="#SVGID_1_"  style="overflow:visible;"/>
		</clipPath>
		<g class="st0">
			<path d="M319.2,609.6h-27.6V296.2c0-5.2,4.3-9.5,9.5-9.5h8.7c5.2,0,9.4,4.3,9.4,9.5V609.6z"/>
		</g>
	</g>
	<path d="M306.6,177.4l15.2,98.5c0.1,0.6,0.6,1,1.2,1h24.3c0.7,0,1.2-0.5,1.2-1.2c0,0,0-0.1,0-0.1L306.6,3.2
		c-0.1-0.7-0.8-1.1-1.5-0.9c-0.5,0.1-0.8,0.5-0.9,0.9l-41.8,272.4c-0.1,0.6,0.4,1.2,1.1,1.3c0,0,0.1,0,0.1,0h24.3
		c0.6,0,1.1-0.4,1.2-1l15.1-98.5c0.1-0.7,0.7-1.1,1.4-1C306.1,176.4,306.5,176.9,306.6,177.4L306.6,177.4z"/>
	<path d="M208.9,596.6h-27.5V336.5c0-5.2,4.1-9.4,9.3-9.5c0,0,0.1,0,0.1,0h8.7c5.2,0,9.4,4.2,9.4,9.4c0,0,0,0.1,0,0.1V596.6z"/>
	<path d="M196.3,217.6l15.2,98.6c0.1,0.6,0.6,1,1.2,1H237c0.7,0,1.2-0.6,1.2-1.2c0-0.1,0-0.1,0-0.2L196.3,43.5
		c0-0.6-0.5-1.1-1.2-1.1c-0.6,0-1.1,0.5-1.1,1.1l-41.9,272.3c-0.1,0.7,0.4,1.3,1,1.4c0.1,0,0.1,0,0.2,0h24.3c0.6,0,1.1-0.4,1.2-1
		l15.2-98.6c0.1-0.6,0.7-1.1,1.4-0.9C195.8,216.8,196.2,217.1,196.3,217.6L196.3,217.6z"/>
	<path d="M429.5,596.6h-27.6V336.5c0-5.2,4.3-9.5,9.5-9.5h8.7c5.2,0,9.4,4.2,9.4,9.4c0,0,0,0.1,0,0.1V596.6z"/>
	<g>
		<defs>
			<rect id="SVGID_3_" x="152" y="1.9" width="306.6" height="606.8"/>
		</defs>
		<clipPath id="SVGID_4_">
			<use xlink:href="#SVGID_3_"  style="overflow:visible;"/>
		</clipPath>
		<g class="st1">
			<path d="M416.9,217.6l15.2,98.6c0.1,0.6,0.6,1,1.2,1h24.3c0.7,0,1.2-0.6,1.2-1.2c0-0.1,0-0.1,0-0.2L416.9,43.5
				c-0.1-0.7-0.7-1.1-1.4-1c-0.5,0.1-1,0.5-1,1l-41.8,272.3c-0.1,0.6,0.3,1.3,0.9,1.4c0.1,0,0.2,0,0.3,0h24.3c0.6,0,1.1-0.4,1.2-1
				l15.1-98.6c0.1-0.7,0.8-1.1,1.5-0.9C416.4,216.8,416.8,217.1,416.9,217.6L416.9,217.6z"/>
		</g>
	</g>
</g>
</svg>
