<?xml version="1.0" encoding="utf-8"?>
<!-- Generator: Adobe Illustrator 23.0.6, SVG Export Plug-In . SVG Version: 6.00 Build 0)  -->
<svg version="1.1" id="Lager_1" xmlns="http://www.w3.org/2000/svg" xmlns:xlink="http://www.w3.org/1999/xlink" x="0px" y="0px"
	 viewBox="0 0 610.6 610.6" style="enable-background:new 0 0 610.6 610.6;" xml:space="preserve">
<style type="text/css">
	.st0{clip-path:url(#SVGID_2_);}
	.st1{clip-path:url(#SVGID_4_);}
	.st2{clip-path:url(#SVGID_6_);}
</style>
<g>
	<path d="M464.8,68.4c-0.9-0.2-1.9,0-2.6,0.6L178.9,307.8c-1.8,1.6-2.8,4-2.5,6.4l10.6,77.3c0.4,2.6-0.3,5.3-2,7.4L145.5,451
		l12.2,9.3l179.8-223.2c0.2-0.2,0.5-0.2,0.6-0.1c0.2,0.2,0.2,0.5,0.1,0.7l0,0l-75.3,105.1l103.7-51.6L466.8,72.5
		c0.7-1.5,0-3.3-1.6-3.9C465.1,68.5,465,68.4,464.8,68.4z"/>
	<path d="M117.4,473.2l-2.2-0.8l12.8,4.7c1.7-0.9,3.5-1.7,5.2-2.5l6.7-18.2c-5.6-0.9-11.3-0.9-16.9,0L117.4,473.2z"/>
	<path d="M129,438.1c5.3-0.1,10.6,0.3,15.8,1.3l2.4-3.3l7-19.2c0.9-2.4,2.8-4.4,5.1-5.6l10.5-4.9l9.2-12.1c0.4-0.5,0.6-1.1,0.5-1.7
		l-10.3-75.5L129,438.1z"/>
	<g>
		<defs>
			<rect id="SVGID_1_" x="20.4" y="0.8" width="569.8" height="609"/>
		</defs>
		<clipPath id="SVGID_2_">
			<use xlink:href="#SVGID_1_"  style="overflow:visible;"/>
		</clipPath>
		<g class="st0">
			<path d="M109.2,400.6L90.9,451c6.4-4.5,13.4-7.9,20.9-10l95-240.1c0.1-0.2,0.3-0.4,0.5-0.3c0.2,0.1,0.4,0.3,0.3,0.5
				c0,0,0,0.1,0,0.1l-33.3,100.7l77.3-65.3L281.4,5.3c0.2-1.6-0.9-3.1-2.5-3.3c-1.1-0.1-2.2,0.4-2.9,1.4L76.4,315.5
				c-1.4,2-1.5,4.6-0.5,6.8l33,70.7C110,395.4,110.1,398.1,109.2,400.6z"/>
			<path d="M587.2,190.8c-0.7-0.2-1.4-0.2-2,0.2L253.4,356c-2.2,1.1-3.6,3.2-3.9,5.6l-8,77.6c-0.3,2.7-1.6,5.1-3.7,6.8l-50.7,41.2
				l9.6,11.9l227.5-174.3c0.2-0.2,0.5-0.1,0.7,0c0.2,0.2,0.1,0.5-0.1,0.7l0,0L207.5,512.4l9.7,11.9l50.8-41.2c2-1.7,4.7-2.5,7.3-2.2
				l77.6,8c2.4,0.3,4.8-0.7,6.3-2.6l229.6-290.9c1-1.3,0.8-3.1-0.5-4.1C588,191.1,587.6,190.9,587.2,190.8z"/>
		</g>
	</g>
	<path d="M139.7,561.2c4.5-5.5,7.9-11.7,10.3-18.3c6.2-16.9,4.8-35.7-3.8-51.5c-6.6,1.9-12.8,5.1-18.1,9.4c-0.9,0.7-1.8,1.5-2.7,2.4
		c5.2,9.7,6,21.2,2.2,31.5c-2.9,8.2-8.6,15.2-16.1,19.8c0.4,1.3,0.9,2.6,1.4,3.9c1.6,0.6,3.2,1.1,4.9,1.6
		C124.9,561.9,132.4,562.3,139.7,561.2L139.7,561.2z"/>
	<path d="M111.8,488.4c1.1-1.1,2.3-2.2,3.6-3.2c5.4-4.3,11.3-7.9,17.7-10.5c-6-5.6-13.1-9.8-20.8-12.6c-1.2-0.4-2.5-0.8-3.7-1.2
		c-7.5,3.7-14.1,9-19.2,15.7c-1.5,1.9-2.8,4-3.9,6.1c6.3-1,12.7-0.3,18.7,1.9C106.9,485.6,109.4,486.9,111.8,488.4L111.8,488.4z"/>
	<g>
		<defs>
			<rect id="SVGID_3_" x="20.4" y="0.8" width="569.8" height="609"/>
		</defs>
		<clipPath id="SVGID_4_">
			<use xlink:href="#SVGID_3_"  style="overflow:visible;"/>
		</clipPath>
		<g class="st1">
			<path d="M95.8,569.6c-2.4-1.4-4.7-3-6.9-4.6c-2.2-1.7-4.3-3.5-6.3-5.4c-1.7-0.4-3.4-0.8-5.1-1.4C57.2,550.8,46.7,528.4,54,508
				c1.9-5,4.7-9.6,8.4-13.5c2.2-10.3,6.6-20.1,13-28.5c1.9-2.5,3.9-4.8,6.1-7c-34.4,5.2-58.1,37.3-53,71.8
				c3.4,22.8,19.1,41.9,40.8,49.8c11.1,4.1,23.1,4.9,34.6,2.4C100.7,578.9,97.9,574.4,95.8,569.6L95.8,569.6z"/>
		</g>
	</g>
	<path d="M178.4,471.8c3,0.9,6,2,8.9,3.1l35.8-47c1.6-2.1,4-3.5,6.6-3.9l5.8-0.8l5.1-49.3l-69.1,96.5
		C173.8,470.7,176.1,471.2,178.4,471.8L178.4,471.8z"/>
	<path d="M165.8,489.9c10.4,18.9,3.5,42.6-15.3,53.1c-13,7.1-28.9,6.4-41.1-2.1c0.2,10.8,3.9,21.2,10.4,29.8
		c34.2,6.5,67.2-16,73.7-50.2c1.1-5.7,1.4-11.6,0.9-17.4c-6-5.6-13.3-9.7-21.3-11.8C170.7,490.6,168.3,490.2,165.8,489.9z"/>
	<path d="M93.3,516.6c-4.3-21.2,9.4-41.8,30.6-46.2c6.4-1.3,13.1-1,19.3,1c11.6-2.8,23.7-2.6,35.2,0.5c1.9,0.4,3.7,1,5.5,1.7
		c-19.5-28.8-58.6-36.4-87.5-16.9S60,515.3,79.5,544.2c3.3,4.9,7.3,9.3,11.9,13.1C88.1,543.8,88.8,529.7,93.3,516.6z"/>
	<g>
		<defs>
			<rect id="SVGID_5_" x="20.4" y="0.8" width="569.8" height="609"/>
		</defs>
		<clipPath id="SVGID_6_">
			<use xlink:href="#SVGID_5_"  style="overflow:visible;"/>
		</clipPath>
		<g class="st2">
			<path d="M111,579.8c22,27,61.6,31.1,88.6,9.1c27-22,31.1-61.6,9.1-88.6c-21.9-27-61.5-31.1-88.5-9.2c-27,21.8-31.2,61.4-9.4,88.5
				C110.9,579.6,110.9,579.7,111,579.8 M190.3,515.4c13.6,16.8,11,41.4-5.8,55.1c-16.8,13.6-41.4,11-55.1-5.8
				c-13.6-16.8-11-41.4,5.8-55.1c0,0,0,0,0.1,0C152.1,496,176.7,498.6,190.3,515.4z"/>
		</g>
	</g>
</g>
</svg>
