<svg xmlns="http://www.w3.org/2000/svg" xmlns:xlink="http://www.w3.org/1999/xlink" viewBox="0 0 935 1210"><defs><clipPath id="a"><rect width="935" height="1210" fill="none"/></clipPath><clipPath id="b"><rect x="182.6" y="300.5" width="569.8" height="609" fill="none"/></clipPath></defs><title>scoundrel</title><g clip-path="url(#a)"><path d="M627,368.1a2.86,2.86,0,0,0-2.6.6L341.1,607.5a7.42,7.42,0,0,0-2.5,6.4l10.6,77.3a9.38,9.38,0,0,1-2,7.4l-39.5,52.1,12.2,9.3L499.7,536.8a.46.46,0,1,1,.7.6L425.1,642.5l103.7-51.6L629,372.2A3,3,0,0,0,627,368.1Z"/><path d="M279.6,772.9l-2.2-.8,12.8,4.7c1.7-.9,3.5-1.7,5.2-2.5l6.7-18.2a53.22,53.22,0,0,0-16.9,0Z"/><path d="M291.2,737.8a76.62,76.62,0,0,1,15.8,1.3l2.4-3.3,7-19.2a10.33,10.33,0,0,1,5.1-5.6l10.5-4.9,9.2-12.1a2.16,2.16,0,0,0,.5-1.7l-10.3-75.5Z"/><g clip-path="url(#b)"><path d="M271.4,700.3l-18.3,50.4a69.4,69.4,0,0,1,20.9-10l95-240.1a.43.43,0,1,1,.8.3L336.5,601.6l77.3-65.3L443.6,305a2.93,2.93,0,0,0-5.4-1.9L238.6,615.2a6.89,6.89,0,0,0-.5,6.8l33,70.7A10,10,0,0,1,271.4,700.3Z"/><path d="M749.4,490.5a2.4,2.4,0,0,0-2,.2l-331.8,165a7.17,7.17,0,0,0-3.9,5.6l-8,77.6a10.09,10.09,0,0,1-3.7,6.8l-50.7,41.2,9.6,11.9L586.4,624.5a.46.46,0,1,1,.6.7L369.7,812.1l9.7,11.9,50.8-41.2a9.67,9.67,0,0,1,7.3-2.2l77.6,8a7,7,0,0,0,6.3-2.6L751,495.1A2.89,2.89,0,0,0,749.4,490.5Z"/></g><path d="M301.9,860.9a61.9,61.9,0,0,0,10.3-18.3,62.71,62.71,0,0,0-3.8-51.5,51.38,51.38,0,0,0-18.1,9.4,30.84,30.84,0,0,0-2.7,2.4,38.73,38.73,0,0,1,2.2,31.5,38.31,38.31,0,0,1-16.1,19.8c.4,1.3.9,2.6,1.4,3.9,1.6.6,3.2,1.1,4.9,1.6a54.18,54.18,0,0,0,21.9,1.2Z"/><path d="M274,788.1a37.28,37.28,0,0,1,3.6-3.2,70.71,70.71,0,0,1,17.7-10.5,60.73,60.73,0,0,0-20.8-12.6c-1.2-.4-2.5-.8-3.7-1.2a53.71,53.71,0,0,0-19.2,15.7,44.77,44.77,0,0,0-3.9,6.1,37.69,37.69,0,0,1,18.7,1.9,41.5,41.5,0,0,1,7.6,3.8Z"/><g clip-path="url(#b)"><path d="M258,869.3a82.7,82.7,0,0,1-6.9-4.6,66.18,66.18,0,0,1-6.3-5.4,42.55,42.55,0,0,1-5.1-1.4,39.24,39.24,0,0,1-23.5-50.2,40.55,40.55,0,0,1,8.4-13.5,71,71,0,0,1,13-28.5,68,68,0,0,1,6.1-7,63.06,63.06,0,0,0-12.2,121.6,62.37,62.37,0,0,0,34.6,2.4,63.8,63.8,0,0,1-8.1-13.4Z"/></g><path d="M340.6,771.5c3,.9,6,2,8.9,3.1l35.8-47a10.3,10.3,0,0,1,6.6-3.9l5.8-.8,5.1-49.3-69.1,96.5a56.25,56.25,0,0,1,6.9,1.4Z"/><path d="M328,789.6a39.06,39.06,0,0,1-56.4,51A51.07,51.07,0,0,0,282,870.4a63.07,63.07,0,0,0,74.6-67.6A49.79,49.79,0,0,0,335.3,791a44.81,44.81,0,0,0-7.3-1.4Z"/><path d="M255.5,816.3a39.14,39.14,0,0,1,49.9-45.2,71.16,71.16,0,0,1,35.2.5,35,35,0,0,1,5.5,1.7A63,63,0,1,0,253.6,857a72.27,72.27,0,0,1,1.9-40.7Z"/><g clip-path="url(#b)"><path d="M273.2,879.5a63,63,0,1,0,9.2-88.7,62.91,62.91,0,0,0-9.2,88.7m79.3-64.4a39.14,39.14,0,1,1-55-5.8,39.16,39.16,0,0,1,55,5.8Z"/></g></g></svg>