<svg id="e76c5d7e-3b16-475b-8219-606d95a45c89" data-name="Lager 1" xmlns="http://www.w3.org/2000/svg" xmlns:xlink="http://www.w3.org/1999/xlink" viewBox="0 0 610.6 610.6"><defs><clipPath id="aa726df8-e56a-4abc-8cb9-fdbd8ec6c79c"><rect x="20.4" y="0.8" width="569.8" height="609" fill="none"/></clipPath></defs><title>scoundrel</title><path d="M464.8,68.4a3,3,0,0,0-2.6.6L178.9,307.8a7.42,7.42,0,0,0-2.5,6.4L187,391.5a9.48,9.48,0,0,1-2,7.4L145.5,451l12.2,9.3L337.5,237.1a.48.48,0,0,1,.6-.1.62.62,0,0,1,.1.7h0L262.9,342.8l103.7-51.6L466.8,72.5a2.86,2.86,0,0,0-1.6-3.9A.52.52,0,0,0,464.8,68.4Z"/><path d="M117.4,473.2l-2.2-.8,12.8,4.7c1.7-.9,3.5-1.7,5.2-2.5l6.7-18.2a53.23,53.23,0,0,0-16.9,0Z"/><path d="M129,438.1a76.06,76.06,0,0,1,15.8,1.3l2.4-3.3,7-19.2a10.72,10.72,0,0,1,5.1-5.6l10.5-4.9,9.2-12.1a2.16,2.16,0,0,0,.5-1.7l-10.3-75.5Z"/><g clip-path="url(#aa726df8-e56a-4abc-8cb9-fdbd8ec6c79c)"><path d="M109.2,400.6,90.9,451a68.28,68.28,0,0,1,20.9-10l95-240.1c.1-.2.3-.4.5-.3s.4.3.3.5v.1L174.3,301.9l77.3-65.3L281.4,5.3A2.93,2.93,0,0,0,278.9,2,3.18,3.18,0,0,0,276,3.4L76.4,315.5a6.89,6.89,0,0,0-.5,6.8l33,70.7A10,10,0,0,1,109.2,400.6Z"/><path d="M587.2,190.8a2.33,2.33,0,0,0-2,.2L253.4,356a7.17,7.17,0,0,0-3.9,5.6l-8,77.6a10.09,10.09,0,0,1-3.7,6.8l-50.7,41.2,9.6,11.9L424.2,324.8c.2-.2.5-.1.7,0a.49.49,0,0,1-.1.7h0L207.5,512.4l9.7,11.9L268,483.1a9.67,9.67,0,0,1,7.3-2.2l77.6,8a7,7,0,0,0,6.3-2.6L588.8,195.4a2.89,2.89,0,0,0-.5-4.1A3.7,3.7,0,0,0,587.2,190.8Z"/></g><path d="M139.7,561.2a63.35,63.35,0,0,0,6.5-69.8,51.32,51.32,0,0,0-18.1,9.4,29.11,29.11,0,0,0-2.7,2.4,38.89,38.89,0,0,1-13.9,51.3c.4,1.3.9,2.6,1.4,3.9,1.6.6,3.2,1.1,4.9,1.6a53.9,53.9,0,0,0,21.9,1.2Z"/><path d="M111.8,488.4a37.28,37.28,0,0,1,3.6-3.2,72,72,0,0,1,17.7-10.5,60.8,60.8,0,0,0-20.8-12.6c-1.2-.4-2.5-.8-3.7-1.2a54.09,54.09,0,0,0-19.2,15.7,39.37,39.37,0,0,0-3.9,6.1,37.25,37.25,0,0,1,18.7,1.9,41.5,41.5,0,0,1,7.6,3.8Z"/><g clip-path="url(#aa726df8-e56a-4abc-8cb9-fdbd8ec6c79c)"><path d="M95.8,569.6a82.7,82.7,0,0,1-6.9-4.6,81.43,81.43,0,0,1-6.3-5.4,48.37,48.37,0,0,1-5.1-1.4A39.29,39.29,0,0,1,54,508a40.34,40.34,0,0,1,8.4-13.5,71.82,71.82,0,0,1,13-28.5,68,68,0,0,1,6.1-7A63,63,0,0,0,69.3,580.6a61.88,61.88,0,0,0,34.6,2.4,62.94,62.94,0,0,1-8.1-13.4Z"/></g><path d="M178.4,471.8c3,.9,6,2,8.9,3.1l35.8-47a10.3,10.3,0,0,1,6.6-3.9l5.8-.8,5.1-49.3-69.1,96.5a56.25,56.25,0,0,1,6.9,1.4Z"/><path d="M165.8,489.9a39,39,0,0,1-56.4,51,51,51,0,0,0,10.4,29.8,63.21,63.21,0,0,0,74.6-67.6,49.79,49.79,0,0,0-21.3-11.8A44.81,44.81,0,0,0,165.8,489.9Z"/><path d="M93.3,516.6a39.25,39.25,0,0,1,30.6-46.2,38.28,38.28,0,0,1,19.3,1,71.11,71.11,0,0,1,35.2.5,35,35,0,0,1,5.5,1.7A63,63,0,1,0,79.5,544.2a61.67,61.67,0,0,0,11.9,13.1A72.32,72.32,0,0,1,93.3,516.6Z"/><g clip-path="url(#aa726df8-e56a-4abc-8cb9-fdbd8ec6c79c)"><path d="M111,579.8a57.32,57.32,0,1,0-.2-.2c.1,0,.1.1.2.2m79.3-64.4a39.18,39.18,0,1,1-55.1-5.8h.1A39.08,39.08,0,0,1,190.3,515.4Z"/></g></svg>