<svg id="b7f93025-0a10-4259-aa91-bb4776c041ce" data-name="Lager 1" xmlns="http://www.w3.org/2000/svg" xmlns:xlink="http://www.w3.org/1999/xlink" viewBox="0 0 610.6 610.9"><defs><clipPath id="b6e8dcab-e702-4d39-a665-a312e25b256e"><rect x="0.4" y="0.8" width="609.8" height="609.1" fill="none"/></clipPath></defs><title>spellweaver</title><g clip-path="url(#b6e8dcab-e702-4d39-a665-a312e25b256e)"><path d="M610.5,385.4c-77.3,17.7-163.6-2.2-225.5-53,88.5-28.8,157-101.7,192.4-185.7C535.3,213,460.2,259.4,380.6,268.3c39.8-84,42-183.5,4.4-267.5,17.7,77.4-2.2,163.6-53,225.5C303.3,137.8,230.3,69.3,146.3,34,212.6,76,259,151.1,267.9,230.7c-84-39.8-183.5-42-267.5-4.4,77.4-17.7,163.6,2.2,225.5,53C137.5,308.1,69,381,33.6,465c42-66.3,117.1-112.7,196.7-121.6-39.8,84-42,183.5-4.4,267.5-17.7-77.4,2.2-163.6,53-225.5,28.8,88.4,101.7,156.9,185.7,192.3C398.3,535.7,351.9,460.6,343,381c84,39.8,183.5,42,267.5,4.4m-305-50.8c-6.7,26.5-2.2,55.2,13.2,77.4-22.1-22.2-37.5-53.1-33.1-86.3-4.4,4.4-8.9,6.7-15.5,11.1-17.7,13.2-26.5,30.9-28.7,53,0-30.9,11-64.1,35.3-84-26.5-6.6-55.2-2.2-77.3,13.3,22.1-22.1,53-37.6,86.2-33.2-4.4-4.4-6.7-8.8-11.1-15.4-13.3-17.7-30.9-26.5-53-28.8,30.9,0,64.1,11.1,84,35.4,6.6-26.5,2.2-55.3-13.3-77.3,22.1,22,37.6,53,33.2,86.1,4.4-4.4,8.8-6.6,15.4-11,17.7-13.3,26.5-30.9,28.8-53.1,0,31-11.1,64.1-35.4,84,26.5,6.7,55.3,2.3,77.4-13.2-22.1,22.1-53.1,37.5-86.2,33.1,4.4,4.4,6.6,8.9,11,15.5,13.3,17.7,30.9,26.5,53.1,28.7-31,0-64.1-11-84-35.3Z"/></g></svg>