<svg id="b6db28e6-41cd-494c-8c73-2736a493a8be" data-name="Lager 1" xmlns="http://www.w3.org/2000/svg" xmlns:xlink="http://www.w3.org/1999/xlink" viewBox="0 0 611.2 611.9"><defs><clipPath id="bafef2bd-3d9b-4005-827b-a1dcd95e3238"><rect x="1.1" width="609.6" height="610" fill="none"/></clipPath></defs><title>summoner</title><path d="M305.5,60.7C170.6,60.7,60.7,170.5,60.7,305.5S170.6,550.3,305.5,550.3,550.4,440.5,550.4,305.5,440.5,60.7,305.5,60.7m11.8,416A91.41,91.41,0,1,0,192,353.7c5-58.4,54-104.3,113.5-104.3,62.9,0,114.1,51.1,114.1,114A114.17,114.17,0,0,1,317.3,476.7M212.6,397.1a59.85,59.85,0,1,1,59.9,59.8,59.79,59.79,0,0,1-59.9-59.8m92.9-179.5c-80.3,0-145.7,65.3-145.7,145.7,0,58.2,34.4,108.4,83.9,131.7-78.8-13.7-138.9-82.4-138.9-165,0-92.5,75.2-167.7,167.7-167.7,82.9,0,151.8,60.6,165.1,139.9a145.57,145.57,0,0,0-132.1-84.6m42.3,296.8c72.7-29.8,124-101.2,124-184.4,0-110-89.4-199.4-199.3-199.4a199.15,199.15,0,0,0-154.1,73C154.6,137.4,224.9,92.4,305.5,92.4c117.6,0,213.2,95.6,213.2,213.1,0,103.1-73.5,189.2-170.9,208.9Z"/><g clip-path="url(#bafef2bd-3d9b-4005-827b-a1dcd95e3238)"><path d="M305.5,0C137.1,0,0,137,0,305.5S137.1,611.1,305.5,611.1,611.1,474,611.1,305.5,474,0,305.5,0m0,579.4c-151,0-273.8-122.9-273.8-273.9S154.5,31.6,305.5,31.6,579.4,154.5,579.4,305.5,456.6,579.4,305.5,579.4Z"/></g></svg>