<?xml version="1.0" encoding="utf-8"?>
<!-- Generator: Adobe Illustrator 23.0.6, SVG Export Plug-In . SVG Version: 6.00 Build 0)  -->
<svg version="1.1" id="Lager_1" xmlns="http://www.w3.org/2000/svg" xmlns:xlink="http://www.w3.org/1999/xlink" x="0px" y="0px"
	 viewBox="0 0 611.2 611.9" style="enable-background:new 0 0 611.2 611.9;" xml:space="preserve">
<style type="text/css">
	.st0{clip-path:url(#SVGID_2_);}
</style>
<g>
	<path d="M305.5,60.7c-134.9,0-244.8,109.8-244.8,244.8s109.9,244.8,244.8,244.8s244.9-109.8,244.9-244.8S440.5,60.7,305.5,60.7
		 M317.3,476.7c44-24.8,59.6-80.5,34.8-124.5c-24.8-44-80.5-59.6-124.5-34.8c-15.1,8.5-27.4,21.1-35.6,36.3
		c5-58.4,54-104.3,113.5-104.3c62.9,0,114.1,51.1,114.1,114C419.5,421.7,375.4,470.6,317.3,476.7 M212.6,397.1
		c0-33.1,26.7-59.9,59.8-59.9s59.9,26.7,59.9,59.8c0,33.1-26.7,59.9-59.8,59.9C239.5,456.8,212.7,430.1,212.6,397.1 M305.5,217.6
		c-80.3,0-145.7,65.3-145.7,145.7c0,58.2,34.4,108.4,83.9,131.7c-78.8-13.7-138.9-82.4-138.9-165c0-92.5,75.2-167.7,167.7-167.7
		c82.9,0,151.8,60.6,165.1,139.9C413.8,250.7,362.3,217.6,305.5,217.6 M347.8,514.4c72.7-29.8,124-101.2,124-184.4
		c0-110-89.4-199.4-199.3-199.4c-59.7,0-116.3,26.8-154.1,73c36.2-66.2,106.5-111.2,187.1-111.2c117.6,0,213.2,95.6,213.2,213.1
		C518.7,408.6,445.2,494.7,347.8,514.4L347.8,514.4z"/>
	<g>
		<defs>
			<rect id="SVGID_1_" x="1.1" width="609.6" height="610"/>
		</defs>
		<clipPath id="SVGID_2_">
			<use xlink:href="#SVGID_1_"  style="overflow:visible;"/>
		</clipPath>
		<g class="st0">
			<path d="M305.5,0C137.1,0,0,137,0,305.5s137.1,305.6,305.5,305.6S611.1,474,611.1,305.5S474,0,305.5,0 M305.5,579.4
				c-151,0-273.8-122.9-273.8-273.9S154.5,31.6,305.5,31.6s273.9,122.9,273.9,273.9S456.6,579.4,305.5,579.4L305.5,579.4z"/>
		</g>
	</g>
</g>
</svg>
