<svg xmlns="http://www.w3.org/2000/svg" xmlns:xlink="http://www.w3.org/1999/xlink" viewBox="0 0 935 1210"><defs><clipPath id="a"><rect width="935" height="1210" fill="none"/></clipPath><clipPath id="b"><rect x="162.7" y="298.4" width="609.6" height="610" fill="none"/></clipPath></defs><title>summoner</title><g clip-path="url(#a)"><path d="M0,0V1210H935V0Z" fill="#fff"/><path d="M467.1,359.1c-134.9,0-244.8,109.8-244.8,244.8S332.2,848.7,467.1,848.7,712,738.9,712,603.9,602.1,359.1,467.1,359.1m11.8,416A91.43,91.43,0,1,0,353.6,652c5-58.4,54-104.3,113.5-104.3,62.9,0,114.1,51.1,114.1,114A114.17,114.17,0,0,1,478.9,775.1M374.2,695.5a59.85,59.85,0,1,1,59.9,59.8,60,60,0,0,1-59.9-59.8M467.1,516c-80.3,0-145.7,65.3-145.7,145.7,0,58.2,34.4,108.4,83.9,131.7-78.8-13.7-138.9-82.4-138.9-165,0-92.5,75.2-167.7,167.7-167.7,82.9,0,151.8,60.6,165.1,139.9A145.55,145.55,0,0,0,467.1,516m42.3,296.8c72.7-29.8,124-101.2,124-184.4,0-110-89.4-199.4-199.3-199.4A199.23,199.23,0,0,0,280,502c36.2-66.2,106.5-111.2,187.1-111.2,117.6,0,213.2,95.6,213.2,213.1,0,103.1-73.5,189.2-170.9,208.9Z"/><g clip-path="url(#b)"><path d="M467.1,298.4c-168.4,0-305.5,137-305.5,305.5S298.7,909.5,467.1,909.5,772.7,772.4,772.7,603.9,635.6,298.4,467.1,298.4m0,579.4c-151,0-273.8-122.9-273.8-273.9S316.1,330,467.1,330,741,452.9,741,603.9,618.2,877.8,467.1,877.8Z"/></g></g></svg>