<svg xmlns="http://www.w3.org/2000/svg" xmlns:xlink="http://www.w3.org/1999/xlink" viewBox="0 0 935 1210"><defs><clipPath id="a"><rect width="935" height="1210" fill="none"/></clipPath><clipPath id="b"><rect x="162.9" y="300.4" width="609.2" height="609.2" fill="none"/></clipPath></defs><title>tinkerer</title><g clip-path="url(#a)"><path d="M0,0V1210H935V0Z" fill="#fff"/><path d="M574.9,433.3,473.2,402.9c-8.3-2.5-13-10.1-10.2-16.2L499.8,308c2.4-5.2,9.5-7.6,16.5-5.5l77.5,23.2c7,2.1,11.7,8,10.9,13.7l-12.5,85.9c-1,6.7-9.1,10.5-17.3,8Z"/><path d="M421.8,408.1l-93.4,50.5c-7.6,4-16.3,2.1-18.6-4.3l-29.7-81.6c-1.9-5.4,1.4-12.2,7.9-15.6l71.1-38.5c6.5-3.4,14-2.6,17.4,2l52,69.7c4,5.4.9,13.7-6.7,17.8Z"/><path d="M295.8,498.6,265.4,600.3c-2.5,8.3-10.1,13-16.2,10.1l-78.7-36.7c-5.2-2.4-7.6-9.6-5.5-16.6l23.2-77.4c2.1-7.1,8-11.7,13.7-10.9l86,12.4c6.7,1,10.4,9.1,7.9,17.4Z"/><path d="M270.7,651.6l50.4,93.5c4.1,7.6,2.1,16.3-4.3,18.6l-81.6,29.7c-5.4,1.9-12.1-1.4-15.6-7.9l-38.5-71.2c-3.4-6.4-2.6-13.9,2.1-17.3l69.6-52C258.2,641,266.5,644.1,270.7,651.6Z"/><g clip-path="url(#b)"><path d="M361.1,777.7l101.7,30.4c8.3,2.5,13,10,10.2,16.1L436.2,903c-2.4,5.2-9.6,7.5-16.6,5.4l-77.4-23.1c-7.1-2.1-11.7-8-10.9-13.7l12.5-86c.9-6.7,9-10.4,17.3-7.9Z"/></g><path d="M514.2,802.8l93.4-50.4c7.6-4.1,16.3-2.1,18.6,4.3l29.7,81.6c1.9,5.4-1.4,12.1-7.9,15.6l-71.2,38.4c-6.4,3.5-13.9,2.6-17.3-2l-52-69.6c-4-5.4-.9-13.8,6.7-17.9Z"/><g clip-path="url(#b)"><path d="M640.2,712.4l30.4-101.8c2.5-8.2,10-13,16.2-10.1l78.7,36.7c5.2,2.5,7.5,9.6,5.5,16.6l-23.2,77.5c-2.1,7-8,11.7-13.7,10.9l-86-12.5c-6.7-1-10.4-9.1-7.9-17.3Z"/></g><path d="M665.3,559.3l-50.4-93.5c-4.1-7.5-2.1-16.2,4.3-18.5l81.6-29.7c5.4-2,12.1,1.4,15.6,7.9l38.4,71.1c3.5,6.5,2.6,13.9-2,17.4l-69.6,51.9c-5.4,4.1-13.8,1-17.9-6.6Z"/><path d="M514.6,449.7C428.7,424.1,337.9,473,312.2,558.9s23.4,176.7,109.2,202.3S598.1,737.9,623.7,652,600.4,475.4,514.6,449.7m-77.8,260a108.82,108.82,0,1,1,135.5-73.1,108.78,108.78,0,0,1-135.5,73.1Z"/><path d="M533.7,385.5c-121.4-36.3-249.3,32.8-285.6,154.2s32.7,249.4,154.2,285.7,249.3-32.7,285.6-154.2S655.2,421.9,533.7,385.5M412.8,790.1C311,759.6,253,652.1,283.4,550.3s138-159.8,239.8-129.4S683,558.9,652.6,660.6,514.6,820.5,412.8,790.1Z"/></g></svg>