<svg id="eedbdca2-ffc9-4fe5-bf27-16c6f338bdde" data-name="Lager 1" xmlns="http://www.w3.org/2000/svg" xmlns:xlink="http://www.w3.org/1999/xlink" viewBox="0 0 610.6 610.6"><defs><clipPath id="bc92da7c-bec5-49fa-a266-67000ee4719f"><rect x="0.7" y="0.7" width="609.2" height="609.2" fill="none"/></clipPath></defs><title>tinkerer</title><path d="M412.7,133.6,311,103.2c-8.3-2.5-13-10.1-10.2-16.2L337.6,8.3c2.4-5.2,9.5-7.6,16.5-5.5L431.6,26c7,2.1,11.7,8,10.9,13.7L430,125.6c-1,6.7-9.1,10.5-17.3,8Z"/><path d="M259.6,108.4l-93.4,50.5c-7.6,4-16.3,2.1-18.6-4.3L117.9,73c-1.9-5.4,1.4-12.2,7.9-15.6l71.1-38.5c6.5-3.4,14-2.6,17.4,2l52,69.7c4,5.4.9,13.7-6.7,17.8Z"/><path d="M133.6,198.9,103.2,300.6c-2.5,8.3-10.1,13-16.2,10.1L8.3,274c-5.2-2.4-7.6-9.6-5.5-16.6L26,180c2.1-7.1,8-11.7,13.7-10.9l86,12.4c6.7,1,10.4,9.1,7.9,17.4Z"/><path d="M108.5,351.9l50.4,93.5c4.1,7.6,2.1,16.3-4.3,18.6L73,493.7c-5.4,1.9-12.1-1.4-15.6-7.9L18.9,414.6c-3.4-6.4-2.6-13.9,2.1-17.3l69.6-52C96,341.3,104.3,344.4,108.5,351.9Z"/><g clip-path="url(#bc92da7c-bec5-49fa-a266-67000ee4719f)"><path d="M198.9,478l101.7,30.4c8.3,2.5,13,10,10.2,16.1L274,603.3c-2.4,5.2-9.6,7.5-16.6,5.4L180,585.6c-7.1-2.1-11.7-8-10.9-13.7l12.5-86C182.5,479.2,190.6,475.5,198.9,478Z"/></g><path d="M352,503.1l93.4-50.4c7.6-4.1,16.3-2.1,18.6,4.3l29.7,81.6c1.9,5.4-1.4,12.1-7.9,15.6l-71.2,38.4c-6.4,3.5-13.9,2.6-17.3-2l-52-69.6c-4-5.4-.9-13.8,6.7-17.9Z"/><g clip-path="url(#bc92da7c-bec5-49fa-a266-67000ee4719f)"><path d="M478,412.7l30.4-101.8c2.5-8.2,10-13,16.2-10.1l78.7,36.7c5.2,2.5,7.5,9.6,5.5,16.6l-23.2,77.5c-2.1,7-8,11.7-13.7,10.9l-86-12.5c-6.7-1-10.4-9.1-7.9-17.3Z"/></g><path d="M503.1,259.6l-50.4-93.5c-4.1-7.5-2.1-16.2,4.3-18.5l81.6-29.7c5.4-2,12.1,1.4,15.6,7.9l38.4,71.1c3.5,6.5,2.6,13.9-2,17.4L521,266.2c-5.4,4.1-13.8,1-17.9-6.6Z"/><path d="M352.4,150C266.5,124.4,175.7,173.3,150,259.2s23.4,176.7,109.2,202.3,176.7-23.3,202.3-109.2S438.2,175.7,352.4,150M274.6,410a161.95,161.95,0,1,1,.2,0Z"/><path d="M371.5,85.8C250.1,49.5,122.2,118.6,85.9,240s32.7,249.4,154.2,285.7S489.4,493,525.7,371.5,493,122.2,371.5,85.8M250.6,490.4c-101.8-30.5-159.8-138-129.4-239.8S259.2,90.8,361,121.2s159.8,138,129.4,239.7S352.4,520.8,250.6,490.4Z"/></svg>