<?xml version="1.0" encoding="utf-8"?>
<!-- Generator: Adobe Illustrator 23.0.6, SVG Export Plug-In . SVG Version: 6.00 Build 0)  -->
<svg version="1.1" id="Lager_1" xmlns="http://www.w3.org/2000/svg" xmlns:xlink="http://www.w3.org/1999/xlink" x="0px" y="0px"
	 viewBox="0 0 610.6 610.6" style="enable-background:new 0 0 610.6 610.6;" xml:space="preserve">
<style type="text/css">
	.st0{clip-path:url(#SVGID_2_);}
	.st1{clip-path:url(#SVGID_4_);}
</style>
<g>
	<path d="M412.7,133.6L311,103.2c-8.3-2.5-13-10.1-10.2-16.2l36.8-78.7c2.4-5.2,9.5-7.6,16.5-5.5L431.6,26c7,2.1,11.7,8,10.9,13.7
		L430,125.6C429,132.3,420.9,136.1,412.7,133.6L412.7,133.6z"/>
	<path d="M259.6,108.4l-93.4,50.5c-7.6,4-16.3,2.1-18.6-4.3L117.9,73c-1.9-5.4,1.4-12.2,7.9-15.6l71.1-38.5c6.5-3.4,14-2.6,17.4,2
		l52,69.7C270.3,96,267.2,104.3,259.6,108.4L259.6,108.4z"/>
	<path d="M133.6,198.9l-30.4,101.7c-2.5,8.3-10.1,13-16.2,10.1L8.3,274c-5.2-2.4-7.6-9.6-5.5-16.6L26,180c2.1-7.1,8-11.7,13.7-10.9
		l86,12.4C132.4,182.5,136.1,190.6,133.6,198.9L133.6,198.9z"/>
	<path d="M108.5,351.9l50.4,93.5c4.1,7.6,2.1,16.3-4.3,18.6L73,493.7c-5.4,1.9-12.1-1.4-15.6-7.9l-38.5-71.2
		c-3.4-6.4-2.6-13.9,2.1-17.3l69.6-52C96,341.3,104.3,344.4,108.5,351.9z"/>
	<g>
		<defs>
			<rect id="SVGID_1_" x="0.7" y="0.7" width="609.2" height="609.2"/>
		</defs>
		<clipPath id="SVGID_2_">
			<use xlink:href="#SVGID_1_"  style="overflow:visible;"/>
		</clipPath>
		<g class="st0">
			<path d="M198.9,478l101.7,30.4c8.3,2.5,13,10,10.2,16.1L274,603.3c-2.4,5.2-9.6,7.5-16.6,5.4L180,585.6
				c-7.1-2.1-11.7-8-10.9-13.7l12.5-86C182.5,479.2,190.6,475.5,198.9,478z"/>
		</g>
	</g>
	<path d="M352,503.1l93.4-50.4c7.6-4.1,16.3-2.1,18.6,4.3l29.7,81.6c1.9,5.4-1.4,12.1-7.9,15.6l-71.2,38.4c-6.4,3.5-13.9,2.6-17.3-2
		l-52-69.6C341.3,515.6,344.4,507.2,352,503.1L352,503.1z"/>
	<g>
		<defs>
			<rect id="SVGID_3_" x="0.7" y="0.7" width="609.2" height="609.2"/>
		</defs>
		<clipPath id="SVGID_4_">
			<use xlink:href="#SVGID_3_"  style="overflow:visible;"/>
		</clipPath>
		<g class="st1">
			<path d="M478,412.7l30.4-101.8c2.5-8.2,10-13,16.2-10.1l78.7,36.7c5.2,2.5,7.5,9.6,5.5,16.6l-23.2,77.5c-2.1,7-8,11.7-13.7,10.9
				l-86-12.5C479.2,429,475.5,420.9,478,412.7L478,412.7z"/>
		</g>
	</g>
	<path d="M503.1,259.6l-50.4-93.5c-4.1-7.5-2.1-16.2,4.3-18.5l81.6-29.7c5.4-2,12.1,1.4,15.6,7.9l38.4,71.1c3.5,6.5,2.6,13.9-2,17.4
		L521,266.2C515.6,270.3,507.2,267.2,503.1,259.6L503.1,259.6z"/>
	<path d="M352.4,150c-85.9-25.6-176.7,23.3-202.4,109.2s23.4,176.7,109.2,202.3s176.7-23.3,202.3-109.2S438.2,175.7,352.4,150
		 M274.6,410c-57.6-17.2-90.3-77.9-73-135.5c17.2-57.6,77.9-90.3,135.5-73c57.5,17.2,90.2,77.8,73,135.4
		c-17.2,57.6-77.8,90.3-135.3,73.1C274.7,410,274.7,410,274.6,410z"/>
	<path d="M371.5,85.8C250.1,49.5,122.2,118.6,85.9,240s32.7,249.4,154.2,285.7S489.4,493,525.7,371.5S493,122.2,371.5,85.8
		 M250.6,490.4c-101.8-30.5-159.8-138-129.4-239.8S259.2,90.8,361,121.2s159.8,138,129.4,239.7S352.4,520.8,250.6,490.4z"/>
</g>
</svg>
