<svg xmlns="http://www.w3.org/2000/svg" viewBox="0 0 250.29 250.29"><title>air</title><circle cx="125.14" cy="125.14" r="125.14" fill="#fff"/><circle cx="125.14" cy="125.14" r="117.49" fill="#a1b0a6"/><path d="M33.62,115.47c.37.07,34.43,7.09,48.44-10.13s14.86-40.68,35.45-40.68c16.48,0,20.26,10.55,20.26,20.8,0,8-8.26,20.92-18.07,20.9-10.63,0-11.07-9.5-10.86-12.35s3.06-8.7,9.34-3.93c3.18,1.22,2.28-3.13,2.28-3.13-1.65-4.46-4.88-6-8.93-6-6,.05-13.84,7.26-13.84,16.82,0,6.21,2.54,17,18.72,17.55,16.75.17,31.4-12.59,32.11-34.94.67-21.33-19.48-27.2-31.52-27.2-21.63,0-29.78,22.9-33,29.34s-10,19.4-20.4,25-28.66,5.08-29.09,5.07C32.71,112.6,31.88,114.69,33.62,115.47Z" fill="#fff"/><path d="M61.58,131.58c.5.06,33.21,22.84,78.72,2.35,21.63-9.73,32-30.46,49.51-30.46,10.05,0,15.16,6.33,15.16,13.07,0,6.53-4.51,12-11.74,12-4,0-12.79-3.85-11-13.09.47-2.35-.28-3.1-1.07-3.3-1.45-.28-4.85,3.46-5.67,7.47-2.52,12.25,7.48,18.79,20.15,18.69,6.12,0,20.32-4.61,21.28-22.85.91-17.41-9-24.87-25.41-24.87-24.75,0-44.37,21.68-56.71,30.15-31.64,21.72-71.53,8.5-72.11,8.49C60.36,128.47,59.72,131,61.58,131.58Z" fill="#fff"/><path d="M21,131.28c.51,0,19.19-6.09,75.56,28.76,13.77,8.51,29.67,13,39.61,13,16.48,0,28.4-5.58,29.13-15.14.56-7.39-4.1-11.26-8.53-11.5-4-.22-12.34.84-12.18,9.53.05,2.39-.56,3.06-1.37,3.18-1.47.14-4.08-4.26-4.08-8.34,0-7.79,6-13.7,18.77-13.41,7.46,0,18.84,3.91,18.84,21.51,0,17.35-21,25.71-38.72,25.88-22.36,0-43.47-11.43-55.37-20.17C51.8,141.9,31.93,134,21.5,133.71,18.69,133.62,19,131.28,21,131.28Z" fill="#fff"/></svg>