<svg xmlns="http://www.w3.org/2000/svg" viewBox="0 0 250.29 250.29"><title>dark</title><circle cx="125.14" cy="125.14" r="125.14" fill="#fff"/><circle cx="125.14" cy="125.14" r="117.49" fill="#34312e"/><path d="M133.86,185.21c21-11.07,35.46-33.83,35.46-60.07s-14.45-49-35.46-60.07a64.3,64.3,0,0,0-8.72-3.78,62,62,0,0,0-11.38-2.75,61.2,61.2,0,0,0-8.72-.63c-35.44,0-64.28,30.16-64.28,67.23S69.6,192.37,105,192.37a61.33,61.33,0,0,0,20.1-3.38A61.89,61.89,0,0,0,133.86,185.21Z" fill="none"/><path d="M145.23,57.91a62.52,62.52,0,0,0-8.7.63,71.25,71.25,0,0,1,8.81,5.38C177.76,64,204,91.37,204,125.14s-26.26,61.17-58.68,61.23a71.18,71.18,0,0,1-8.81,5.37,61,61,0,0,0,8.7.63c35.45,0,64.28-30.16,64.28-67.23S180.68,57.91,145.23,57.91Z" fill="none"/><path d="M145.23,50.91a68.89,68.89,0,0,0-20.09,3,68.57,68.57,0,0,0-20.1-3c-39.37,0-71.28,33.24-71.28,74.23S65.67,199.37,105,199.37a68.57,68.57,0,0,0,20.1-3,68.56,68.56,0,0,0,20.09,3c39.37,0,71.28-33.23,71.28-74.23S184.6,50.91,145.23,50.91ZM105,192.37c-35.44,0-64.28-30.16-64.28-67.23S69.6,57.91,105,57.91a61.2,61.2,0,0,1,8.72.63,62,62,0,0,1,11.38,2.75,64.3,64.3,0,0,1,8.72,3.78c21,11.07,35.46,33.83,35.46,60.07s-14.45,49-35.46,60.07a61.89,61.89,0,0,1-8.72,3.78,61.33,61.33,0,0,1-20.1,3.38Zm40.19,0a61,61,0,0,1-8.7-.63,71.18,71.18,0,0,0,8.81-5.37c32.42-.06,58.68-27.45,58.68-61.23S177.76,64,145.34,63.92a71.25,71.25,0,0,0-8.81-5.38,62.52,62.52,0,0,1,8.7-.63c35.45,0,64.28,30.16,64.28,67.23S180.68,192.37,145.23,192.37Z" fill="#fff"/></svg>