<svg xmlns="http://www.w3.org/2000/svg" viewBox="0 0 250.29 250.29"><title>fire</title><circle cx="125.14" cy="125.14" r="125.14" fill="#fff"/><circle cx="125.14" cy="125.14" r="117.49" fill="#f55c1f"/><path d="M140.85,25.89a.78.78,0,0,1,.66.83c-.56,3.81-3.35,25,5.81,43.61,13,26.31,24.78,25.51,36.77,42.65,12.47,17.81,36.56,82.35-41.11,109.35-3.11.27-2.46-2.58-.78-3.56A35.53,35.53,0,0,0,157.66,197c2.08-9.35.82-15.52-.35-22.37s-6.59-15.5-6.79-15.78-.83-.81-1.37.27a70.14,70.14,0,0,1-16.58,20.66c-10.17,8.35-16.27,11.5-20.29,15.54-14.75,15.27-1.9,26.81-.9,28.8.41,1-.75,2.19-2.1,1.69-1.74-.44-37.5-7.83-52.21-46C48.53,157,55,125.48,65.21,110.08c1.09-1.75,3.24-.86,2.93.94-1,16.11,2.25,24,4.7,27.62S81.05,150.35,92.41,150s17.67-7.46,18.23-16-2-16.08-5.74-30.58c-3.66-14.19-4.13-35.68,6.81-54.79C127.67,20.82,140.34,25.76,140.85,25.89Z" fill="#fff"/><path d="M141.42,27" fill="#fff"/></svg>