<svg xmlns="http://www.w3.org/2000/svg" viewBox="0 0 250.29 250.29"><title>frost</title><circle cx="125.14" cy="125.14" r="125.14" fill="#fff"/><circle cx="125.14" cy="125.14" r="117.49" fill="#61c2ca"/><path d="M214.74,148.39A4.11,4.11,0,0,0,209,147.3l-17.18,11.8-12.76-7.37,22.23-15.1a4.11,4.11,0,1,0-4.62-6.79l-25.52,17.33-21.5-12.42V116.58l21.13-12.2,25.51,17.33a4.11,4.11,0,1,0,4.62-6.79l-22.23-15.1,12.76-7.37,17.19,11.8a4.11,4.11,0,1,0,4.62-6.8L199.36,87.9l12.39-7.16a4.11,4.11,0,1,0-4.11-7.11L195,80.92l-1.36-17.47a4.11,4.11,0,0,0-8.2.6l1.67,21.42-12.43,7.18-1.94-26.57a4.11,4.11,0,0,0-8.2.6l2.23,30.53-20.91,12.08L129,99.53V74.74l27.77-13.43a4.11,4.11,0,0,0-3.58-7.4L129,65.61V50.88l18.81-9a4.11,4.11,0,1,0-3.58-7.4L129,41.77V27.46a4.11,4.11,0,0,0-8.22,0V42.05l-15.81-7.56a4.11,4.11,0,0,0-3.58,7.4l19.39,9.27V65.51l-24-11.6a4.11,4.11,0,0,0-3.58,7.4l27.56,13.33V99.77l-15.82,9.14-21-12.15L86.13,66a4.11,4.11,0,1,0-8.2-.6L76,92.2,63.22,84.83l1.62-20.78a4.11,4.11,0,0,0-8.2-.6L55.33,80.28l-12.4-7.16a4.11,4.11,0,0,0-4.11,7.12l12.64,7.29L37,97.45a4.11,4.11,0,1,0,4.62,6.8L59.35,92.09l12.43,7.17-22,15a4.11,4.11,0,1,0,4.62,6.8l25.32-17.2,21.8,12.58v18.51l-22.17,12.8L54,130.52a4.11,4.11,0,1,0-4.62,6.79l22,15L59,159.46,41.25,147.3a4.11,4.11,0,0,0-4.62,6.8L51.08,164l-12.63,7.29a4.11,4.11,0,1,0,4.11,7.12L55,171.27l1.31,16.83a4.11,4.11,0,1,0,8.2-.6l-1.62-20.78,12.76-7.37,2,26.8a4.11,4.11,0,1,0,8.2-.6L83.5,154.79l21.7-12.53,15.54,9v24.41L93.18,189a4.11,4.11,0,0,0,3.58,7.4l24-11.6v14.35l-19.39,9.27a4.11,4.11,0,1,0,3.58,7.39l15.81-7.55v14.59a4.11,4.11,0,0,0,8.22,0V208.52l15.23,7.27a4.11,4.11,0,1,0,3.58-7.39l-18.81-9V184.68l24.19,11.7a4.11,4.11,0,0,0,3.58-7.4L129,175.55V151.93l17-9.82,21.18,12.22-2.24,30.54a4.11,4.11,0,0,0,8.2.6l1.95-26.57,12.43,7.18-1.68,21.42a4.11,4.11,0,0,0,8.2.6l1.36-17.47L208,177.92a4.11,4.11,0,0,0,4.11-7.11l-12.4-7.16,13.92-9.55A4.11,4.11,0,0,0,214.74,148.39Zm-73.11-13.07-16.18,9.34-15.92-9.19V115.54l15.53-9,16.57,9.57Z" fill="#fff"/></svg>