<svg xmlns="http://www.w3.org/2000/svg" viewBox="0 0 250.29 250.29"><title>leaf</title><circle cx="125.14" cy="125.14" r="125.14" fill="#fff"/><circle cx="125.14" cy="125.14" r="117.49" fill="#a1a83d"/><path d="M95.16,158.87c-12.33,22.13-8.2,57.27-4.59,59,1.44.7,10-2.4,13.54-4.88,2.15-1-1.25-8.72-3.39-16.89-2.07-7.91-2.88-16.26-.71-15.36,13.73,4.46,34.67,14.09,56.36,1,27.7-16.74,50.42-55.49,35.23-128.15-1.51-8.09-3.59-4.59-5-3.33-2.7,2.46-5.87,5.81-21.4,11.37-21.5,7.7-33.65,2.86-66.66,13.54C62.82,86.77,43.14,128,59.82,155.9c2.16,3.61,10.1,13.84,14.64,16.29,4,2.18,4.08-2.75,4.08-2.75s-.81-32.09,64.84-66.39c14.75-7.7,26.69-22.73,28.49-22.15,2.45,0-1.76,14.24-27.94,30.08C126.65,121.44,101,145.77,95.16,158.87Z" fill="#fff"/></svg>