<svg xmlns="http://www.w3.org/2000/svg" viewBox="0 0 250.29 250.29"><title>light</title><circle cx="125.14" cy="125.14" r="125.14" fill="#fff"/><circle cx="125.14" cy="125.14" r="117.49" fill="#f2af1c"/><path d="M223.73,123.59l-40.9-21.72L196,56.54c.51-1.74-.5-2.74-2.23-2.2L149.19,68,126.72,26.55c-.87-1.6-2.26-1.59-3.09,0L102.4,67.91,56.54,54.31c-1.74-.52-2.72.48-2.16,2.21l14.41,44.85L26.56,123.6c-1.6.85-1.61,2.24,0,3.09l41.73,22.1-13.94,45c-.54,1.74.44,2.72,2.18,2.18L101.77,182l21.84,41.69c.84,1.61,2.26,1.63,3.14,0l23.11-41.54,43.9,13.71c1.74.54,2.75-.44,2.25-2.19L183.26,149l40.49-22.27C225.34,125.86,225.33,124.45,223.73,123.59Zm-45-54.41c1.77-.43,2.86.66,2.43,2.42l-6.31,26L164.32,92,164.2,92l1.48-5.11c.51-1.74-.5-2.73-2.23-2.2L159,86l-5.74-10.57ZM139,92.12l-6.31-11.64,12.34-3,6.61,10.8Zm-27,0L99.75,88.45l6.39-11L118,80.34ZM92.59,111.41l-11.3,6-3.2-12.15,10.49-6.29Zm-.29,27.4-3.93,12.67L77.62,145l3.07-12.3ZM111.64,158l6.15,11.75-12.27,3L99,161.9Zm27.78.1L151.93,162l-6.65,10.76L133,169.72Zm19.3-19.18,11.51-6.34,2.89,12.21-10.85,6.61Zm-.25-27.23L162.16,99l10.73,6.5-3,12.3Zm-35-64c.91-1.57,2.44-1.59,3.39,0l14,22.83L129.43,74l-.18,0-2.53-4.66c-.87-1.6-2.26-1.58-3.09,0l-2.12,4.14-11.17-3.31ZM69.23,71.59c-.46-1.76.61-2.85,2.37-2.43l26.84,6.46L92.9,86.41l-6.05-1.79c-1.74-.52-2.72.48-2.16,2.21l1.7,5.27L76.07,97.54ZM47.71,126.85c-1.55-.94-1.55-2.47,0-3.41l23.61-14.17L75,120.67l-5.57,2.93c-1.61.85-1.61,2.24,0,3.09l4.91,2.6-3.57,11.53ZM71.6,181.11c-1.76.43-2.85-.66-2.41-2.42l6.49-26,10.57,5.6-1.59,5.14c-.54,1.74.44,2.72,2.18,2.18L92.29,164l5.61,10.68Zm55.28,21.48c-1,1.55-2.5,1.54-3.44,0l-13.81-23,11.48-3.52,2.5,4.76c.84,1.61,2.26,1.63,3.14,0l2.79-5,11.6,3.62Zm54.25-23.91c.42,1.77-.68,2.85-2.44,2.42l-24.78-6.17,5.83-10.47,3.71,1.16c1.74.54,2.75-.44,2.25-2.19l-1.17-4.12.13-.08,10.51-5.78Zm21.45-51.82-21.84,13.3-3.29-11.54,3.43-1.89c1.6-.87,1.59-2.28,0-3.14l-3.74-2a2.64,2.64,0,0,1,.07-.3l3.27-11.25,22.11,13.38C204.13,124.37,204.13,125.92,202.58,126.86Z" fill="#fff"/></svg>